M48
; DRILL file {KiCad 7.0.5} date Sat Aug 24 17:50:42 2024
; FORMAT={-:-/ absolute / metric / decimal}
; #@! TF.CreationDate,2024-08-24T17:50:42+10:00
; #@! TF.GenerationSoftware,Kicad,Pcbnew,7.0.5
; #@! TF.FileFunction,Plated,1,2,PTH
FMAT,2
METRIC
; #@! TA.AperFunction,Plated,PTH,ViaDrill
T1C0.400
; #@! TA.AperFunction,Plated,PTH,ComponentDrill
T2C0.600
; #@! TA.AperFunction,Plated,PTH,ComponentDrill
T3C0.700
; #@! TA.AperFunction,Plated,PTH,ComponentDrill
T4C0.800
; #@! TA.AperFunction,Plated,PTH,ComponentDrill
T5C0.900
; #@! TA.AperFunction,Plated,PTH,ComponentDrill
T6C1.000
; #@! TA.AperFunction,Plated,PTH,ComponentDrill
T7C1.100
; #@! TA.AperFunction,Plated,PTH,ComponentDrill
T8C1.500
; #@! TA.AperFunction,Plated,PTH,ComponentDrill
T9C1.524
; #@! TA.AperFunction,Plated,PTH,ComponentDrill
T10C2.210
; #@! TA.AperFunction,Plated,PTH,ComponentDrill
T11C3.200
%
G90
G05
T1
X55.0Y-68.0
X55.0Y-71.0
X55.0Y-74.0
X55.0Y-77.0
X55.0Y-80.0
X55.0Y-83.0
X55.0Y-86.0
X55.0Y-89.0
X55.0Y-92.0
X55.0Y-95.0
X55.0Y-98.0
X55.0Y-101.0
X55.0Y-104.0
X55.0Y-107.0
X55.0Y-110.0
X55.0Y-113.0
X55.0Y-116.0
X55.0Y-119.0
X55.0Y-122.0
X55.0Y-125.0
X55.0Y-128.0
X55.0Y-131.0
X55.0Y-134.0
X55.0Y-137.0
X55.0Y-141.0
X55.0Y-144.0
X55.0Y-147.0
X55.0Y-150.0
X55.0Y-153.0
X55.0Y-156.0
X55.0Y-159.0
X55.0Y-162.0
X55.0Y-165.0
X55.0Y-168.0
X55.0Y-171.0
X55.0Y-174.0
X55.0Y-177.0
X55.0Y-180.0
X55.0Y-183.0
X63.0Y-194.0
X63.5Y-93.98
X65.278Y-96.012
X66.0Y-194.0
X67.31Y-93.98
X69.0Y-194.0
X72.0Y-194.0
X75.0Y-194.0
X78.0Y-194.0
X81.0Y-194.0
X84.0Y-194.0
X87.0Y-194.0
X90.0Y-194.0
X93.0Y-194.0
X96.0Y-194.0
X99.0Y-194.0
X102.0Y-194.0
X105.0Y-194.0
X108.0Y-194.0
X111.0Y-194.0
X114.0Y-194.0
X117.0Y-194.0
X120.0Y-62.0
X120.0Y-194.0
X123.0Y-62.0
X123.0Y-78.0
X123.0Y-194.0
X124.46Y-91.948
X125.73Y-90.694
X126.0Y-62.0
X126.0Y-194.0
X127.648Y-88.392
X128.712Y-100.65
X129.0Y-62.0
X129.0Y-194.0
X131.572Y-90.694
X131.572Y-91.694
X131.75Y-74.75
X132.0Y-62.0
X132.0Y-194.0
X132.08Y-86.36
X132.75Y-74.75
X135.0Y-62.0
X136.0Y-194.0
X138.0Y-62.0
X139.0Y-194.0
X141.0Y-62.0
X142.0Y-194.0
X144.0Y-62.0
X145.0Y-194.0
X147.0Y-62.0
X148.0Y-194.0
X148.721Y-101.469
X150.0Y-62.0
X151.0Y-194.0
X153.0Y-62.0
X154.0Y-194.0
X154.352Y-100.519
X155.38Y-101.562
X156.0Y-62.0
X157.0Y-194.0
X158.496Y-85.386
X159.0Y-62.0
X160.0Y-194.0
X161.726Y-86.874
X162.0Y-62.0
X163.0Y-194.0
X163.056Y-111.265
X163.068Y-112.328
X163.078Y-109.22
X163.1Y-110.266
X164.883Y-85.025
X165.0Y-62.0
X166.0Y-194.0
X166.624Y-99.076
X166.624Y-100.076
X167.132Y-95.541
X167.602Y-85.75
X168.0Y-62.0
X169.0Y-84.879
X169.0Y-194.0
X170.18Y-148.082
X171.0Y-62.0
X171.18Y-148.082
X172.0Y-194.0
X172.179Y-148.082
X173.179Y-148.082
X174.0Y-62.0
X175.0Y-194.0
X177.0Y-62.0
X177.546Y-83.566
X178.0Y-194.0
X180.34Y-71.585
X180.848Y-100.754
X180.848Y-101.753
X182.0Y-194.0
X183.642Y-75.623
X184.404Y-71.585
X185.0Y-194.0
X186.69Y-77.47
X186.783Y-101.685
X186.901Y-99.706
X186.97Y-100.704
X188.0Y-194.0
X191.0Y-194.0
X193.54Y-99.576
X193.552Y-100.588
X193.764Y-101.685
X194.0Y-194.0
X197.0Y-194.0
X197.828Y-90.678
X197.828Y-91.686
X197.828Y-92.686
X197.828Y-93.685
X197.828Y-94.742
X198.016Y-99.305
X198.628Y-87.724
X198.74Y-100.083
X199.427Y-90.678
X199.427Y-91.686
X199.427Y-92.686
X199.427Y-93.685
X199.427Y-94.685
X199.465Y-99.2
X199.898Y-79.756
X199.898Y-81.788
X200.0Y-194.0
X200.189Y-98.368
X200.914Y-97.536
X201.422Y-58.674
X203.0Y-194.0
X204.216Y-77.47
X204.216Y-80.264
X204.978Y-102.362
X205.486Y-58.674
X206.0Y-194.0
X206.248Y-81.788
X207.264Y-70.104
X207.772Y-83.058
X208.28Y-95.25
X208.5Y-75.5
X208.534Y-81.788
X209.0Y-194.0
X209.5Y-82.25
X209.576Y-77.952
X210.426Y-87.242
X210.745Y-86.173
X211.011Y-76.962
X211.011Y-77.962
X211.479Y-76.079
X211.75Y-81.5
X212.0Y-91.25
X212.0Y-194.0
X212.126Y-83.048
X212.237Y-75.322
X212.475Y-80.805
X213.539Y-74.972
X214.444Y-75.754
X214.532Y-66.25
X214.786Y-59.392
X215.0Y-194.0
X215.392Y-75.438
X215.5Y-83.75
X215.75Y-79.25
X215.75Y-90.75
X216.056Y-63.456
X216.593Y-66.268
X217.17Y-90.424
X218.0Y-194.0
X218.209Y-74.096
X219.456Y-89.154
X219.71Y-70.104
X220.472Y-90.17
X221.0Y-194.0
X221.488Y-79.264
X221.488Y-80.264
X221.582Y-73.749
X221.742Y-75.946
X222.25Y-83.82
X222.25Y-84.82
X222.307Y-72.681
X222.758Y-64.516
X223.012Y-76.708
X223.012Y-77.733
X223.012Y-78.74
X223.266Y-71.957
X223.422Y-68.282
X224.0Y-194.0
X224.028Y-86.614
X224.768Y-69.627
X227.0Y-194.0
X229.87Y-95.25
X230.0Y-194.0
X230.886Y-90.17
X233.0Y-194.0
X235.386Y-107.762
X235.386Y-108.761
X235.386Y-109.761
X235.386Y-110.76
X235.386Y-111.76
X235.451Y-85.852
X235.901Y-84.582
X235.966Y-83.566
X235.979Y-82.554
X236.0Y-194.0
X239.0Y-194.0
X240.5Y-77.6
X241.931Y-78.006
X242.0Y-194.0
X243.586Y-89.908
X243.586Y-90.908
X243.586Y-91.907
X243.586Y-92.907
X243.586Y-93.906
X243.586Y-94.906
X243.586Y-95.905
X245.0Y-194.0
X248.0Y-194.0
X251.0Y-194.0
X255.0Y-194.0
X258.0Y-194.0
X258.822Y-113.542
X258.826Y-114.702
X258.826Y-115.701
X258.826Y-116.84
X258.826Y-117.845
X261.0Y-194.0
X264.0Y-194.0
X264.57Y-77.183
X264.893Y-78.129
X265.0Y-62.0
X266.065Y-145.415
X266.409Y-79.756
X267.0Y-194.0
X267.192Y-145.288
X268.0Y-62.0
X268.191Y-145.274
X269.19Y-145.291
X270.0Y-194.0
X270.19Y-145.287
X271.0Y-62.0
X271.189Y-145.289
X272.189Y-145.288
X273.0Y-194.0
X274.0Y-62.0
X276.0Y-194.0
X277.0Y-62.0
X278.892Y-129.286
X279.0Y-194.0
X280.0Y-62.0
X280.03Y-129.165
X281.15Y-129.286
X282.0Y-194.0
X282.15Y-129.286
X283.0Y-62.0
X283.149Y-129.286
X284.149Y-129.286
X284.48Y-95.005
X285.0Y-194.0
X285.242Y-129.286
X286.0Y-62.0
X288.0Y-194.0
X289.0Y-62.0
X291.0Y-194.0
X292.0Y-62.0
X294.0Y-194.0
X295.0Y-62.0
X297.0Y-194.0
X297.18Y-91.007
X297.18Y-92.007
X297.18Y-93.006
X297.18Y-94.006
X297.18Y-95.005
X298.0Y-62.0
X301.0Y-62.0
X301.0Y-194.0
X304.0Y-62.0
X304.0Y-194.0
X307.0Y-62.0
X307.0Y-194.0
X310.0Y-62.0
X310.0Y-194.0
X313.0Y-62.0
X313.0Y-194.0
X316.0Y-62.0
X316.0Y-194.0
X319.0Y-62.0
X319.0Y-194.0
X322.0Y-62.0
X322.0Y-194.0
X325.0Y-62.0
X325.0Y-194.0
X328.0Y-62.0
X328.0Y-194.0
X331.0Y-62.0
X331.0Y-194.0
X334.0Y-62.0
X335.0Y-194.0
X337.0Y-62.0
X338.0Y-194.0
X340.0Y-62.0
X341.0Y-194.0
X343.0Y-62.0
X344.0Y-194.0
X346.0Y-62.0
X347.0Y-194.0
X349.0Y-62.0
X350.0Y-194.0
X352.0Y-62.0
X352.298Y-70.612
X352.298Y-74.93
X352.552Y-87.376
X353.0Y-194.0
X354.838Y-85.344
X354.838Y-89.408
X355.0Y-62.0
X356.0Y-194.0
X357.124Y-87.376
X358.0Y-62.0
X359.0Y-194.0
X361.0Y-62.0
X362.0Y-194.0
X364.0Y-62.0
X365.0Y-194.0
X367.0Y-62.0
X370.0Y-62.0
X375.0Y-69.0
X375.0Y-72.0
X375.0Y-75.0
X375.0Y-78.0
X375.0Y-81.0
X375.0Y-84.0
X375.0Y-87.0
X375.0Y-90.0
X375.0Y-93.0
X375.0Y-96.0
X375.0Y-99.0
X375.0Y-102.0
X375.0Y-105.0
X375.0Y-108.0
X375.0Y-111.0
X375.0Y-114.0
X375.0Y-117.0
X375.0Y-120.0
X375.0Y-123.0
X375.0Y-126.0
X375.0Y-129.0
X375.0Y-132.0
X375.0Y-135.0
X375.0Y-138.0
X375.0Y-142.0
X375.0Y-145.0
X375.0Y-148.0
X375.0Y-151.0
X375.0Y-154.0
X375.0Y-157.0
X375.0Y-160.0
X375.0Y-163.0
X375.0Y-166.0
X375.0Y-169.0
X375.0Y-172.0
X375.0Y-175.0
X375.0Y-178.0
X375.0Y-181.0
X375.0Y-184.0
T3
X197.358Y-80.772
X197.358Y-82.042
X197.358Y-83.312
X197.358Y-84.582
X197.358Y-85.852
X198.628Y-80.772
X198.628Y-82.042
X198.628Y-83.312
X198.628Y-84.582
X198.628Y-85.852
T4
X115.45Y-67.18
X115.45Y-74.8
X117.99Y-67.18
X117.99Y-74.8
X120.53Y-67.18
X120.53Y-74.8
X123.07Y-67.18
X123.07Y-74.8
X135.89Y-89.154
X135.89Y-94.234
X139.192Y-87.599
X139.192Y-92.678
X142.494Y-89.154
X142.494Y-94.234
X145.796Y-74.898
X145.796Y-79.978
X145.796Y-87.599
X145.796Y-92.678
X149.098Y-76.422
X149.098Y-81.502
X149.098Y-89.154
X149.098Y-94.234
X152.4Y-74.898
X152.4Y-79.978
X152.4Y-87.599
X152.4Y-92.678
X155.702Y-76.454
X155.702Y-81.534
X155.702Y-89.154
X155.702Y-94.234
X159.004Y-74.93
X159.004Y-80.01
X159.004Y-87.599
X159.004Y-92.678
X162.306Y-76.454
X162.306Y-81.534
X162.306Y-89.154
X162.306Y-94.234
X165.608Y-74.93
X165.608Y-80.01
X165.608Y-87.599
X165.608Y-92.678
X168.91Y-76.454
X168.91Y-81.534
X168.91Y-89.123
X168.91Y-94.203
X172.212Y-74.93
X172.212Y-80.01
X172.212Y-87.599
X172.212Y-92.678
X175.514Y-76.454
X175.514Y-81.534
X175.514Y-89.123
X175.514Y-94.203
X178.816Y-74.93
X178.816Y-80.01
X178.816Y-87.599
X178.816Y-92.678
X182.118Y-65.817
X182.118Y-70.897
X182.118Y-76.2
X182.118Y-81.28
X185.42Y-64.262
X185.42Y-69.342
X185.42Y-74.898
X185.42Y-79.978
X188.722Y-65.849
X188.722Y-70.929
X188.722Y-76.2
X188.722Y-81.28
X192.024Y-64.262
X192.024Y-69.342
X195.326Y-65.817
X195.326Y-70.897
X198.628Y-64.262
X198.628Y-69.342
X203.454Y-58.674
X203.454Y-66.294
X209.073Y-70.104
X214.153Y-70.104
X216.376Y-70.104
X221.456Y-70.104
X222.758Y-58.674
X222.758Y-66.294
X225.806Y-58.674
X225.806Y-66.294
X231.394Y-64.262
X231.394Y-69.342
X234.696Y-65.817
X234.696Y-70.897
X237.998Y-64.262
X237.998Y-69.342
X241.215Y-76.2
X241.215Y-81.28
X241.3Y-65.817
X241.3Y-70.897
X244.517Y-74.898
X244.517Y-79.978
X244.602Y-64.262
X244.602Y-69.342
X247.819Y-76.2
X247.819Y-81.28
X247.904Y-65.817
X247.904Y-70.897
X251.121Y-74.898
X251.121Y-79.978
X251.121Y-87.599
X251.121Y-92.678
X254.423Y-76.2
X254.423Y-81.28
X254.423Y-89.123
X254.423Y-94.203
X257.725Y-74.898
X257.725Y-79.978
X257.725Y-87.599
X257.725Y-92.678
X261.027Y-76.2
X261.027Y-81.28
X261.027Y-89.123
X261.027Y-94.203
X264.329Y-74.898
X264.329Y-79.978
X264.329Y-87.599
X264.329Y-92.678
X267.631Y-76.2
X267.631Y-81.28
X267.631Y-89.123
X267.631Y-94.203
X270.933Y-74.898
X270.933Y-79.978
X270.933Y-87.599
X270.933Y-92.678
X274.235Y-76.2
X274.235Y-81.28
X274.235Y-89.123
X274.235Y-94.203
X277.495Y-87.599
X277.495Y-92.678
X277.537Y-74.898
X277.537Y-79.978
X280.755Y-89.123
X280.755Y-94.203
X280.839Y-76.2
X280.839Y-81.28
X284.014Y-87.599
X284.014Y-92.678
X284.141Y-74.898
X284.141Y-79.978
X287.274Y-89.123
X287.274Y-94.203
X290.534Y-87.599
X290.534Y-92.678
X293.793Y-89.123
X293.793Y-94.203
T5
X207.518Y-61.468
X207.518Y-64.008
T6
X65.373Y-86.455
X65.373Y-88.995
X65.373Y-91.535
X65.373Y-94.075
X110.5Y-69.46
X110.5Y-72.0
X349.798Y-72.76
X349.798Y-87.26
X352.298Y-72.76
X354.798Y-72.76
X354.798Y-87.26
T7
X228.346Y-92.288
X230.886Y-92.288
X233.426Y-92.288
T9
X69.826Y-103.31
X72.239Y-179.537
X74.646Y-122.36
X76.176Y-100.77
X77.059Y-141.41
X78.589Y-176.997
X80.996Y-119.82
X81.758Y-160.46
X83.409Y-138.87
X88.108Y-157.92
X88.876Y-103.31
X95.226Y-100.77
X96.115Y-179.537
X98.522Y-122.36
X102.465Y-176.997
X103.221Y-141.41
X104.872Y-119.82
X108.006Y-103.31
X109.571Y-138.87
X112.746Y-160.46
X114.356Y-100.77
X117.572Y-122.36
X119.096Y-157.92
X119.887Y-179.537
X122.271Y-141.41
X123.922Y-119.82
X126.237Y-176.997
X127.103Y-103.31
X128.621Y-138.87
X131.79Y-160.46
X133.453Y-100.77
X136.622Y-122.36
X138.14Y-157.92
X141.321Y-141.41
X142.972Y-119.82
X146.153Y-103.31
X147.671Y-138.87
X150.846Y-160.46
X152.503Y-100.77
X155.672Y-122.36
X157.196Y-157.92
X160.371Y-141.41
X162.022Y-119.82
X165.203Y-103.31
X166.721Y-138.87
X169.896Y-160.46
X171.553Y-100.77
X174.675Y-122.36
X176.246Y-157.92
X179.421Y-141.41
X181.025Y-119.82
X184.253Y-103.31
X185.771Y-138.87
X188.946Y-160.46
X190.603Y-100.77
X191.367Y-179.537
X193.772Y-122.36
X195.296Y-157.92
X197.717Y-176.997
X198.471Y-141.41
X200.122Y-119.82
X203.303Y-103.31
X204.821Y-138.87
X207.996Y-160.46
X209.653Y-100.77
X212.822Y-122.36
X214.346Y-157.92
X217.521Y-141.41
X219.172Y-119.82
X222.353Y-103.31
X223.871Y-138.87
X227.046Y-160.46
X228.703Y-100.77
X231.872Y-122.36
X233.396Y-157.92
X236.571Y-141.41
X238.222Y-119.82
X241.403Y-103.31
X242.921Y-138.87
X246.096Y-160.46
X247.753Y-100.77
X250.922Y-122.36
X252.446Y-157.92
X255.621Y-141.41
X257.272Y-119.82
X260.447Y-179.537
X260.453Y-103.31
X261.971Y-138.87
X265.146Y-160.46
X266.797Y-176.997
X266.803Y-100.77
X269.972Y-122.36
X271.496Y-157.92
X274.671Y-141.41
X276.322Y-119.82
X279.497Y-179.537
X279.503Y-103.31
X281.021Y-138.87
X284.19Y-160.46
X285.847Y-176.997
X285.853Y-100.77
X289.022Y-122.36
X290.54Y-157.92
X293.721Y-141.41
X295.372Y-119.82
X298.547Y-179.537
X298.553Y-103.31
X300.071Y-138.87
X304.897Y-176.997
X304.903Y-100.77
X308.078Y-122.36
X310.491Y-160.46
X314.428Y-119.82
X316.841Y-157.92
X317.597Y-179.537
X323.947Y-176.997
X324.741Y-141.41
X327.154Y-103.31
X331.091Y-138.87
X331.942Y-122.36
X333.504Y-100.77
X336.647Y-179.537
X336.653Y-160.46
X338.292Y-119.82
X342.997Y-176.997
X343.003Y-157.92
X355.697Y-103.31
X355.697Y-122.36
X355.697Y-141.41
X355.697Y-160.46
X355.697Y-179.537
X362.047Y-100.77
X362.047Y-119.82
X362.047Y-138.87
X362.047Y-157.92
X362.047Y-176.997
T10
X71.723Y-86.836
X98.393Y-93.186
T11
X55.0Y-62.0
X55.0Y-192.0
X375.0Y-62.0
X375.0Y-192.0
T2
X210.962Y-60.58G85X210.962Y-59.78
G05
X210.962Y-64.93G85X210.962Y-63.83
G05
X219.602Y-60.58G85X219.602Y-59.78
G05
X219.602Y-64.93G85X219.602Y-63.83
G05
T8
X346.698Y-79.61G85X346.698Y-80.91
G05
X357.898Y-79.61G85X357.898Y-80.91
G05
T0
M30
