G04 #@! TF.GenerationSoftware,KiCad,Pcbnew,7.0.5*
G04 #@! TF.CreationDate,2024-08-24T17:49:56+10:00*
G04 #@! TF.ProjectId,keyboard,6b657962-6f61-4726-942e-6b696361645f,rev?*
G04 #@! TF.SameCoordinates,Original*
G04 #@! TF.FileFunction,Soldermask,Top*
G04 #@! TF.FilePolarity,Negative*
%FSLAX46Y46*%
G04 Gerber Fmt 4.6, Leading zero omitted, Abs format (unit mm)*
G04 Created by KiCad (PCBNEW 7.0.5) date 2024-08-24 17:49:56*
%MOMM*%
%LPD*%
G01*
G04 APERTURE LIST*
G04 Aperture macros list*
%AMRoundRect*
0 Rectangle with rounded corners*
0 $1 Rounding radius*
0 $2 $3 $4 $5 $6 $7 $8 $9 X,Y pos of 4 corners*
0 Add a 4 corners polygon primitive as box body*
4,1,4,$2,$3,$4,$5,$6,$7,$8,$9,$2,$3,0*
0 Add four circle primitives for the rounded corners*
1,1,$1+$1,$2,$3*
1,1,$1+$1,$4,$5*
1,1,$1+$1,$6,$7*
1,1,$1+$1,$8,$9*
0 Add four rect primitives between the rounded corners*
20,1,$1+$1,$2,$3,$4,$5,0*
20,1,$1+$1,$4,$5,$6,$7,0*
20,1,$1+$1,$6,$7,$8,$9,0*
20,1,$1+$1,$8,$9,$2,$3,0*%
G04 Aperture macros list end*
%ADD10C,0.650000*%
%ADD11R,0.600000X1.240000*%
%ADD12R,0.300000X1.240000*%
%ADD13O,1.000000X1.800000*%
%ADD14O,1.000000X2.100000*%
%ADD15R,1.600000X1.600000*%
%ADD16O,1.600000X1.600000*%
%ADD17C,1.750000*%
%ADD18C,3.987800*%
%ADD19O,3.500000X3.500000*%
%ADD20R,1.905000X2.000000*%
%ADD21O,1.905000X2.000000*%
%ADD22RoundRect,0.250000X-0.159099X0.512652X-0.512652X0.159099X0.159099X-0.512652X0.512652X-0.159099X0*%
%ADD23C,6.400000*%
%ADD24RoundRect,0.250000X-0.512652X-0.159099X-0.159099X-0.512652X0.512652X0.159099X0.159099X0.512652X0*%
%ADD25RoundRect,0.225000X0.335876X0.017678X0.017678X0.335876X-0.335876X-0.017678X-0.017678X-0.335876X0*%
%ADD26C,1.070000*%
%ADD27RoundRect,0.225000X-0.017678X0.335876X-0.335876X0.017678X0.017678X-0.335876X0.335876X-0.017678X0*%
%ADD28C,3.048000*%
%ADD29R,1.800000X1.800000*%
%ADD30C,1.800000*%
%ADD31RoundRect,0.250000X-0.475000X0.250000X-0.475000X-0.250000X0.475000X-0.250000X0.475000X0.250000X0*%
%ADD32C,1.600000*%
%ADD33R,1.700000X1.700000*%
%ADD34O,1.700000X1.700000*%
%ADD35C,5.080000*%
%ADD36R,2.000000X2.000000*%
%ADD37C,2.000000*%
%ADD38R,2.000000X3.200000*%
%ADD39RoundRect,0.250000X0.250000X0.475000X-0.250000X0.475000X-0.250000X-0.475000X0.250000X-0.475000X0*%
%ADD40RoundRect,0.075000X0.521491X-0.415425X-0.415425X0.521491X-0.521491X0.415425X0.415425X-0.521491X0*%
%ADD41RoundRect,0.075000X0.521491X0.415425X0.415425X0.521491X-0.521491X-0.415425X-0.415425X-0.521491X0*%
G04 APERTURE END LIST*
D10*
X218172466Y-63859534D03*
X212392466Y-63859534D03*
D11*
X218482466Y-64979534D03*
X217682466Y-64979534D03*
D12*
X216532466Y-64979534D03*
X215532466Y-64979534D03*
X215032466Y-64979534D03*
X214032466Y-64979534D03*
D11*
X212882466Y-64979534D03*
X212082466Y-64979534D03*
X212082466Y-64979534D03*
X212882466Y-64979534D03*
D12*
X213532466Y-64979534D03*
X214532466Y-64979534D03*
X216032466Y-64979534D03*
X217032466Y-64979534D03*
D11*
X217682466Y-64979534D03*
X218482466Y-64979534D03*
D13*
X219602466Y-60179534D03*
D14*
X219602466Y-64379534D03*
X210962466Y-64379534D03*
D13*
X210962466Y-60179534D03*
D15*
X280754668Y-89122500D03*
D16*
X280754668Y-94202500D03*
D15*
X149098000Y-89154000D03*
D16*
X149098000Y-94234000D03*
D15*
X182118000Y-65817500D03*
D16*
X182118000Y-70897500D03*
D15*
X162306000Y-76454000D03*
D16*
X162306000Y-81534000D03*
D15*
X264329336Y-74898500D03*
D16*
X264329336Y-79978500D03*
D17*
X325883750Y-105850000D03*
D18*
X330963750Y-105850000D03*
D17*
X336043750Y-105850000D03*
X354427000Y-143950000D03*
D18*
X359507000Y-143950000D03*
D17*
X364587000Y-143950000D03*
D15*
X175514000Y-76454000D03*
D16*
X175514000Y-81534000D03*
D17*
X316327000Y-182077050D03*
D18*
X321407000Y-182077050D03*
D17*
X326487000Y-182077050D03*
D19*
X230886000Y-75628000D03*
D20*
X228346000Y-92288000D03*
D21*
X230886000Y-92288000D03*
X233426000Y-92288000D03*
D22*
X222921751Y-87720249D03*
X221578249Y-89063751D03*
D15*
X244517336Y-74898500D03*
D16*
X244517336Y-79978500D03*
D15*
X168910000Y-89122500D03*
D16*
X168910000Y-94202500D03*
D15*
X234696000Y-65817500D03*
D16*
X234696000Y-70897500D03*
D17*
X116302000Y-124900000D03*
D18*
X121382000Y-124900000D03*
D17*
X126462000Y-124900000D03*
D22*
X220889751Y-85942249D03*
X219546249Y-87285751D03*
D15*
X284014334Y-87598500D03*
D16*
X284014334Y-92678500D03*
D15*
X293793336Y-89122500D03*
D16*
X293793336Y-94202500D03*
D17*
X121001000Y-143950000D03*
D18*
X126081000Y-143950000D03*
D17*
X131161000Y-143950000D03*
X125833000Y-105850000D03*
D18*
X130913000Y-105850000D03*
D17*
X135993000Y-105850000D03*
X354427000Y-163000000D03*
D18*
X359507000Y-163000000D03*
D17*
X364587000Y-163000000D03*
X235301000Y-143950000D03*
D18*
X240381000Y-143950000D03*
D17*
X245461000Y-143950000D03*
D15*
X267631336Y-76200000D03*
D16*
X267631336Y-81280000D03*
D17*
X221083000Y-105850000D03*
D18*
X226163000Y-105850000D03*
D17*
X231243000Y-105850000D03*
X118617000Y-182077050D03*
D18*
X123697000Y-182077050D03*
D17*
X128777000Y-182077050D03*
X178151000Y-143950000D03*
D18*
X183231000Y-143950000D03*
D17*
X188311000Y-143950000D03*
X263876000Y-163000000D03*
D18*
X268956000Y-163000000D03*
D17*
X274036000Y-163000000D03*
X287752000Y-124900000D03*
D18*
X292832000Y-124900000D03*
D17*
X297912000Y-124900000D03*
D15*
X261027336Y-89122500D03*
D16*
X261027336Y-94202500D03*
D17*
X111476000Y-163000000D03*
D18*
X116556000Y-163000000D03*
D17*
X121636000Y-163000000D03*
X163933000Y-105850000D03*
D18*
X169013000Y-105850000D03*
D17*
X174093000Y-105850000D03*
D15*
X277537336Y-74898500D03*
D16*
X277537336Y-79978500D03*
D15*
X188722000Y-65849000D03*
D16*
X188722000Y-70929000D03*
D17*
X101951000Y-143950000D03*
D18*
X107031000Y-143950000D03*
D17*
X112111000Y-143950000D03*
X187676000Y-163000000D03*
D18*
X192756000Y-163000000D03*
D17*
X197836000Y-163000000D03*
D15*
X274235336Y-76200000D03*
D16*
X274235336Y-81280000D03*
D15*
X270933336Y-87598500D03*
D16*
X270933336Y-92678500D03*
D15*
X115450000Y-74800000D03*
D16*
X117990000Y-74800000D03*
X120530000Y-74800000D03*
X123070000Y-74800000D03*
X123070000Y-67180000D03*
X120530000Y-67180000D03*
X117990000Y-67180000D03*
X115450000Y-67180000D03*
D23*
X375000000Y-62000000D03*
D17*
X211552000Y-124900000D03*
D18*
X216632000Y-124900000D03*
D17*
X221712000Y-124900000D03*
D15*
X159004000Y-87598500D03*
D16*
X159004000Y-92678500D03*
D15*
X162306000Y-89154000D03*
D16*
X162306000Y-94234000D03*
D17*
X278227000Y-182077050D03*
D18*
X283307000Y-182077050D03*
D17*
X288387000Y-182077050D03*
D24*
X212500000Y-88500000D03*
X213843502Y-89843502D03*
D17*
X278233000Y-105850000D03*
D18*
X283313000Y-105850000D03*
D17*
X288393000Y-105850000D03*
D15*
X237998000Y-64262000D03*
D16*
X237998000Y-69342000D03*
D17*
X75789000Y-143950000D03*
D18*
X80869000Y-143950000D03*
D17*
X85949000Y-143950000D03*
X140051000Y-143950000D03*
D18*
X145131000Y-143950000D03*
D17*
X150211000Y-143950000D03*
X254351000Y-143950000D03*
D18*
X259431000Y-143950000D03*
D17*
X264511000Y-143950000D03*
X149576000Y-163000000D03*
D18*
X154656000Y-163000000D03*
D17*
X159736000Y-163000000D03*
D25*
X216956008Y-75224008D03*
X215859992Y-74127992D03*
D15*
X244602000Y-64262000D03*
D16*
X244602000Y-69342000D03*
D15*
X257725336Y-87598500D03*
D16*
X257725336Y-92678500D03*
D15*
X274235336Y-89122500D03*
D16*
X274235336Y-94202500D03*
D17*
X335383000Y-163000000D03*
D18*
X340463000Y-163000000D03*
D17*
X345543000Y-163000000D03*
X335377000Y-182077050D03*
D18*
X340457000Y-182077050D03*
D17*
X345537000Y-182077050D03*
D15*
X261027336Y-76200000D03*
D16*
X261027336Y-81280000D03*
D15*
X142494000Y-89154000D03*
D16*
X142494000Y-94234000D03*
D17*
X282920000Y-163000000D03*
D18*
X288000000Y-163000000D03*
D17*
X293080000Y-163000000D03*
D15*
X139192000Y-87598500D03*
D16*
X139192000Y-92678500D03*
D26*
X198628000Y-85852000D03*
X197358000Y-85852000D03*
X198628000Y-84582000D03*
X197358000Y-84582000D03*
X198628000Y-83312000D03*
X197358000Y-83312000D03*
X198628000Y-82042000D03*
X197358000Y-82042000D03*
X198628000Y-80772000D03*
X197358000Y-80772000D03*
D15*
X284141336Y-74898500D03*
D16*
X284141336Y-79978500D03*
D17*
X354427000Y-182077050D03*
D18*
X359507000Y-182077050D03*
D17*
X364587000Y-182077050D03*
X249652000Y-124900000D03*
D18*
X254732000Y-124900000D03*
D17*
X259812000Y-124900000D03*
D15*
X287274000Y-89122500D03*
D16*
X287274000Y-94202500D03*
D17*
X268702000Y-124900000D03*
D18*
X273782000Y-124900000D03*
D17*
X278862000Y-124900000D03*
X297283000Y-105850000D03*
D18*
X302363000Y-105850000D03*
D17*
X307443000Y-105850000D03*
D15*
X277495002Y-87598500D03*
D16*
X277495002Y-92678500D03*
D15*
X254423336Y-76200000D03*
D16*
X254423336Y-81280000D03*
D15*
X145796000Y-74898500D03*
D16*
X145796000Y-79978500D03*
D27*
X217250000Y-88250000D03*
X216153984Y-89346016D03*
D28*
X145170750Y-175092050D03*
D18*
X145170750Y-190332050D03*
D28*
X245183250Y-175092050D03*
D18*
X245183250Y-190332050D03*
D15*
X135890000Y-89154000D03*
D16*
X135890000Y-94234000D03*
D17*
X106736000Y-105850000D03*
D18*
X111816000Y-105850000D03*
D17*
X116896000Y-105850000D03*
D15*
X172212000Y-74930000D03*
D16*
X172212000Y-80010000D03*
D15*
X185420000Y-74898500D03*
D16*
X185420000Y-79978500D03*
D15*
X270933336Y-74898500D03*
D16*
X270933336Y-79978500D03*
D29*
X207518000Y-64008000D03*
D30*
X207518000Y-61468000D03*
D15*
X192024000Y-64262000D03*
D16*
X192024000Y-69342000D03*
D23*
X55000000Y-192000000D03*
D17*
X244826000Y-163000000D03*
D18*
X249906000Y-163000000D03*
D17*
X254986000Y-163000000D03*
X173405000Y-124900000D03*
D18*
X178485000Y-124900000D03*
D17*
X183565000Y-124900000D03*
D31*
X118000000Y-78000000D03*
X118000000Y-79900000D03*
D17*
X273401000Y-143950000D03*
D18*
X278481000Y-143950000D03*
D17*
X283561000Y-143950000D03*
D32*
X203454000Y-66294000D03*
D16*
X203454000Y-58674000D03*
D15*
X155702000Y-76454000D03*
D16*
X155702000Y-81534000D03*
D17*
X206726000Y-163000000D03*
D18*
X211806000Y-163000000D03*
D17*
X216886000Y-163000000D03*
D31*
X224028000Y-92334000D03*
X224028000Y-94234000D03*
D17*
X354427000Y-124900000D03*
D18*
X359507000Y-124900000D03*
D17*
X364587000Y-124900000D03*
D33*
X65373000Y-86455000D03*
D34*
X65373000Y-88995000D03*
X65373000Y-91535000D03*
X65373000Y-94075000D03*
D35*
X71723000Y-86836000D03*
X98393000Y-93186000D03*
D17*
X306808000Y-124900000D03*
D18*
X311888000Y-124900000D03*
D17*
X316968000Y-124900000D03*
X190097000Y-182077050D03*
D18*
X195177000Y-182077050D03*
D17*
X200257000Y-182077050D03*
X259177000Y-182077050D03*
D18*
X264257000Y-182077050D03*
D17*
X269337000Y-182077050D03*
X192502000Y-124900000D03*
D18*
X197582000Y-124900000D03*
D17*
X202662000Y-124900000D03*
X240133000Y-105850000D03*
D18*
X245213000Y-105850000D03*
D17*
X250293000Y-105850000D03*
D36*
X354798000Y-72760000D03*
D37*
X349798000Y-72760000D03*
X352298000Y-72760000D03*
D38*
X357898000Y-80260000D03*
X346698000Y-80260000D03*
D37*
X349798000Y-87260000D03*
X354798000Y-87260000D03*
D39*
X233360000Y-95250000D03*
X231460000Y-95250000D03*
D31*
X120500000Y-78000000D03*
X120500000Y-79900000D03*
D15*
X257725336Y-74898500D03*
D16*
X257725336Y-79978500D03*
D17*
X323470750Y-143950000D03*
D18*
X328550750Y-143950000D03*
D17*
X333630750Y-143950000D03*
D15*
X247819336Y-76200000D03*
D16*
X247819336Y-81280000D03*
D23*
X55000000Y-62000000D03*
D28*
X340457000Y-150935000D03*
D18*
X340457000Y-135695000D03*
D28*
X316644500Y-150935000D03*
D18*
X316644500Y-135695000D03*
D17*
X94845000Y-182077050D03*
D18*
X99925000Y-182077050D03*
D17*
X105005000Y-182077050D03*
D28*
X97506000Y-169985000D03*
D18*
X97506000Y-154745000D03*
D28*
X73693500Y-169985000D03*
D18*
X73693500Y-154745000D03*
D17*
X309221000Y-163000000D03*
D18*
X314301000Y-163000000D03*
D17*
X319381000Y-163000000D03*
D15*
X251121336Y-74898500D03*
D16*
X251121336Y-79978500D03*
D15*
X231394000Y-64262000D03*
D16*
X231394000Y-69342000D03*
D17*
X135352000Y-124900000D03*
D18*
X140432000Y-124900000D03*
D17*
X145512000Y-124900000D03*
X97252000Y-124900000D03*
D18*
X102332000Y-124900000D03*
D17*
X107412000Y-124900000D03*
D15*
X241300000Y-65817500D03*
D16*
X241300000Y-70897500D03*
D32*
X225806000Y-66294000D03*
D16*
X225806000Y-58674000D03*
D17*
X216251000Y-143950000D03*
D18*
X221331000Y-143950000D03*
D17*
X226411000Y-143950000D03*
X292451000Y-143950000D03*
D18*
X297531000Y-143950000D03*
D17*
X302611000Y-143950000D03*
X202033000Y-105850000D03*
D18*
X207113000Y-105850000D03*
D17*
X212193000Y-105850000D03*
X80488000Y-163000000D03*
D18*
X85568000Y-163000000D03*
D17*
X90648000Y-163000000D03*
X159101000Y-143950000D03*
D18*
X164181000Y-143950000D03*
D17*
X169261000Y-143950000D03*
D15*
X290533666Y-87598500D03*
D16*
X290533666Y-92678500D03*
D17*
X182983000Y-105850000D03*
D18*
X188063000Y-105850000D03*
D17*
X193143000Y-105850000D03*
X87606000Y-105850000D03*
D18*
X92686000Y-105850000D03*
D17*
X97766000Y-105850000D03*
X197201000Y-143950000D03*
D18*
X202281000Y-143950000D03*
D17*
X207361000Y-143950000D03*
D15*
X214153500Y-70104000D03*
D16*
X209073500Y-70104000D03*
D23*
X375000000Y-192000000D03*
D15*
X178816000Y-74930000D03*
D16*
X178816000Y-80010000D03*
D28*
X342870000Y-112835000D03*
D18*
X342870000Y-97595000D03*
D28*
X319057500Y-112835000D03*
D18*
X319057500Y-97595000D03*
D17*
X73376000Y-124900000D03*
D18*
X78456000Y-124900000D03*
D17*
X83536000Y-124900000D03*
D15*
X216376500Y-70104000D03*
D16*
X221456500Y-70104000D03*
D17*
X130520000Y-163000000D03*
D18*
X135600000Y-163000000D03*
D17*
X140680000Y-163000000D03*
D15*
X185420000Y-64262000D03*
D16*
X185420000Y-69342000D03*
D17*
X68556000Y-105850000D03*
D18*
X73636000Y-105850000D03*
D17*
X78716000Y-105850000D03*
X70969000Y-182077050D03*
D18*
X76049000Y-182077050D03*
D17*
X81129000Y-182077050D03*
D15*
X159004000Y-74930000D03*
D16*
X159004000Y-80010000D03*
D15*
X195326000Y-65817500D03*
D16*
X195326000Y-70897500D03*
D15*
X168910000Y-76454000D03*
D16*
X168910000Y-81534000D03*
D33*
X110500000Y-69460000D03*
D34*
X110500000Y-72000000D03*
D15*
X165608000Y-87598500D03*
D16*
X165608000Y-92678500D03*
D15*
X247904000Y-65817500D03*
D16*
X247904000Y-70897500D03*
D32*
X222758000Y-58674000D03*
D16*
X222758000Y-66294000D03*
D17*
X297277000Y-182077050D03*
D18*
X302357000Y-182077050D03*
D17*
X307437000Y-182077050D03*
D15*
X254423336Y-89122500D03*
D16*
X254423336Y-94202500D03*
D15*
X155702000Y-89154000D03*
D16*
X155702000Y-94234000D03*
D22*
X206665751Y-77560249D03*
X205322249Y-78903751D03*
D17*
X144883000Y-105850000D03*
D18*
X149963000Y-105850000D03*
D17*
X155043000Y-105850000D03*
D15*
X264329336Y-87598500D03*
D16*
X264329336Y-92678500D03*
D17*
X154402000Y-124900000D03*
D18*
X159482000Y-124900000D03*
D17*
X164562000Y-124900000D03*
X330672000Y-124900000D03*
D18*
X335752000Y-124900000D03*
D17*
X340832000Y-124900000D03*
D15*
X267631336Y-89122500D03*
D16*
X267631336Y-94202500D03*
D40*
X215998788Y-86813107D03*
X216352342Y-86459553D03*
X216705895Y-86106000D03*
X217059449Y-85752446D03*
X217413002Y-85398893D03*
X217766555Y-85045340D03*
X218120109Y-84691786D03*
X218473662Y-84338233D03*
X218827215Y-83984680D03*
X219180769Y-83631126D03*
X219534322Y-83277573D03*
X219887876Y-82924019D03*
D41*
X219887876Y-80926443D03*
X219534322Y-80572889D03*
X219180769Y-80219336D03*
X218827215Y-79865782D03*
X218473662Y-79512229D03*
X218120109Y-79158676D03*
X217766555Y-78805122D03*
X217413002Y-78451569D03*
X217059449Y-78098016D03*
X216705895Y-77744462D03*
X216352342Y-77390909D03*
X215998788Y-77037355D03*
D40*
X214001212Y-77037355D03*
X213647658Y-77390909D03*
X213294105Y-77744462D03*
X212940551Y-78098016D03*
X212586998Y-78451569D03*
X212233445Y-78805122D03*
X211879891Y-79158676D03*
X211526338Y-79512229D03*
X211172785Y-79865782D03*
X210819231Y-80219336D03*
X210465678Y-80572889D03*
X210112124Y-80926443D03*
D41*
X210112124Y-82924019D03*
X210465678Y-83277573D03*
X210819231Y-83631126D03*
X211172785Y-83984680D03*
X211526338Y-84338233D03*
X211879891Y-84691786D03*
X212233445Y-85045340D03*
X212586998Y-85398893D03*
X212940551Y-85752446D03*
X213294105Y-86106000D03*
X213647658Y-86459553D03*
X214001212Y-86813107D03*
D17*
X354427000Y-105850000D03*
D18*
X359507000Y-105850000D03*
D17*
X364587000Y-105850000D03*
X225776000Y-163000000D03*
D18*
X230856000Y-163000000D03*
D17*
X235936000Y-163000000D03*
D15*
X145796000Y-87598500D03*
D16*
X145796000Y-92678500D03*
D15*
X165608000Y-74930000D03*
D16*
X165608000Y-80010000D03*
D17*
X259183000Y-105850000D03*
D18*
X264263000Y-105850000D03*
D17*
X269343000Y-105850000D03*
D15*
X188722000Y-76200000D03*
D16*
X188722000Y-81280000D03*
D17*
X230602000Y-124900000D03*
D18*
X235682000Y-124900000D03*
D17*
X240762000Y-124900000D03*
D15*
X175514000Y-89122500D03*
D16*
X175514000Y-94202500D03*
D27*
X208534000Y-79502000D03*
X207437984Y-80598016D03*
D15*
X149098000Y-76422500D03*
D16*
X149098000Y-81502500D03*
D15*
X251121336Y-87598500D03*
D16*
X251121336Y-92678500D03*
D15*
X241215336Y-76200000D03*
D16*
X241215336Y-81280000D03*
D17*
X168626000Y-163000000D03*
D18*
X173706000Y-163000000D03*
D17*
X178786000Y-163000000D03*
D15*
X152400000Y-87598500D03*
D16*
X152400000Y-92678500D03*
D15*
X182118000Y-76200000D03*
D16*
X182118000Y-81280000D03*
D15*
X280839336Y-76200000D03*
D16*
X280839336Y-81280000D03*
D15*
X152400000Y-74898500D03*
D16*
X152400000Y-79978500D03*
D15*
X198628000Y-64262000D03*
D16*
X198628000Y-69342000D03*
D15*
X178816000Y-87598500D03*
D16*
X178816000Y-92678500D03*
D15*
X172212000Y-87598500D03*
D16*
X172212000Y-92678500D03*
M02*
