G04 #@! TF.GenerationSoftware,KiCad,Pcbnew,7.0.5*
G04 #@! TF.CreationDate,2024-08-24T17:49:56+10:00*
G04 #@! TF.ProjectId,keyboard,6b657962-6f61-4726-942e-6b696361645f,rev?*
G04 #@! TF.SameCoordinates,Original*
G04 #@! TF.FileFunction,Paste,Top*
G04 #@! TF.FilePolarity,Positive*
%FSLAX46Y46*%
G04 Gerber Fmt 4.6, Leading zero omitted, Abs format (unit mm)*
G04 Created by KiCad (PCBNEW 7.0.5) date 2024-08-24 17:49:56*
%MOMM*%
%LPD*%
G01*
G04 APERTURE LIST*
G04 Aperture macros list*
%AMRoundRect*
0 Rectangle with rounded corners*
0 $1 Rounding radius*
0 $2 $3 $4 $5 $6 $7 $8 $9 X,Y pos of 4 corners*
0 Add a 4 corners polygon primitive as box body*
4,1,4,$2,$3,$4,$5,$6,$7,$8,$9,$2,$3,0*
0 Add four circle primitives for the rounded corners*
1,1,$1+$1,$2,$3*
1,1,$1+$1,$4,$5*
1,1,$1+$1,$6,$7*
1,1,$1+$1,$8,$9*
0 Add four rect primitives between the rounded corners*
20,1,$1+$1,$2,$3,$4,$5,0*
20,1,$1+$1,$4,$5,$6,$7,0*
20,1,$1+$1,$6,$7,$8,$9,0*
20,1,$1+$1,$8,$9,$2,$3,0*%
G04 Aperture macros list end*
%ADD10R,0.600000X1.240000*%
%ADD11R,0.300000X1.240000*%
%ADD12RoundRect,0.250000X-0.159099X0.512652X-0.512652X0.159099X0.159099X-0.512652X0.512652X-0.159099X0*%
%ADD13RoundRect,0.250000X-0.512652X-0.159099X-0.159099X-0.512652X0.512652X0.159099X0.159099X0.512652X0*%
%ADD14RoundRect,0.225000X0.335876X0.017678X0.017678X0.335876X-0.335876X-0.017678X-0.017678X-0.335876X0*%
%ADD15RoundRect,0.225000X-0.017678X0.335876X-0.335876X0.017678X0.017678X-0.335876X0.335876X-0.017678X0*%
%ADD16RoundRect,0.250000X-0.475000X0.250000X-0.475000X-0.250000X0.475000X-0.250000X0.475000X0.250000X0*%
%ADD17RoundRect,0.250000X0.250000X0.475000X-0.250000X0.475000X-0.250000X-0.475000X0.250000X-0.475000X0*%
%ADD18RoundRect,0.075000X0.521491X-0.415425X-0.415425X0.521491X-0.521491X0.415425X0.415425X-0.521491X0*%
%ADD19RoundRect,0.075000X0.521491X0.415425X0.415425X0.521491X-0.521491X-0.415425X-0.415425X-0.521491X0*%
G04 APERTURE END LIST*
D10*
X218482466Y-64979534D03*
X217682466Y-64979534D03*
D11*
X216532466Y-64979534D03*
X215532466Y-64979534D03*
X215032466Y-64979534D03*
X214032466Y-64979534D03*
D10*
X212882466Y-64979534D03*
X212082466Y-64979534D03*
X212082466Y-64979534D03*
X212882466Y-64979534D03*
D11*
X213532466Y-64979534D03*
X214532466Y-64979534D03*
X216032466Y-64979534D03*
X217032466Y-64979534D03*
D10*
X217682466Y-64979534D03*
X218482466Y-64979534D03*
D12*
X222921751Y-87720249D03*
X221578249Y-89063751D03*
X220889751Y-85942249D03*
X219546249Y-87285751D03*
D13*
X212500000Y-88500000D03*
X213843502Y-89843502D03*
D14*
X216956008Y-75224008D03*
X215859992Y-74127992D03*
D15*
X217250000Y-88250000D03*
X216153984Y-89346016D03*
D16*
X118000000Y-78000000D03*
X118000000Y-79900000D03*
X224028000Y-92334000D03*
X224028000Y-94234000D03*
D17*
X233360000Y-95250000D03*
X231460000Y-95250000D03*
D16*
X120500000Y-78000000D03*
X120500000Y-79900000D03*
D12*
X206665751Y-77560249D03*
X205322249Y-78903751D03*
D18*
X215998788Y-86813107D03*
X216352342Y-86459553D03*
X216705895Y-86106000D03*
X217059449Y-85752446D03*
X217413002Y-85398893D03*
X217766555Y-85045340D03*
X218120109Y-84691786D03*
X218473662Y-84338233D03*
X218827215Y-83984680D03*
X219180769Y-83631126D03*
X219534322Y-83277573D03*
X219887876Y-82924019D03*
D19*
X219887876Y-80926443D03*
X219534322Y-80572889D03*
X219180769Y-80219336D03*
X218827215Y-79865782D03*
X218473662Y-79512229D03*
X218120109Y-79158676D03*
X217766555Y-78805122D03*
X217413002Y-78451569D03*
X217059449Y-78098016D03*
X216705895Y-77744462D03*
X216352342Y-77390909D03*
X215998788Y-77037355D03*
D18*
X214001212Y-77037355D03*
X213647658Y-77390909D03*
X213294105Y-77744462D03*
X212940551Y-78098016D03*
X212586998Y-78451569D03*
X212233445Y-78805122D03*
X211879891Y-79158676D03*
X211526338Y-79512229D03*
X211172785Y-79865782D03*
X210819231Y-80219336D03*
X210465678Y-80572889D03*
X210112124Y-80926443D03*
D19*
X210112124Y-82924019D03*
X210465678Y-83277573D03*
X210819231Y-83631126D03*
X211172785Y-83984680D03*
X211526338Y-84338233D03*
X211879891Y-84691786D03*
X212233445Y-85045340D03*
X212586998Y-85398893D03*
X212940551Y-85752446D03*
X213294105Y-86106000D03*
X213647658Y-86459553D03*
X214001212Y-86813107D03*
D15*
X208534000Y-79502000D03*
X207437984Y-80598016D03*
M02*
