M48
; DRILL file {KiCad 7.0.5} date Sat Aug 24 17:50:42 2024
; FORMAT={-:-/ absolute / metric / decimal}
; #@! TF.CreationDate,2024-08-24T17:50:42+10:00
; #@! TF.GenerationSoftware,Kicad,Pcbnew,7.0.5
; #@! TF.FileFunction,NonPlated,1,2,NPTH
FMAT,2
METRIC
; #@! TA.AperFunction,NonPlated,NPTH,ComponentDrill
T1C0.650
; #@! TA.AperFunction,NonPlated,NPTH,ComponentDrill
T2C1.750
; #@! TA.AperFunction,NonPlated,NPTH,ComponentDrill
T3C3.048
; #@! TA.AperFunction,NonPlated,NPTH,ComponentDrill
T4C3.500
; #@! TA.AperFunction,NonPlated,NPTH,ComponentDrill
T5C3.988
%
G90
G05
T1
X212.392Y-63.86
X218.172Y-63.86
T2
X68.556Y-105.85
X70.969Y-182.077
X73.376Y-124.9
X75.789Y-143.95
X78.716Y-105.85
X80.488Y-163.0
X81.129Y-182.077
X83.536Y-124.9
X85.949Y-143.95
X87.606Y-105.85
X90.648Y-163.0
X94.845Y-182.077
X97.252Y-124.9
X97.766Y-105.85
X101.951Y-143.95
X105.005Y-182.077
X106.736Y-105.85
X107.412Y-124.9
X111.476Y-163.0
X112.111Y-143.95
X116.302Y-124.9
X116.896Y-105.85
X118.617Y-182.077
X121.001Y-143.95
X121.636Y-163.0
X125.833Y-105.85
X126.462Y-124.9
X128.777Y-182.077
X130.52Y-163.0
X131.161Y-143.95
X135.352Y-124.9
X135.993Y-105.85
X140.051Y-143.95
X140.68Y-163.0
X144.883Y-105.85
X145.512Y-124.9
X149.576Y-163.0
X150.211Y-143.95
X154.402Y-124.9
X155.043Y-105.85
X159.101Y-143.95
X159.736Y-163.0
X163.933Y-105.85
X164.562Y-124.9
X168.626Y-163.0
X169.261Y-143.95
X173.405Y-124.9
X174.093Y-105.85
X178.151Y-143.95
X178.786Y-163.0
X182.983Y-105.85
X183.565Y-124.9
X187.676Y-163.0
X188.311Y-143.95
X190.097Y-182.077
X192.502Y-124.9
X193.143Y-105.85
X197.201Y-143.95
X197.836Y-163.0
X200.257Y-182.077
X202.033Y-105.85
X202.662Y-124.9
X206.726Y-163.0
X207.361Y-143.95
X211.552Y-124.9
X212.193Y-105.85
X216.251Y-143.95
X216.886Y-163.0
X221.083Y-105.85
X221.712Y-124.9
X225.776Y-163.0
X226.411Y-143.95
X230.602Y-124.9
X231.243Y-105.85
X235.301Y-143.95
X235.936Y-163.0
X240.133Y-105.85
X240.762Y-124.9
X244.826Y-163.0
X245.461Y-143.95
X249.652Y-124.9
X250.293Y-105.85
X254.351Y-143.95
X254.986Y-163.0
X259.177Y-182.077
X259.183Y-105.85
X259.812Y-124.9
X263.876Y-163.0
X264.511Y-143.95
X268.702Y-124.9
X269.337Y-182.077
X269.343Y-105.85
X273.401Y-143.95
X274.036Y-163.0
X278.227Y-182.077
X278.233Y-105.85
X278.862Y-124.9
X282.92Y-163.0
X283.561Y-143.95
X287.752Y-124.9
X288.387Y-182.077
X288.393Y-105.85
X292.451Y-143.95
X293.08Y-163.0
X297.277Y-182.077
X297.283Y-105.85
X297.912Y-124.9
X302.611Y-143.95
X306.808Y-124.9
X307.437Y-182.077
X307.443Y-105.85
X309.221Y-163.0
X316.327Y-182.077
X316.968Y-124.9
X319.381Y-163.0
X323.471Y-143.95
X325.884Y-105.85
X326.487Y-182.077
X330.672Y-124.9
X333.631Y-143.95
X335.377Y-182.077
X335.383Y-163.0
X336.044Y-105.85
X340.832Y-124.9
X345.537Y-182.077
X345.543Y-163.0
X354.427Y-105.85
X354.427Y-124.9
X354.427Y-143.95
X354.427Y-163.0
X354.427Y-182.077
X364.587Y-105.85
X364.587Y-124.9
X364.587Y-143.95
X364.587Y-163.0
X364.587Y-182.077
T3
X73.694Y-169.985
X97.506Y-169.985
X145.171Y-175.092
X245.183Y-175.092
X316.644Y-150.935
X319.058Y-112.835
X340.457Y-150.935
X342.87Y-112.835
T4
X230.886Y-75.628
T5
X73.636Y-105.85
X73.694Y-154.745
X76.049Y-182.077
X78.456Y-124.9
X80.869Y-143.95
X85.568Y-163.0
X92.686Y-105.85
X97.506Y-154.745
X99.925Y-182.077
X102.332Y-124.9
X107.031Y-143.95
X111.816Y-105.85
X116.556Y-163.0
X121.382Y-124.9
X123.697Y-182.077
X126.081Y-143.95
X130.913Y-105.85
X135.6Y-163.0
X140.432Y-124.9
X145.131Y-143.95
X145.171Y-190.332
X149.963Y-105.85
X154.656Y-163.0
X159.482Y-124.9
X164.181Y-143.95
X169.013Y-105.85
X173.706Y-163.0
X178.485Y-124.9
X183.231Y-143.95
X188.063Y-105.85
X192.756Y-163.0
X195.177Y-182.077
X197.582Y-124.9
X202.281Y-143.95
X207.113Y-105.85
X211.806Y-163.0
X216.632Y-124.9
X221.331Y-143.95
X226.163Y-105.85
X230.856Y-163.0
X235.682Y-124.9
X240.381Y-143.95
X245.183Y-190.332
X245.213Y-105.85
X249.906Y-163.0
X254.732Y-124.9
X259.431Y-143.95
X264.257Y-182.077
X264.263Y-105.85
X268.956Y-163.0
X273.782Y-124.9
X278.481Y-143.95
X283.307Y-182.077
X283.313Y-105.85
X288.0Y-163.0
X292.832Y-124.9
X297.531Y-143.95
X302.357Y-182.077
X302.363Y-105.85
X311.888Y-124.9
X314.301Y-163.0
X316.644Y-135.695
X319.058Y-97.595
X321.407Y-182.077
X328.551Y-143.95
X330.964Y-105.85
X335.752Y-124.9
X340.457Y-135.695
X340.457Y-182.077
X340.463Y-163.0
X342.87Y-97.595
X359.507Y-105.85
X359.507Y-124.9
X359.507Y-143.95
X359.507Y-163.0
X359.507Y-182.077
T0
M30
