%TF.GenerationSoftware,KiCad,Pcbnew,7.0.5*%
%TF.CreationDate,2024-08-24T17:50:42+10:00*%
%TF.ProjectId,keyboard,6b657962-6f61-4726-942e-6b696361645f,rev?*%
%TF.SameCoordinates,Original*%
%TF.FileFunction,Drillmap*%
%TF.FilePolarity,Positive*%
%FSLAX45Y45*%
G04 Gerber Fmt 4.5, Leading zero omitted, Abs format (unit mm)*
G04 Created by KiCad (PCBNEW 7.0.5) date 2024-08-24 17:50:42*
%MOMM*%
%LPD*%
G01*
G04 APERTURE LIST*
%ADD10C,0.100000*%
%ADD11C,0.200000*%
%ADD12C,0.065000*%
%ADD13C,0.175000*%
%ADD14C,0.304800*%
%ADD15C,0.350000*%
%ADD16C,0.398780*%
G04 APERTURE END LIST*
D10*
X37500000Y-19700000D02*
G75*
G03*
X38000000Y-19200000I0J500000D01*
G01*
X5000000Y-6200000D02*
X5000000Y-19200000D01*
X38000000Y-19200000D02*
X38000000Y-6200000D01*
X37500000Y-5700000D02*
X5500000Y-5700000D01*
X5500000Y-19700000D02*
X37500000Y-19700000D01*
X38000000Y-6200000D02*
G75*
G03*
X37500000Y-5700000I-500000J0D01*
G01*
X5500000Y-5700000D02*
G75*
G03*
X5000000Y-6200000I0J-500000D01*
G01*
X5000000Y-19200000D02*
G75*
G03*
X5500000Y-19700000I500000J0D01*
G01*
D11*
D12*
X21206747Y-6353453D02*
X21271747Y-6418453D01*
X21271747Y-6353453D02*
X21206747Y-6418453D01*
X21784747Y-6353453D02*
X21849747Y-6418453D01*
X21849747Y-6353453D02*
X21784747Y-6418453D01*
D13*
X6943100Y-10585000D02*
G75*
G03*
X6943100Y-10585000I-87500J0D01*
G01*
X7184400Y-18207705D02*
G75*
G03*
X7184400Y-18207705I-87500J0D01*
G01*
X7425100Y-12490000D02*
G75*
G03*
X7425100Y-12490000I-87500J0D01*
G01*
X7666400Y-14395000D02*
G75*
G03*
X7666400Y-14395000I-87500J0D01*
G01*
X7959100Y-10585000D02*
G75*
G03*
X7959100Y-10585000I-87500J0D01*
G01*
X8136300Y-16300000D02*
G75*
G03*
X8136300Y-16300000I-87500J0D01*
G01*
X8200400Y-18207705D02*
G75*
G03*
X8200400Y-18207705I-87500J0D01*
G01*
X8441100Y-12490000D02*
G75*
G03*
X8441100Y-12490000I-87500J0D01*
G01*
X8682400Y-14395000D02*
G75*
G03*
X8682400Y-14395000I-87500J0D01*
G01*
X8848100Y-10585000D02*
G75*
G03*
X8848100Y-10585000I-87500J0D01*
G01*
X9152300Y-16300000D02*
G75*
G03*
X9152300Y-16300000I-87500J0D01*
G01*
X9572000Y-18207705D02*
G75*
G03*
X9572000Y-18207705I-87500J0D01*
G01*
X9812700Y-12490000D02*
G75*
G03*
X9812700Y-12490000I-87500J0D01*
G01*
X9864100Y-10585000D02*
G75*
G03*
X9864100Y-10585000I-87500J0D01*
G01*
X10282600Y-14395000D02*
G75*
G03*
X10282600Y-14395000I-87500J0D01*
G01*
X10588000Y-18207705D02*
G75*
G03*
X10588000Y-18207705I-87500J0D01*
G01*
X10761100Y-10585000D02*
G75*
G03*
X10761100Y-10585000I-87500J0D01*
G01*
X10828700Y-12490000D02*
G75*
G03*
X10828700Y-12490000I-87500J0D01*
G01*
X11235100Y-16300000D02*
G75*
G03*
X11235100Y-16300000I-87500J0D01*
G01*
X11298600Y-14395000D02*
G75*
G03*
X11298600Y-14395000I-87500J0D01*
G01*
X11717700Y-12490000D02*
G75*
G03*
X11717700Y-12490000I-87500J0D01*
G01*
X11777100Y-10585000D02*
G75*
G03*
X11777100Y-10585000I-87500J0D01*
G01*
X11949200Y-18207705D02*
G75*
G03*
X11949200Y-18207705I-87500J0D01*
G01*
X12187600Y-14395000D02*
G75*
G03*
X12187600Y-14395000I-87500J0D01*
G01*
X12251100Y-16300000D02*
G75*
G03*
X12251100Y-16300000I-87500J0D01*
G01*
X12670800Y-10585000D02*
G75*
G03*
X12670800Y-10585000I-87500J0D01*
G01*
X12733700Y-12490000D02*
G75*
G03*
X12733700Y-12490000I-87500J0D01*
G01*
X12965200Y-18207705D02*
G75*
G03*
X12965200Y-18207705I-87500J0D01*
G01*
X13139500Y-16300000D02*
G75*
G03*
X13139500Y-16300000I-87500J0D01*
G01*
X13203600Y-14395000D02*
G75*
G03*
X13203600Y-14395000I-87500J0D01*
G01*
X13622700Y-12490000D02*
G75*
G03*
X13622700Y-12490000I-87500J0D01*
G01*
X13686800Y-10585000D02*
G75*
G03*
X13686800Y-10585000I-87500J0D01*
G01*
X14092600Y-14395000D02*
G75*
G03*
X14092600Y-14395000I-87500J0D01*
G01*
X14155500Y-16300000D02*
G75*
G03*
X14155500Y-16300000I-87500J0D01*
G01*
X14575800Y-10585000D02*
G75*
G03*
X14575800Y-10585000I-87500J0D01*
G01*
X14638700Y-12490000D02*
G75*
G03*
X14638700Y-12490000I-87500J0D01*
G01*
X15045100Y-16300000D02*
G75*
G03*
X15045100Y-16300000I-87500J0D01*
G01*
X15108600Y-14395000D02*
G75*
G03*
X15108600Y-14395000I-87500J0D01*
G01*
X15527700Y-12490000D02*
G75*
G03*
X15527700Y-12490000I-87500J0D01*
G01*
X15591800Y-10585000D02*
G75*
G03*
X15591800Y-10585000I-87500J0D01*
G01*
X15997600Y-14395000D02*
G75*
G03*
X15997600Y-14395000I-87500J0D01*
G01*
X16061100Y-16300000D02*
G75*
G03*
X16061100Y-16300000I-87500J0D01*
G01*
X16480800Y-10585000D02*
G75*
G03*
X16480800Y-10585000I-87500J0D01*
G01*
X16543700Y-12490000D02*
G75*
G03*
X16543700Y-12490000I-87500J0D01*
G01*
X16950100Y-16300000D02*
G75*
G03*
X16950100Y-16300000I-87500J0D01*
G01*
X17013600Y-14395000D02*
G75*
G03*
X17013600Y-14395000I-87500J0D01*
G01*
X17428000Y-12490000D02*
G75*
G03*
X17428000Y-12490000I-87500J0D01*
G01*
X17496800Y-10585000D02*
G75*
G03*
X17496800Y-10585000I-87500J0D01*
G01*
X17902600Y-14395000D02*
G75*
G03*
X17902600Y-14395000I-87500J0D01*
G01*
X17966100Y-16300000D02*
G75*
G03*
X17966100Y-16300000I-87500J0D01*
G01*
X18385800Y-10585000D02*
G75*
G03*
X18385800Y-10585000I-87500J0D01*
G01*
X18444000Y-12490000D02*
G75*
G03*
X18444000Y-12490000I-87500J0D01*
G01*
X18855100Y-16300000D02*
G75*
G03*
X18855100Y-16300000I-87500J0D01*
G01*
X18918600Y-14395000D02*
G75*
G03*
X18918600Y-14395000I-87500J0D01*
G01*
X19097200Y-18207705D02*
G75*
G03*
X19097200Y-18207705I-87500J0D01*
G01*
X19337700Y-12490000D02*
G75*
G03*
X19337700Y-12490000I-87500J0D01*
G01*
X19401800Y-10585000D02*
G75*
G03*
X19401800Y-10585000I-87500J0D01*
G01*
X19807600Y-14395000D02*
G75*
G03*
X19807600Y-14395000I-87500J0D01*
G01*
X19871100Y-16300000D02*
G75*
G03*
X19871100Y-16300000I-87500J0D01*
G01*
X20113200Y-18207705D02*
G75*
G03*
X20113200Y-18207705I-87500J0D01*
G01*
X20290800Y-10585000D02*
G75*
G03*
X20290800Y-10585000I-87500J0D01*
G01*
X20353700Y-12490000D02*
G75*
G03*
X20353700Y-12490000I-87500J0D01*
G01*
X20760100Y-16300000D02*
G75*
G03*
X20760100Y-16300000I-87500J0D01*
G01*
X20823600Y-14395000D02*
G75*
G03*
X20823600Y-14395000I-87500J0D01*
G01*
X21242700Y-12490000D02*
G75*
G03*
X21242700Y-12490000I-87500J0D01*
G01*
X21306800Y-10585000D02*
G75*
G03*
X21306800Y-10585000I-87500J0D01*
G01*
X21712600Y-14395000D02*
G75*
G03*
X21712600Y-14395000I-87500J0D01*
G01*
X21776100Y-16300000D02*
G75*
G03*
X21776100Y-16300000I-87500J0D01*
G01*
X22195800Y-10585000D02*
G75*
G03*
X22195800Y-10585000I-87500J0D01*
G01*
X22258700Y-12490000D02*
G75*
G03*
X22258700Y-12490000I-87500J0D01*
G01*
X22665100Y-16300000D02*
G75*
G03*
X22665100Y-16300000I-87500J0D01*
G01*
X22728600Y-14395000D02*
G75*
G03*
X22728600Y-14395000I-87500J0D01*
G01*
X23147700Y-12490000D02*
G75*
G03*
X23147700Y-12490000I-87500J0D01*
G01*
X23211800Y-10585000D02*
G75*
G03*
X23211800Y-10585000I-87500J0D01*
G01*
X23617600Y-14395000D02*
G75*
G03*
X23617600Y-14395000I-87500J0D01*
G01*
X23681100Y-16300000D02*
G75*
G03*
X23681100Y-16300000I-87500J0D01*
G01*
X24100800Y-10585000D02*
G75*
G03*
X24100800Y-10585000I-87500J0D01*
G01*
X24163700Y-12490000D02*
G75*
G03*
X24163700Y-12490000I-87500J0D01*
G01*
X24570100Y-16300000D02*
G75*
G03*
X24570100Y-16300000I-87500J0D01*
G01*
X24633600Y-14395000D02*
G75*
G03*
X24633600Y-14395000I-87500J0D01*
G01*
X25052700Y-12490000D02*
G75*
G03*
X25052700Y-12490000I-87500J0D01*
G01*
X25116800Y-10585000D02*
G75*
G03*
X25116800Y-10585000I-87500J0D01*
G01*
X25522600Y-14395000D02*
G75*
G03*
X25522600Y-14395000I-87500J0D01*
G01*
X25586100Y-16300000D02*
G75*
G03*
X25586100Y-16300000I-87500J0D01*
G01*
X26005200Y-18207705D02*
G75*
G03*
X26005200Y-18207705I-87500J0D01*
G01*
X26005800Y-10585000D02*
G75*
G03*
X26005800Y-10585000I-87500J0D01*
G01*
X26068700Y-12490000D02*
G75*
G03*
X26068700Y-12490000I-87500J0D01*
G01*
X26475100Y-16300000D02*
G75*
G03*
X26475100Y-16300000I-87500J0D01*
G01*
X26538600Y-14395000D02*
G75*
G03*
X26538600Y-14395000I-87500J0D01*
G01*
X26957700Y-12490000D02*
G75*
G03*
X26957700Y-12490000I-87500J0D01*
G01*
X27021200Y-18207705D02*
G75*
G03*
X27021200Y-18207705I-87500J0D01*
G01*
X27021800Y-10585000D02*
G75*
G03*
X27021800Y-10585000I-87500J0D01*
G01*
X27427600Y-14395000D02*
G75*
G03*
X27427600Y-14395000I-87500J0D01*
G01*
X27491100Y-16300000D02*
G75*
G03*
X27491100Y-16300000I-87500J0D01*
G01*
X27910200Y-18207705D02*
G75*
G03*
X27910200Y-18207705I-87500J0D01*
G01*
X27910800Y-10585000D02*
G75*
G03*
X27910800Y-10585000I-87500J0D01*
G01*
X27973700Y-12490000D02*
G75*
G03*
X27973700Y-12490000I-87500J0D01*
G01*
X28379500Y-16300000D02*
G75*
G03*
X28379500Y-16300000I-87500J0D01*
G01*
X28443600Y-14395000D02*
G75*
G03*
X28443600Y-14395000I-87500J0D01*
G01*
X28862700Y-12490000D02*
G75*
G03*
X28862700Y-12490000I-87500J0D01*
G01*
X28926200Y-18207705D02*
G75*
G03*
X28926200Y-18207705I-87500J0D01*
G01*
X28926800Y-10585000D02*
G75*
G03*
X28926800Y-10585000I-87500J0D01*
G01*
X29332600Y-14395000D02*
G75*
G03*
X29332600Y-14395000I-87500J0D01*
G01*
X29395500Y-16300000D02*
G75*
G03*
X29395500Y-16300000I-87500J0D01*
G01*
X29815200Y-18207705D02*
G75*
G03*
X29815200Y-18207705I-87500J0D01*
G01*
X29815800Y-10585000D02*
G75*
G03*
X29815800Y-10585000I-87500J0D01*
G01*
X29878700Y-12490000D02*
G75*
G03*
X29878700Y-12490000I-87500J0D01*
G01*
X30348600Y-14395000D02*
G75*
G03*
X30348600Y-14395000I-87500J0D01*
G01*
X30768300Y-12490000D02*
G75*
G03*
X30768300Y-12490000I-87500J0D01*
G01*
X30831200Y-18207705D02*
G75*
G03*
X30831200Y-18207705I-87500J0D01*
G01*
X30831800Y-10585000D02*
G75*
G03*
X30831800Y-10585000I-87500J0D01*
G01*
X31009600Y-16300000D02*
G75*
G03*
X31009600Y-16300000I-87500J0D01*
G01*
X31720200Y-18207705D02*
G75*
G03*
X31720200Y-18207705I-87500J0D01*
G01*
X31784300Y-12490000D02*
G75*
G03*
X31784300Y-12490000I-87500J0D01*
G01*
X32025600Y-16300000D02*
G75*
G03*
X32025600Y-16300000I-87500J0D01*
G01*
X32434575Y-14395000D02*
G75*
G03*
X32434575Y-14395000I-87500J0D01*
G01*
X32675875Y-10585000D02*
G75*
G03*
X32675875Y-10585000I-87500J0D01*
G01*
X32736200Y-18207705D02*
G75*
G03*
X32736200Y-18207705I-87500J0D01*
G01*
X33154700Y-12490000D02*
G75*
G03*
X33154700Y-12490000I-87500J0D01*
G01*
X33450575Y-14395000D02*
G75*
G03*
X33450575Y-14395000I-87500J0D01*
G01*
X33625200Y-18207705D02*
G75*
G03*
X33625200Y-18207705I-87500J0D01*
G01*
X33625800Y-16300000D02*
G75*
G03*
X33625800Y-16300000I-87500J0D01*
G01*
X33691875Y-10585000D02*
G75*
G03*
X33691875Y-10585000I-87500J0D01*
G01*
X34170700Y-12490000D02*
G75*
G03*
X34170700Y-12490000I-87500J0D01*
G01*
X34641200Y-18207705D02*
G75*
G03*
X34641200Y-18207705I-87500J0D01*
G01*
X34641800Y-16300000D02*
G75*
G03*
X34641800Y-16300000I-87500J0D01*
G01*
X35530200Y-10585000D02*
G75*
G03*
X35530200Y-10585000I-87500J0D01*
G01*
X35530200Y-12490000D02*
G75*
G03*
X35530200Y-12490000I-87500J0D01*
G01*
X35530200Y-14395000D02*
G75*
G03*
X35530200Y-14395000I-87500J0D01*
G01*
X35530200Y-16300000D02*
G75*
G03*
X35530200Y-16300000I-87500J0D01*
G01*
X35530200Y-18207705D02*
G75*
G03*
X35530200Y-18207705I-87500J0D01*
G01*
X36546200Y-10585000D02*
G75*
G03*
X36546200Y-10585000I-87500J0D01*
G01*
X36546200Y-12490000D02*
G75*
G03*
X36546200Y-12490000I-87500J0D01*
G01*
X36546200Y-14395000D02*
G75*
G03*
X36546200Y-14395000I-87500J0D01*
G01*
X36546200Y-16300000D02*
G75*
G03*
X36546200Y-16300000I-87500J0D01*
G01*
X36546200Y-18207705D02*
G75*
G03*
X36546200Y-18207705I-87500J0D01*
G01*
D14*
X7369350Y-16846100D02*
X7369350Y-17150900D01*
X7216950Y-16998500D02*
X7521750Y-16998500D01*
X9750600Y-16846100D02*
X9750600Y-17150900D01*
X9598200Y-16998500D02*
X9903000Y-16998500D01*
X14517075Y-17356805D02*
X14517075Y-17661605D01*
X14364675Y-17509205D02*
X14669475Y-17509205D01*
X24518325Y-17356805D02*
X24518325Y-17661605D01*
X24365925Y-17509205D02*
X24670725Y-17509205D01*
X31664450Y-14941100D02*
X31664450Y-15245900D01*
X31512050Y-15093500D02*
X31816850Y-15093500D01*
X31905750Y-11131100D02*
X31905750Y-11435900D01*
X31753350Y-11283500D02*
X32058150Y-11283500D01*
X34045700Y-14941100D02*
X34045700Y-15245900D01*
X33893300Y-15093500D02*
X34198100Y-15093500D01*
X34287000Y-11131100D02*
X34287000Y-11435900D01*
X34134600Y-11283500D02*
X34439400Y-11283500D01*
D15*
X23212345Y-7686545D02*
X23212345Y-7439055D01*
X22964855Y-7439055D01*
X22964855Y-7686545D01*
X23212345Y-7686545D01*
D16*
X7363600Y-10784390D02*
X7562990Y-10585000D01*
X7363600Y-10385610D01*
X7164210Y-10585000D01*
X7363600Y-10784390D01*
X7369350Y-15673890D02*
X7568740Y-15474500D01*
X7369350Y-15275110D01*
X7169960Y-15474500D01*
X7369350Y-15673890D01*
X7604900Y-18407095D02*
X7804290Y-18207705D01*
X7604900Y-18008315D01*
X7405510Y-18207705D01*
X7604900Y-18407095D01*
X7845600Y-12689390D02*
X8044990Y-12490000D01*
X7845600Y-12290610D01*
X7646210Y-12490000D01*
X7845600Y-12689390D01*
X8086900Y-14594390D02*
X8286290Y-14395000D01*
X8086900Y-14195610D01*
X7887510Y-14395000D01*
X8086900Y-14594390D01*
X8556800Y-16499390D02*
X8756190Y-16300000D01*
X8556800Y-16100610D01*
X8357410Y-16300000D01*
X8556800Y-16499390D01*
X9268600Y-10784390D02*
X9467990Y-10585000D01*
X9268600Y-10385610D01*
X9069210Y-10585000D01*
X9268600Y-10784390D01*
X9750600Y-15673890D02*
X9949990Y-15474500D01*
X9750600Y-15275110D01*
X9551210Y-15474500D01*
X9750600Y-15673890D01*
X9992500Y-18407095D02*
X10191890Y-18207705D01*
X9992500Y-18008315D01*
X9793110Y-18207705D01*
X9992500Y-18407095D01*
X10233200Y-12689390D02*
X10432590Y-12490000D01*
X10233200Y-12290610D01*
X10033810Y-12490000D01*
X10233200Y-12689390D01*
X10703100Y-14594390D02*
X10902490Y-14395000D01*
X10703100Y-14195610D01*
X10503710Y-14395000D01*
X10703100Y-14594390D01*
X11181600Y-10784390D02*
X11380990Y-10585000D01*
X11181600Y-10385610D01*
X10982210Y-10585000D01*
X11181600Y-10784390D01*
X11655600Y-16499390D02*
X11854990Y-16300000D01*
X11655600Y-16100610D01*
X11456210Y-16300000D01*
X11655600Y-16499390D01*
X12138200Y-12689390D02*
X12337590Y-12490000D01*
X12138200Y-12290610D01*
X11938810Y-12490000D01*
X12138200Y-12689390D01*
X12369700Y-18407095D02*
X12569090Y-18207705D01*
X12369700Y-18008315D01*
X12170310Y-18207705D01*
X12369700Y-18407095D01*
X12608100Y-14594390D02*
X12807490Y-14395000D01*
X12608100Y-14195610D01*
X12408710Y-14395000D01*
X12608100Y-14594390D01*
X13091300Y-10784390D02*
X13290690Y-10585000D01*
X13091300Y-10385610D01*
X12891910Y-10585000D01*
X13091300Y-10784390D01*
X13560000Y-16499390D02*
X13759390Y-16300000D01*
X13560000Y-16100610D01*
X13360610Y-16300000D01*
X13560000Y-16499390D01*
X14043200Y-12689390D02*
X14242590Y-12490000D01*
X14043200Y-12290610D01*
X13843810Y-12490000D01*
X14043200Y-12689390D01*
X14513100Y-14594390D02*
X14712490Y-14395000D01*
X14513100Y-14195610D01*
X14313710Y-14395000D01*
X14513100Y-14594390D01*
X14517075Y-19232595D02*
X14716465Y-19033205D01*
X14517075Y-18833815D01*
X14317685Y-19033205D01*
X14517075Y-19232595D01*
X14996300Y-10784390D02*
X15195690Y-10585000D01*
X14996300Y-10385610D01*
X14796910Y-10585000D01*
X14996300Y-10784390D01*
X15465600Y-16499390D02*
X15664990Y-16300000D01*
X15465600Y-16100610D01*
X15266210Y-16300000D01*
X15465600Y-16499390D01*
X15948200Y-12689390D02*
X16147590Y-12490000D01*
X15948200Y-12290610D01*
X15748810Y-12490000D01*
X15948200Y-12689390D01*
X16418100Y-14594390D02*
X16617490Y-14395000D01*
X16418100Y-14195610D01*
X16218710Y-14395000D01*
X16418100Y-14594390D01*
X16901300Y-10784390D02*
X17100690Y-10585000D01*
X16901300Y-10385610D01*
X16701910Y-10585000D01*
X16901300Y-10784390D01*
X17370600Y-16499390D02*
X17569990Y-16300000D01*
X17370600Y-16100610D01*
X17171210Y-16300000D01*
X17370600Y-16499390D01*
X17848500Y-12689390D02*
X18047890Y-12490000D01*
X17848500Y-12290610D01*
X17649110Y-12490000D01*
X17848500Y-12689390D01*
X18323100Y-14594390D02*
X18522490Y-14395000D01*
X18323100Y-14195610D01*
X18123710Y-14395000D01*
X18323100Y-14594390D01*
X18806300Y-10784390D02*
X19005690Y-10585000D01*
X18806300Y-10385610D01*
X18606910Y-10585000D01*
X18806300Y-10784390D01*
X19275600Y-16499390D02*
X19474990Y-16300000D01*
X19275600Y-16100610D01*
X19076210Y-16300000D01*
X19275600Y-16499390D01*
X19517700Y-18407095D02*
X19717090Y-18207705D01*
X19517700Y-18008315D01*
X19318310Y-18207705D01*
X19517700Y-18407095D01*
X19758200Y-12689390D02*
X19957590Y-12490000D01*
X19758200Y-12290610D01*
X19558810Y-12490000D01*
X19758200Y-12689390D01*
X20228100Y-14594390D02*
X20427490Y-14395000D01*
X20228100Y-14195610D01*
X20028710Y-14395000D01*
X20228100Y-14594390D01*
X20711300Y-10784390D02*
X20910690Y-10585000D01*
X20711300Y-10385610D01*
X20511910Y-10585000D01*
X20711300Y-10784390D01*
X21180600Y-16499390D02*
X21379990Y-16300000D01*
X21180600Y-16100610D01*
X20981210Y-16300000D01*
X21180600Y-16499390D01*
X21663200Y-12689390D02*
X21862590Y-12490000D01*
X21663200Y-12290610D01*
X21463810Y-12490000D01*
X21663200Y-12689390D01*
X22133100Y-14594390D02*
X22332490Y-14395000D01*
X22133100Y-14195610D01*
X21933710Y-14395000D01*
X22133100Y-14594390D01*
X22616300Y-10784390D02*
X22815690Y-10585000D01*
X22616300Y-10385610D01*
X22416910Y-10585000D01*
X22616300Y-10784390D01*
X23085600Y-16499390D02*
X23284990Y-16300000D01*
X23085600Y-16100610D01*
X22886210Y-16300000D01*
X23085600Y-16499390D01*
X23568200Y-12689390D02*
X23767590Y-12490000D01*
X23568200Y-12290610D01*
X23368810Y-12490000D01*
X23568200Y-12689390D01*
X24038100Y-14594390D02*
X24237490Y-14395000D01*
X24038100Y-14195610D01*
X23838710Y-14395000D01*
X24038100Y-14594390D01*
X24518325Y-19232595D02*
X24717715Y-19033205D01*
X24518325Y-18833815D01*
X24318935Y-19033205D01*
X24518325Y-19232595D01*
X24521300Y-10784390D02*
X24720690Y-10585000D01*
X24521300Y-10385610D01*
X24321910Y-10585000D01*
X24521300Y-10784390D01*
X24990600Y-16499390D02*
X25189990Y-16300000D01*
X24990600Y-16100610D01*
X24791210Y-16300000D01*
X24990600Y-16499390D01*
X25473200Y-12689390D02*
X25672590Y-12490000D01*
X25473200Y-12290610D01*
X25273810Y-12490000D01*
X25473200Y-12689390D01*
X25943100Y-14594390D02*
X26142490Y-14395000D01*
X25943100Y-14195610D01*
X25743710Y-14395000D01*
X25943100Y-14594390D01*
X26425700Y-18407095D02*
X26625090Y-18207705D01*
X26425700Y-18008315D01*
X26226310Y-18207705D01*
X26425700Y-18407095D01*
X26426300Y-10784390D02*
X26625690Y-10585000D01*
X26426300Y-10385610D01*
X26226910Y-10585000D01*
X26426300Y-10784390D01*
X26895600Y-16499390D02*
X27094990Y-16300000D01*
X26895600Y-16100610D01*
X26696210Y-16300000D01*
X26895600Y-16499390D01*
X27378200Y-12689390D02*
X27577590Y-12490000D01*
X27378200Y-12290610D01*
X27178810Y-12490000D01*
X27378200Y-12689390D01*
X27848100Y-14594390D02*
X28047490Y-14395000D01*
X27848100Y-14195610D01*
X27648710Y-14395000D01*
X27848100Y-14594390D01*
X28330700Y-18407095D02*
X28530090Y-18207705D01*
X28330700Y-18008315D01*
X28131310Y-18207705D01*
X28330700Y-18407095D01*
X28331300Y-10784390D02*
X28530690Y-10585000D01*
X28331300Y-10385610D01*
X28131910Y-10585000D01*
X28331300Y-10784390D01*
X28800000Y-16499390D02*
X28999390Y-16300000D01*
X28800000Y-16100610D01*
X28600610Y-16300000D01*
X28800000Y-16499390D01*
X29283200Y-12689390D02*
X29482590Y-12490000D01*
X29283200Y-12290610D01*
X29083810Y-12490000D01*
X29283200Y-12689390D01*
X29753100Y-14594390D02*
X29952490Y-14395000D01*
X29753100Y-14195610D01*
X29553710Y-14395000D01*
X29753100Y-14594390D01*
X30235700Y-18407095D02*
X30435090Y-18207705D01*
X30235700Y-18008315D01*
X30036310Y-18207705D01*
X30235700Y-18407095D01*
X30236300Y-10784390D02*
X30435690Y-10585000D01*
X30236300Y-10385610D01*
X30036910Y-10585000D01*
X30236300Y-10784390D01*
X31188800Y-12689390D02*
X31388190Y-12490000D01*
X31188800Y-12290610D01*
X30989410Y-12490000D01*
X31188800Y-12689390D01*
X31430100Y-16499390D02*
X31629490Y-16300000D01*
X31430100Y-16100610D01*
X31230710Y-16300000D01*
X31430100Y-16499390D01*
X31664450Y-13768890D02*
X31863840Y-13569500D01*
X31664450Y-13370110D01*
X31465060Y-13569500D01*
X31664450Y-13768890D01*
X31905750Y-9958890D02*
X32105140Y-9759500D01*
X31905750Y-9560110D01*
X31706360Y-9759500D01*
X31905750Y-9958890D01*
X32140700Y-18407095D02*
X32340090Y-18207705D01*
X32140700Y-18008315D01*
X31941310Y-18207705D01*
X32140700Y-18407095D01*
X32855075Y-14594390D02*
X33054465Y-14395000D01*
X32855075Y-14195610D01*
X32655685Y-14395000D01*
X32855075Y-14594390D01*
X33096375Y-10784390D02*
X33295765Y-10585000D01*
X33096375Y-10385610D01*
X32896985Y-10585000D01*
X33096375Y-10784390D01*
X33575200Y-12689390D02*
X33774590Y-12490000D01*
X33575200Y-12290610D01*
X33375810Y-12490000D01*
X33575200Y-12689390D01*
X34045700Y-13768890D02*
X34245090Y-13569500D01*
X34045700Y-13370110D01*
X33846310Y-13569500D01*
X34045700Y-13768890D01*
X34045700Y-18407095D02*
X34245090Y-18207705D01*
X34045700Y-18008315D01*
X33846310Y-18207705D01*
X34045700Y-18407095D01*
X34046300Y-16499390D02*
X34245690Y-16300000D01*
X34046300Y-16100610D01*
X33846910Y-16300000D01*
X34046300Y-16499390D01*
X34287000Y-9958890D02*
X34486390Y-9759500D01*
X34287000Y-9560110D01*
X34087610Y-9759500D01*
X34287000Y-9958890D01*
X35950700Y-10784390D02*
X36150090Y-10585000D01*
X35950700Y-10385610D01*
X35751310Y-10585000D01*
X35950700Y-10784390D01*
X35950700Y-12689390D02*
X36150090Y-12490000D01*
X35950700Y-12290610D01*
X35751310Y-12490000D01*
X35950700Y-12689390D01*
X35950700Y-14594390D02*
X36150090Y-14395000D01*
X35950700Y-14195610D01*
X35751310Y-14395000D01*
X35950700Y-14594390D01*
X35950700Y-16499390D02*
X36150090Y-16300000D01*
X35950700Y-16100610D01*
X35751310Y-16300000D01*
X35950700Y-16499390D01*
X35950700Y-18407095D02*
X36150090Y-18207705D01*
X35950700Y-18008315D01*
X35751310Y-18207705D01*
X35950700Y-18407095D01*
D11*
X5255777Y-20016484D02*
X5255777Y-19816484D01*
X5255777Y-19816484D02*
X5303396Y-19816484D01*
X5303396Y-19816484D02*
X5331967Y-19826008D01*
X5331967Y-19826008D02*
X5351015Y-19845055D01*
X5351015Y-19845055D02*
X5360539Y-19864103D01*
X5360539Y-19864103D02*
X5370063Y-19902198D01*
X5370063Y-19902198D02*
X5370063Y-19930770D01*
X5370063Y-19930770D02*
X5360539Y-19968865D01*
X5360539Y-19968865D02*
X5351015Y-19987912D01*
X5351015Y-19987912D02*
X5331967Y-20006960D01*
X5331967Y-20006960D02*
X5303396Y-20016484D01*
X5303396Y-20016484D02*
X5255777Y-20016484D01*
X5455777Y-20016484D02*
X5455777Y-19883150D01*
X5455777Y-19921246D02*
X5465301Y-19902198D01*
X5465301Y-19902198D02*
X5474824Y-19892674D01*
X5474824Y-19892674D02*
X5493872Y-19883150D01*
X5493872Y-19883150D02*
X5512920Y-19883150D01*
X5579586Y-20016484D02*
X5579586Y-19883150D01*
X5579586Y-19816484D02*
X5570063Y-19826008D01*
X5570063Y-19826008D02*
X5579586Y-19835531D01*
X5579586Y-19835531D02*
X5589110Y-19826008D01*
X5589110Y-19826008D02*
X5579586Y-19816484D01*
X5579586Y-19816484D02*
X5579586Y-19835531D01*
X5703396Y-20016484D02*
X5684348Y-20006960D01*
X5684348Y-20006960D02*
X5674824Y-19987912D01*
X5674824Y-19987912D02*
X5674824Y-19816484D01*
X5808158Y-20016484D02*
X5789110Y-20006960D01*
X5789110Y-20006960D02*
X5779586Y-19987912D01*
X5779586Y-19987912D02*
X5779586Y-19816484D01*
X6036729Y-20016484D02*
X6036729Y-19816484D01*
X6036729Y-19816484D02*
X6103396Y-19959341D01*
X6103396Y-19959341D02*
X6170062Y-19816484D01*
X6170062Y-19816484D02*
X6170062Y-20016484D01*
X6351015Y-20016484D02*
X6351015Y-19911722D01*
X6351015Y-19911722D02*
X6341491Y-19892674D01*
X6341491Y-19892674D02*
X6322443Y-19883150D01*
X6322443Y-19883150D02*
X6284348Y-19883150D01*
X6284348Y-19883150D02*
X6265301Y-19892674D01*
X6351015Y-20006960D02*
X6331967Y-20016484D01*
X6331967Y-20016484D02*
X6284348Y-20016484D01*
X6284348Y-20016484D02*
X6265301Y-20006960D01*
X6265301Y-20006960D02*
X6255777Y-19987912D01*
X6255777Y-19987912D02*
X6255777Y-19968865D01*
X6255777Y-19968865D02*
X6265301Y-19949817D01*
X6265301Y-19949817D02*
X6284348Y-19940293D01*
X6284348Y-19940293D02*
X6331967Y-19940293D01*
X6331967Y-19940293D02*
X6351015Y-19930770D01*
X6446253Y-19883150D02*
X6446253Y-20083150D01*
X6446253Y-19892674D02*
X6465301Y-19883150D01*
X6465301Y-19883150D02*
X6503396Y-19883150D01*
X6503396Y-19883150D02*
X6522443Y-19892674D01*
X6522443Y-19892674D02*
X6531967Y-19902198D01*
X6531967Y-19902198D02*
X6541491Y-19921246D01*
X6541491Y-19921246D02*
X6541491Y-19978389D01*
X6541491Y-19978389D02*
X6531967Y-19997436D01*
X6531967Y-19997436D02*
X6522443Y-20006960D01*
X6522443Y-20006960D02*
X6503396Y-20016484D01*
X6503396Y-20016484D02*
X6465301Y-20016484D01*
X6465301Y-20016484D02*
X6446253Y-20006960D01*
X6627205Y-19997436D02*
X6636729Y-20006960D01*
X6636729Y-20006960D02*
X6627205Y-20016484D01*
X6627205Y-20016484D02*
X6617682Y-20006960D01*
X6617682Y-20006960D02*
X6627205Y-19997436D01*
X6627205Y-19997436D02*
X6627205Y-20016484D01*
X6627205Y-19892674D02*
X6636729Y-19902198D01*
X6636729Y-19902198D02*
X6627205Y-19911722D01*
X6627205Y-19911722D02*
X6617682Y-19902198D01*
X6617682Y-19902198D02*
X6627205Y-19892674D01*
X6627205Y-19892674D02*
X6627205Y-19911722D01*
D12*
X4930000Y-20312500D02*
X4995000Y-20377500D01*
X4995000Y-20312500D02*
X4930000Y-20377500D01*
D11*
X5293872Y-20236484D02*
X5312920Y-20236484D01*
X5312920Y-20236484D02*
X5331967Y-20246008D01*
X5331967Y-20246008D02*
X5341491Y-20255531D01*
X5341491Y-20255531D02*
X5351015Y-20274579D01*
X5351015Y-20274579D02*
X5360539Y-20312674D01*
X5360539Y-20312674D02*
X5360539Y-20360293D01*
X5360539Y-20360293D02*
X5351015Y-20398389D01*
X5351015Y-20398389D02*
X5341491Y-20417436D01*
X5341491Y-20417436D02*
X5331967Y-20426960D01*
X5331967Y-20426960D02*
X5312920Y-20436484D01*
X5312920Y-20436484D02*
X5293872Y-20436484D01*
X5293872Y-20436484D02*
X5274824Y-20426960D01*
X5274824Y-20426960D02*
X5265301Y-20417436D01*
X5265301Y-20417436D02*
X5255777Y-20398389D01*
X5255777Y-20398389D02*
X5246253Y-20360293D01*
X5246253Y-20360293D02*
X5246253Y-20312674D01*
X5246253Y-20312674D02*
X5255777Y-20274579D01*
X5255777Y-20274579D02*
X5265301Y-20255531D01*
X5265301Y-20255531D02*
X5274824Y-20246008D01*
X5274824Y-20246008D02*
X5293872Y-20236484D01*
X5446253Y-20417436D02*
X5455777Y-20426960D01*
X5455777Y-20426960D02*
X5446253Y-20436484D01*
X5446253Y-20436484D02*
X5436729Y-20426960D01*
X5436729Y-20426960D02*
X5446253Y-20417436D01*
X5446253Y-20417436D02*
X5446253Y-20436484D01*
X5627205Y-20236484D02*
X5589110Y-20236484D01*
X5589110Y-20236484D02*
X5570063Y-20246008D01*
X5570063Y-20246008D02*
X5560539Y-20255531D01*
X5560539Y-20255531D02*
X5541491Y-20284103D01*
X5541491Y-20284103D02*
X5531967Y-20322198D01*
X5531967Y-20322198D02*
X5531967Y-20398389D01*
X5531967Y-20398389D02*
X5541491Y-20417436D01*
X5541491Y-20417436D02*
X5551015Y-20426960D01*
X5551015Y-20426960D02*
X5570063Y-20436484D01*
X5570063Y-20436484D02*
X5608158Y-20436484D01*
X5608158Y-20436484D02*
X5627205Y-20426960D01*
X5627205Y-20426960D02*
X5636729Y-20417436D01*
X5636729Y-20417436D02*
X5646253Y-20398389D01*
X5646253Y-20398389D02*
X5646253Y-20350770D01*
X5646253Y-20350770D02*
X5636729Y-20331722D01*
X5636729Y-20331722D02*
X5627205Y-20322198D01*
X5627205Y-20322198D02*
X5608158Y-20312674D01*
X5608158Y-20312674D02*
X5570063Y-20312674D01*
X5570063Y-20312674D02*
X5551015Y-20322198D01*
X5551015Y-20322198D02*
X5541491Y-20331722D01*
X5541491Y-20331722D02*
X5531967Y-20350770D01*
X5827205Y-20236484D02*
X5731967Y-20236484D01*
X5731967Y-20236484D02*
X5722443Y-20331722D01*
X5722443Y-20331722D02*
X5731967Y-20322198D01*
X5731967Y-20322198D02*
X5751015Y-20312674D01*
X5751015Y-20312674D02*
X5798634Y-20312674D01*
X5798634Y-20312674D02*
X5817682Y-20322198D01*
X5817682Y-20322198D02*
X5827205Y-20331722D01*
X5827205Y-20331722D02*
X5836729Y-20350770D01*
X5836729Y-20350770D02*
X5836729Y-20398389D01*
X5836729Y-20398389D02*
X5827205Y-20417436D01*
X5827205Y-20417436D02*
X5817682Y-20426960D01*
X5817682Y-20426960D02*
X5798634Y-20436484D01*
X5798634Y-20436484D02*
X5751015Y-20436484D01*
X5751015Y-20436484D02*
X5731967Y-20426960D01*
X5731967Y-20426960D02*
X5722443Y-20417436D01*
X5960539Y-20236484D02*
X5979586Y-20236484D01*
X5979586Y-20236484D02*
X5998634Y-20246008D01*
X5998634Y-20246008D02*
X6008158Y-20255531D01*
X6008158Y-20255531D02*
X6017682Y-20274579D01*
X6017682Y-20274579D02*
X6027205Y-20312674D01*
X6027205Y-20312674D02*
X6027205Y-20360293D01*
X6027205Y-20360293D02*
X6017682Y-20398389D01*
X6017682Y-20398389D02*
X6008158Y-20417436D01*
X6008158Y-20417436D02*
X5998634Y-20426960D01*
X5998634Y-20426960D02*
X5979586Y-20436484D01*
X5979586Y-20436484D02*
X5960539Y-20436484D01*
X5960539Y-20436484D02*
X5941491Y-20426960D01*
X5941491Y-20426960D02*
X5931967Y-20417436D01*
X5931967Y-20417436D02*
X5922443Y-20398389D01*
X5922443Y-20398389D02*
X5912920Y-20360293D01*
X5912920Y-20360293D02*
X5912920Y-20312674D01*
X5912920Y-20312674D02*
X5922443Y-20274579D01*
X5922443Y-20274579D02*
X5931967Y-20255531D01*
X5931967Y-20255531D02*
X5941491Y-20246008D01*
X5941491Y-20246008D02*
X5960539Y-20236484D01*
X6112920Y-20436484D02*
X6112920Y-20303150D01*
X6112920Y-20322198D02*
X6122443Y-20312674D01*
X6122443Y-20312674D02*
X6141491Y-20303150D01*
X6141491Y-20303150D02*
X6170063Y-20303150D01*
X6170063Y-20303150D02*
X6189110Y-20312674D01*
X6189110Y-20312674D02*
X6198634Y-20331722D01*
X6198634Y-20331722D02*
X6198634Y-20436484D01*
X6198634Y-20331722D02*
X6208158Y-20312674D01*
X6208158Y-20312674D02*
X6227205Y-20303150D01*
X6227205Y-20303150D02*
X6255777Y-20303150D01*
X6255777Y-20303150D02*
X6274824Y-20312674D01*
X6274824Y-20312674D02*
X6284348Y-20331722D01*
X6284348Y-20331722D02*
X6284348Y-20436484D01*
X6379586Y-20436484D02*
X6379586Y-20303150D01*
X6379586Y-20322198D02*
X6389110Y-20312674D01*
X6389110Y-20312674D02*
X6408158Y-20303150D01*
X6408158Y-20303150D02*
X6436729Y-20303150D01*
X6436729Y-20303150D02*
X6455777Y-20312674D01*
X6455777Y-20312674D02*
X6465301Y-20331722D01*
X6465301Y-20331722D02*
X6465301Y-20436484D01*
X6465301Y-20331722D02*
X6474824Y-20312674D01*
X6474824Y-20312674D02*
X6493872Y-20303150D01*
X6493872Y-20303150D02*
X6522443Y-20303150D01*
X6522443Y-20303150D02*
X6541491Y-20312674D01*
X6541491Y-20312674D02*
X6551015Y-20331722D01*
X6551015Y-20331722D02*
X6551015Y-20436484D01*
X6941491Y-20226960D02*
X6770063Y-20484103D01*
X7198634Y-20236484D02*
X7217682Y-20236484D01*
X7217682Y-20236484D02*
X7236729Y-20246008D01*
X7236729Y-20246008D02*
X7246253Y-20255531D01*
X7246253Y-20255531D02*
X7255777Y-20274579D01*
X7255777Y-20274579D02*
X7265301Y-20312674D01*
X7265301Y-20312674D02*
X7265301Y-20360293D01*
X7265301Y-20360293D02*
X7255777Y-20398389D01*
X7255777Y-20398389D02*
X7246253Y-20417436D01*
X7246253Y-20417436D02*
X7236729Y-20426960D01*
X7236729Y-20426960D02*
X7217682Y-20436484D01*
X7217682Y-20436484D02*
X7198634Y-20436484D01*
X7198634Y-20436484D02*
X7179586Y-20426960D01*
X7179586Y-20426960D02*
X7170063Y-20417436D01*
X7170063Y-20417436D02*
X7160539Y-20398389D01*
X7160539Y-20398389D02*
X7151015Y-20360293D01*
X7151015Y-20360293D02*
X7151015Y-20312674D01*
X7151015Y-20312674D02*
X7160539Y-20274579D01*
X7160539Y-20274579D02*
X7170063Y-20255531D01*
X7170063Y-20255531D02*
X7179586Y-20246008D01*
X7179586Y-20246008D02*
X7198634Y-20236484D01*
X7351015Y-20417436D02*
X7360539Y-20426960D01*
X7360539Y-20426960D02*
X7351015Y-20436484D01*
X7351015Y-20436484D02*
X7341491Y-20426960D01*
X7341491Y-20426960D02*
X7351015Y-20417436D01*
X7351015Y-20417436D02*
X7351015Y-20436484D01*
X7484348Y-20236484D02*
X7503396Y-20236484D01*
X7503396Y-20236484D02*
X7522444Y-20246008D01*
X7522444Y-20246008D02*
X7531967Y-20255531D01*
X7531967Y-20255531D02*
X7541491Y-20274579D01*
X7541491Y-20274579D02*
X7551015Y-20312674D01*
X7551015Y-20312674D02*
X7551015Y-20360293D01*
X7551015Y-20360293D02*
X7541491Y-20398389D01*
X7541491Y-20398389D02*
X7531967Y-20417436D01*
X7531967Y-20417436D02*
X7522444Y-20426960D01*
X7522444Y-20426960D02*
X7503396Y-20436484D01*
X7503396Y-20436484D02*
X7484348Y-20436484D01*
X7484348Y-20436484D02*
X7465301Y-20426960D01*
X7465301Y-20426960D02*
X7455777Y-20417436D01*
X7455777Y-20417436D02*
X7446253Y-20398389D01*
X7446253Y-20398389D02*
X7436729Y-20360293D01*
X7436729Y-20360293D02*
X7436729Y-20312674D01*
X7436729Y-20312674D02*
X7446253Y-20274579D01*
X7446253Y-20274579D02*
X7455777Y-20255531D01*
X7455777Y-20255531D02*
X7465301Y-20246008D01*
X7465301Y-20246008D02*
X7484348Y-20236484D01*
X7627206Y-20255531D02*
X7636729Y-20246008D01*
X7636729Y-20246008D02*
X7655777Y-20236484D01*
X7655777Y-20236484D02*
X7703396Y-20236484D01*
X7703396Y-20236484D02*
X7722444Y-20246008D01*
X7722444Y-20246008D02*
X7731967Y-20255531D01*
X7731967Y-20255531D02*
X7741491Y-20274579D01*
X7741491Y-20274579D02*
X7741491Y-20293627D01*
X7741491Y-20293627D02*
X7731967Y-20322198D01*
X7731967Y-20322198D02*
X7617682Y-20436484D01*
X7617682Y-20436484D02*
X7741491Y-20436484D01*
X7922444Y-20236484D02*
X7827206Y-20236484D01*
X7827206Y-20236484D02*
X7817682Y-20331722D01*
X7817682Y-20331722D02*
X7827206Y-20322198D01*
X7827206Y-20322198D02*
X7846253Y-20312674D01*
X7846253Y-20312674D02*
X7893872Y-20312674D01*
X7893872Y-20312674D02*
X7912920Y-20322198D01*
X7912920Y-20322198D02*
X7922444Y-20331722D01*
X7922444Y-20331722D02*
X7931967Y-20350770D01*
X7931967Y-20350770D02*
X7931967Y-20398389D01*
X7931967Y-20398389D02*
X7922444Y-20417436D01*
X7922444Y-20417436D02*
X7912920Y-20426960D01*
X7912920Y-20426960D02*
X7893872Y-20436484D01*
X7893872Y-20436484D02*
X7846253Y-20436484D01*
X7846253Y-20436484D02*
X7827206Y-20426960D01*
X7827206Y-20426960D02*
X7817682Y-20417436D01*
X8103396Y-20236484D02*
X8065301Y-20236484D01*
X8065301Y-20236484D02*
X8046253Y-20246008D01*
X8046253Y-20246008D02*
X8036729Y-20255531D01*
X8036729Y-20255531D02*
X8017682Y-20284103D01*
X8017682Y-20284103D02*
X8008158Y-20322198D01*
X8008158Y-20322198D02*
X8008158Y-20398389D01*
X8008158Y-20398389D02*
X8017682Y-20417436D01*
X8017682Y-20417436D02*
X8027206Y-20426960D01*
X8027206Y-20426960D02*
X8046253Y-20436484D01*
X8046253Y-20436484D02*
X8084348Y-20436484D01*
X8084348Y-20436484D02*
X8103396Y-20426960D01*
X8103396Y-20426960D02*
X8112920Y-20417436D01*
X8112920Y-20417436D02*
X8122444Y-20398389D01*
X8122444Y-20398389D02*
X8122444Y-20350770D01*
X8122444Y-20350770D02*
X8112920Y-20331722D01*
X8112920Y-20331722D02*
X8103396Y-20322198D01*
X8103396Y-20322198D02*
X8084348Y-20312674D01*
X8084348Y-20312674D02*
X8046253Y-20312674D01*
X8046253Y-20312674D02*
X8027206Y-20322198D01*
X8027206Y-20322198D02*
X8017682Y-20331722D01*
X8017682Y-20331722D02*
X8008158Y-20350770D01*
X8198634Y-20236484D02*
X8198634Y-20274579D01*
X8274825Y-20236484D02*
X8274825Y-20274579D01*
X8570063Y-20512674D02*
X8560539Y-20503150D01*
X8560539Y-20503150D02*
X8541491Y-20474579D01*
X8541491Y-20474579D02*
X8531968Y-20455531D01*
X8531968Y-20455531D02*
X8522444Y-20426960D01*
X8522444Y-20426960D02*
X8512920Y-20379341D01*
X8512920Y-20379341D02*
X8512920Y-20341246D01*
X8512920Y-20341246D02*
X8522444Y-20293627D01*
X8522444Y-20293627D02*
X8531968Y-20265055D01*
X8531968Y-20265055D02*
X8541491Y-20246008D01*
X8541491Y-20246008D02*
X8560539Y-20217436D01*
X8560539Y-20217436D02*
X8570063Y-20207912D01*
X8636730Y-20255531D02*
X8646253Y-20246008D01*
X8646253Y-20246008D02*
X8665301Y-20236484D01*
X8665301Y-20236484D02*
X8712920Y-20236484D01*
X8712920Y-20236484D02*
X8731968Y-20246008D01*
X8731968Y-20246008D02*
X8741491Y-20255531D01*
X8741491Y-20255531D02*
X8751015Y-20274579D01*
X8751015Y-20274579D02*
X8751015Y-20293627D01*
X8751015Y-20293627D02*
X8741491Y-20322198D01*
X8741491Y-20322198D02*
X8627206Y-20436484D01*
X8627206Y-20436484D02*
X8751015Y-20436484D01*
X8989111Y-20436484D02*
X8989111Y-20236484D01*
X9074825Y-20436484D02*
X9074825Y-20331722D01*
X9074825Y-20331722D02*
X9065301Y-20312674D01*
X9065301Y-20312674D02*
X9046253Y-20303150D01*
X9046253Y-20303150D02*
X9017682Y-20303150D01*
X9017682Y-20303150D02*
X8998634Y-20312674D01*
X8998634Y-20312674D02*
X8989111Y-20322198D01*
X9198634Y-20436484D02*
X9179587Y-20426960D01*
X9179587Y-20426960D02*
X9170063Y-20417436D01*
X9170063Y-20417436D02*
X9160539Y-20398389D01*
X9160539Y-20398389D02*
X9160539Y-20341246D01*
X9160539Y-20341246D02*
X9170063Y-20322198D01*
X9170063Y-20322198D02*
X9179587Y-20312674D01*
X9179587Y-20312674D02*
X9198634Y-20303150D01*
X9198634Y-20303150D02*
X9227206Y-20303150D01*
X9227206Y-20303150D02*
X9246253Y-20312674D01*
X9246253Y-20312674D02*
X9255777Y-20322198D01*
X9255777Y-20322198D02*
X9265301Y-20341246D01*
X9265301Y-20341246D02*
X9265301Y-20398389D01*
X9265301Y-20398389D02*
X9255777Y-20417436D01*
X9255777Y-20417436D02*
X9246253Y-20426960D01*
X9246253Y-20426960D02*
X9227206Y-20436484D01*
X9227206Y-20436484D02*
X9198634Y-20436484D01*
X9379587Y-20436484D02*
X9360539Y-20426960D01*
X9360539Y-20426960D02*
X9351015Y-20407912D01*
X9351015Y-20407912D02*
X9351015Y-20236484D01*
X9531968Y-20426960D02*
X9512920Y-20436484D01*
X9512920Y-20436484D02*
X9474825Y-20436484D01*
X9474825Y-20436484D02*
X9455777Y-20426960D01*
X9455777Y-20426960D02*
X9446253Y-20407912D01*
X9446253Y-20407912D02*
X9446253Y-20331722D01*
X9446253Y-20331722D02*
X9455777Y-20312674D01*
X9455777Y-20312674D02*
X9474825Y-20303150D01*
X9474825Y-20303150D02*
X9512920Y-20303150D01*
X9512920Y-20303150D02*
X9531968Y-20312674D01*
X9531968Y-20312674D02*
X9541492Y-20331722D01*
X9541492Y-20331722D02*
X9541492Y-20350770D01*
X9541492Y-20350770D02*
X9446253Y-20369817D01*
X9617682Y-20426960D02*
X9636730Y-20436484D01*
X9636730Y-20436484D02*
X9674825Y-20436484D01*
X9674825Y-20436484D02*
X9693873Y-20426960D01*
X9693873Y-20426960D02*
X9703396Y-20407912D01*
X9703396Y-20407912D02*
X9703396Y-20398389D01*
X9703396Y-20398389D02*
X9693873Y-20379341D01*
X9693873Y-20379341D02*
X9674825Y-20369817D01*
X9674825Y-20369817D02*
X9646253Y-20369817D01*
X9646253Y-20369817D02*
X9627206Y-20360293D01*
X9627206Y-20360293D02*
X9617682Y-20341246D01*
X9617682Y-20341246D02*
X9617682Y-20331722D01*
X9617682Y-20331722D02*
X9627206Y-20312674D01*
X9627206Y-20312674D02*
X9646253Y-20303150D01*
X9646253Y-20303150D02*
X9674825Y-20303150D01*
X9674825Y-20303150D02*
X9693873Y-20312674D01*
X9770063Y-20512674D02*
X9779587Y-20503150D01*
X9779587Y-20503150D02*
X9798634Y-20474579D01*
X9798634Y-20474579D02*
X9808158Y-20455531D01*
X9808158Y-20455531D02*
X9817682Y-20426960D01*
X9817682Y-20426960D02*
X9827206Y-20379341D01*
X9827206Y-20379341D02*
X9827206Y-20341246D01*
X9827206Y-20341246D02*
X9817682Y-20293627D01*
X9817682Y-20293627D02*
X9808158Y-20265055D01*
X9808158Y-20265055D02*
X9798634Y-20246008D01*
X9798634Y-20246008D02*
X9779587Y-20217436D01*
X9779587Y-20217436D02*
X9770063Y-20207912D01*
X10131968Y-20512674D02*
X10122444Y-20503150D01*
X10122444Y-20503150D02*
X10103396Y-20474579D01*
X10103396Y-20474579D02*
X10093873Y-20455531D01*
X10093873Y-20455531D02*
X10084349Y-20426960D01*
X10084349Y-20426960D02*
X10074825Y-20379341D01*
X10074825Y-20379341D02*
X10074825Y-20341246D01*
X10074825Y-20341246D02*
X10084349Y-20293627D01*
X10084349Y-20293627D02*
X10093873Y-20265055D01*
X10093873Y-20265055D02*
X10103396Y-20246008D01*
X10103396Y-20246008D02*
X10122444Y-20217436D01*
X10122444Y-20217436D02*
X10131968Y-20207912D01*
X10208158Y-20303150D02*
X10208158Y-20436484D01*
X10208158Y-20322198D02*
X10217682Y-20312674D01*
X10217682Y-20312674D02*
X10236730Y-20303150D01*
X10236730Y-20303150D02*
X10265301Y-20303150D01*
X10265301Y-20303150D02*
X10284349Y-20312674D01*
X10284349Y-20312674D02*
X10293873Y-20331722D01*
X10293873Y-20331722D02*
X10293873Y-20436484D01*
X10417682Y-20436484D02*
X10398634Y-20426960D01*
X10398634Y-20426960D02*
X10389111Y-20417436D01*
X10389111Y-20417436D02*
X10379587Y-20398389D01*
X10379587Y-20398389D02*
X10379587Y-20341246D01*
X10379587Y-20341246D02*
X10389111Y-20322198D01*
X10389111Y-20322198D02*
X10398634Y-20312674D01*
X10398634Y-20312674D02*
X10417682Y-20303150D01*
X10417682Y-20303150D02*
X10446254Y-20303150D01*
X10446254Y-20303150D02*
X10465301Y-20312674D01*
X10465301Y-20312674D02*
X10474825Y-20322198D01*
X10474825Y-20322198D02*
X10484349Y-20341246D01*
X10484349Y-20341246D02*
X10484349Y-20398389D01*
X10484349Y-20398389D02*
X10474825Y-20417436D01*
X10474825Y-20417436D02*
X10465301Y-20426960D01*
X10465301Y-20426960D02*
X10446254Y-20436484D01*
X10446254Y-20436484D02*
X10417682Y-20436484D01*
X10541492Y-20303150D02*
X10617682Y-20303150D01*
X10570063Y-20236484D02*
X10570063Y-20407912D01*
X10570063Y-20407912D02*
X10579587Y-20426960D01*
X10579587Y-20426960D02*
X10598634Y-20436484D01*
X10598634Y-20436484D02*
X10617682Y-20436484D01*
X10836730Y-20303150D02*
X10836730Y-20503150D01*
X10836730Y-20312674D02*
X10855777Y-20303150D01*
X10855777Y-20303150D02*
X10893873Y-20303150D01*
X10893873Y-20303150D02*
X10912920Y-20312674D01*
X10912920Y-20312674D02*
X10922444Y-20322198D01*
X10922444Y-20322198D02*
X10931968Y-20341246D01*
X10931968Y-20341246D02*
X10931968Y-20398389D01*
X10931968Y-20398389D02*
X10922444Y-20417436D01*
X10922444Y-20417436D02*
X10912920Y-20426960D01*
X10912920Y-20426960D02*
X10893873Y-20436484D01*
X10893873Y-20436484D02*
X10855777Y-20436484D01*
X10855777Y-20436484D02*
X10836730Y-20426960D01*
X11046254Y-20436484D02*
X11027206Y-20426960D01*
X11027206Y-20426960D02*
X11017682Y-20407912D01*
X11017682Y-20407912D02*
X11017682Y-20236484D01*
X11208158Y-20436484D02*
X11208158Y-20331722D01*
X11208158Y-20331722D02*
X11198634Y-20312674D01*
X11198634Y-20312674D02*
X11179587Y-20303150D01*
X11179587Y-20303150D02*
X11141492Y-20303150D01*
X11141492Y-20303150D02*
X11122444Y-20312674D01*
X11208158Y-20426960D02*
X11189111Y-20436484D01*
X11189111Y-20436484D02*
X11141492Y-20436484D01*
X11141492Y-20436484D02*
X11122444Y-20426960D01*
X11122444Y-20426960D02*
X11112920Y-20407912D01*
X11112920Y-20407912D02*
X11112920Y-20388865D01*
X11112920Y-20388865D02*
X11122444Y-20369817D01*
X11122444Y-20369817D02*
X11141492Y-20360293D01*
X11141492Y-20360293D02*
X11189111Y-20360293D01*
X11189111Y-20360293D02*
X11208158Y-20350770D01*
X11274825Y-20303150D02*
X11351015Y-20303150D01*
X11303396Y-20236484D02*
X11303396Y-20407912D01*
X11303396Y-20407912D02*
X11312920Y-20426960D01*
X11312920Y-20426960D02*
X11331968Y-20436484D01*
X11331968Y-20436484D02*
X11351015Y-20436484D01*
X11493873Y-20426960D02*
X11474825Y-20436484D01*
X11474825Y-20436484D02*
X11436730Y-20436484D01*
X11436730Y-20436484D02*
X11417682Y-20426960D01*
X11417682Y-20426960D02*
X11408158Y-20407912D01*
X11408158Y-20407912D02*
X11408158Y-20331722D01*
X11408158Y-20331722D02*
X11417682Y-20312674D01*
X11417682Y-20312674D02*
X11436730Y-20303150D01*
X11436730Y-20303150D02*
X11474825Y-20303150D01*
X11474825Y-20303150D02*
X11493873Y-20312674D01*
X11493873Y-20312674D02*
X11503396Y-20331722D01*
X11503396Y-20331722D02*
X11503396Y-20350770D01*
X11503396Y-20350770D02*
X11408158Y-20369817D01*
X11674825Y-20436484D02*
X11674825Y-20236484D01*
X11674825Y-20426960D02*
X11655777Y-20436484D01*
X11655777Y-20436484D02*
X11617682Y-20436484D01*
X11617682Y-20436484D02*
X11598634Y-20426960D01*
X11598634Y-20426960D02*
X11589111Y-20417436D01*
X11589111Y-20417436D02*
X11579587Y-20398389D01*
X11579587Y-20398389D02*
X11579587Y-20341246D01*
X11579587Y-20341246D02*
X11589111Y-20322198D01*
X11589111Y-20322198D02*
X11598634Y-20312674D01*
X11598634Y-20312674D02*
X11617682Y-20303150D01*
X11617682Y-20303150D02*
X11655777Y-20303150D01*
X11655777Y-20303150D02*
X11674825Y-20312674D01*
X11751015Y-20512674D02*
X11760539Y-20503150D01*
X11760539Y-20503150D02*
X11779587Y-20474579D01*
X11779587Y-20474579D02*
X11789111Y-20455531D01*
X11789111Y-20455531D02*
X11798634Y-20426960D01*
X11798634Y-20426960D02*
X11808158Y-20379341D01*
X11808158Y-20379341D02*
X11808158Y-20341246D01*
X11808158Y-20341246D02*
X11798634Y-20293627D01*
X11798634Y-20293627D02*
X11789111Y-20265055D01*
X11789111Y-20265055D02*
X11779587Y-20246008D01*
X11779587Y-20246008D02*
X11760539Y-20217436D01*
X11760539Y-20217436D02*
X11751015Y-20207912D01*
D13*
X4995000Y-20609000D02*
G75*
G03*
X4995000Y-20609000I-87500J0D01*
G01*
D11*
X5360539Y-20700484D02*
X5246253Y-20700484D01*
X5303396Y-20700484D02*
X5303396Y-20500484D01*
X5303396Y-20500484D02*
X5284348Y-20529055D01*
X5284348Y-20529055D02*
X5265301Y-20548103D01*
X5265301Y-20548103D02*
X5246253Y-20557627D01*
X5446253Y-20681436D02*
X5455777Y-20690960D01*
X5455777Y-20690960D02*
X5446253Y-20700484D01*
X5446253Y-20700484D02*
X5436729Y-20690960D01*
X5436729Y-20690960D02*
X5446253Y-20681436D01*
X5446253Y-20681436D02*
X5446253Y-20700484D01*
X5522444Y-20500484D02*
X5655777Y-20500484D01*
X5655777Y-20500484D02*
X5570063Y-20700484D01*
X5827205Y-20500484D02*
X5731967Y-20500484D01*
X5731967Y-20500484D02*
X5722443Y-20595722D01*
X5722443Y-20595722D02*
X5731967Y-20586198D01*
X5731967Y-20586198D02*
X5751015Y-20576674D01*
X5751015Y-20576674D02*
X5798634Y-20576674D01*
X5798634Y-20576674D02*
X5817682Y-20586198D01*
X5817682Y-20586198D02*
X5827205Y-20595722D01*
X5827205Y-20595722D02*
X5836729Y-20614770D01*
X5836729Y-20614770D02*
X5836729Y-20662389D01*
X5836729Y-20662389D02*
X5827205Y-20681436D01*
X5827205Y-20681436D02*
X5817682Y-20690960D01*
X5817682Y-20690960D02*
X5798634Y-20700484D01*
X5798634Y-20700484D02*
X5751015Y-20700484D01*
X5751015Y-20700484D02*
X5731967Y-20690960D01*
X5731967Y-20690960D02*
X5722443Y-20681436D01*
X5960539Y-20500484D02*
X5979586Y-20500484D01*
X5979586Y-20500484D02*
X5998634Y-20510008D01*
X5998634Y-20510008D02*
X6008158Y-20519531D01*
X6008158Y-20519531D02*
X6017682Y-20538579D01*
X6017682Y-20538579D02*
X6027205Y-20576674D01*
X6027205Y-20576674D02*
X6027205Y-20624293D01*
X6027205Y-20624293D02*
X6017682Y-20662389D01*
X6017682Y-20662389D02*
X6008158Y-20681436D01*
X6008158Y-20681436D02*
X5998634Y-20690960D01*
X5998634Y-20690960D02*
X5979586Y-20700484D01*
X5979586Y-20700484D02*
X5960539Y-20700484D01*
X5960539Y-20700484D02*
X5941491Y-20690960D01*
X5941491Y-20690960D02*
X5931967Y-20681436D01*
X5931967Y-20681436D02*
X5922443Y-20662389D01*
X5922443Y-20662389D02*
X5912920Y-20624293D01*
X5912920Y-20624293D02*
X5912920Y-20576674D01*
X5912920Y-20576674D02*
X5922443Y-20538579D01*
X5922443Y-20538579D02*
X5931967Y-20519531D01*
X5931967Y-20519531D02*
X5941491Y-20510008D01*
X5941491Y-20510008D02*
X5960539Y-20500484D01*
X6112920Y-20700484D02*
X6112920Y-20567150D01*
X6112920Y-20586198D02*
X6122443Y-20576674D01*
X6122443Y-20576674D02*
X6141491Y-20567150D01*
X6141491Y-20567150D02*
X6170063Y-20567150D01*
X6170063Y-20567150D02*
X6189110Y-20576674D01*
X6189110Y-20576674D02*
X6198634Y-20595722D01*
X6198634Y-20595722D02*
X6198634Y-20700484D01*
X6198634Y-20595722D02*
X6208158Y-20576674D01*
X6208158Y-20576674D02*
X6227205Y-20567150D01*
X6227205Y-20567150D02*
X6255777Y-20567150D01*
X6255777Y-20567150D02*
X6274824Y-20576674D01*
X6274824Y-20576674D02*
X6284348Y-20595722D01*
X6284348Y-20595722D02*
X6284348Y-20700484D01*
X6379586Y-20700484D02*
X6379586Y-20567150D01*
X6379586Y-20586198D02*
X6389110Y-20576674D01*
X6389110Y-20576674D02*
X6408158Y-20567150D01*
X6408158Y-20567150D02*
X6436729Y-20567150D01*
X6436729Y-20567150D02*
X6455777Y-20576674D01*
X6455777Y-20576674D02*
X6465301Y-20595722D01*
X6465301Y-20595722D02*
X6465301Y-20700484D01*
X6465301Y-20595722D02*
X6474824Y-20576674D01*
X6474824Y-20576674D02*
X6493872Y-20567150D01*
X6493872Y-20567150D02*
X6522443Y-20567150D01*
X6522443Y-20567150D02*
X6541491Y-20576674D01*
X6541491Y-20576674D02*
X6551015Y-20595722D01*
X6551015Y-20595722D02*
X6551015Y-20700484D01*
X6941491Y-20490960D02*
X6770063Y-20748103D01*
X7198634Y-20500484D02*
X7217682Y-20500484D01*
X7217682Y-20500484D02*
X7236729Y-20510008D01*
X7236729Y-20510008D02*
X7246253Y-20519531D01*
X7246253Y-20519531D02*
X7255777Y-20538579D01*
X7255777Y-20538579D02*
X7265301Y-20576674D01*
X7265301Y-20576674D02*
X7265301Y-20624293D01*
X7265301Y-20624293D02*
X7255777Y-20662389D01*
X7255777Y-20662389D02*
X7246253Y-20681436D01*
X7246253Y-20681436D02*
X7236729Y-20690960D01*
X7236729Y-20690960D02*
X7217682Y-20700484D01*
X7217682Y-20700484D02*
X7198634Y-20700484D01*
X7198634Y-20700484D02*
X7179586Y-20690960D01*
X7179586Y-20690960D02*
X7170063Y-20681436D01*
X7170063Y-20681436D02*
X7160539Y-20662389D01*
X7160539Y-20662389D02*
X7151015Y-20624293D01*
X7151015Y-20624293D02*
X7151015Y-20576674D01*
X7151015Y-20576674D02*
X7160539Y-20538579D01*
X7160539Y-20538579D02*
X7170063Y-20519531D01*
X7170063Y-20519531D02*
X7179586Y-20510008D01*
X7179586Y-20510008D02*
X7198634Y-20500484D01*
X7351015Y-20681436D02*
X7360539Y-20690960D01*
X7360539Y-20690960D02*
X7351015Y-20700484D01*
X7351015Y-20700484D02*
X7341491Y-20690960D01*
X7341491Y-20690960D02*
X7351015Y-20681436D01*
X7351015Y-20681436D02*
X7351015Y-20700484D01*
X7484348Y-20500484D02*
X7503396Y-20500484D01*
X7503396Y-20500484D02*
X7522444Y-20510008D01*
X7522444Y-20510008D02*
X7531967Y-20519531D01*
X7531967Y-20519531D02*
X7541491Y-20538579D01*
X7541491Y-20538579D02*
X7551015Y-20576674D01*
X7551015Y-20576674D02*
X7551015Y-20624293D01*
X7551015Y-20624293D02*
X7541491Y-20662389D01*
X7541491Y-20662389D02*
X7531967Y-20681436D01*
X7531967Y-20681436D02*
X7522444Y-20690960D01*
X7522444Y-20690960D02*
X7503396Y-20700484D01*
X7503396Y-20700484D02*
X7484348Y-20700484D01*
X7484348Y-20700484D02*
X7465301Y-20690960D01*
X7465301Y-20690960D02*
X7455777Y-20681436D01*
X7455777Y-20681436D02*
X7446253Y-20662389D01*
X7446253Y-20662389D02*
X7436729Y-20624293D01*
X7436729Y-20624293D02*
X7436729Y-20576674D01*
X7436729Y-20576674D02*
X7446253Y-20538579D01*
X7446253Y-20538579D02*
X7455777Y-20519531D01*
X7455777Y-20519531D02*
X7465301Y-20510008D01*
X7465301Y-20510008D02*
X7484348Y-20500484D01*
X7722444Y-20500484D02*
X7684348Y-20500484D01*
X7684348Y-20500484D02*
X7665301Y-20510008D01*
X7665301Y-20510008D02*
X7655777Y-20519531D01*
X7655777Y-20519531D02*
X7636729Y-20548103D01*
X7636729Y-20548103D02*
X7627206Y-20586198D01*
X7627206Y-20586198D02*
X7627206Y-20662389D01*
X7627206Y-20662389D02*
X7636729Y-20681436D01*
X7636729Y-20681436D02*
X7646253Y-20690960D01*
X7646253Y-20690960D02*
X7665301Y-20700484D01*
X7665301Y-20700484D02*
X7703396Y-20700484D01*
X7703396Y-20700484D02*
X7722444Y-20690960D01*
X7722444Y-20690960D02*
X7731967Y-20681436D01*
X7731967Y-20681436D02*
X7741491Y-20662389D01*
X7741491Y-20662389D02*
X7741491Y-20614770D01*
X7741491Y-20614770D02*
X7731967Y-20595722D01*
X7731967Y-20595722D02*
X7722444Y-20586198D01*
X7722444Y-20586198D02*
X7703396Y-20576674D01*
X7703396Y-20576674D02*
X7665301Y-20576674D01*
X7665301Y-20576674D02*
X7646253Y-20586198D01*
X7646253Y-20586198D02*
X7636729Y-20595722D01*
X7636729Y-20595722D02*
X7627206Y-20614770D01*
X7855777Y-20586198D02*
X7836729Y-20576674D01*
X7836729Y-20576674D02*
X7827206Y-20567150D01*
X7827206Y-20567150D02*
X7817682Y-20548103D01*
X7817682Y-20548103D02*
X7817682Y-20538579D01*
X7817682Y-20538579D02*
X7827206Y-20519531D01*
X7827206Y-20519531D02*
X7836729Y-20510008D01*
X7836729Y-20510008D02*
X7855777Y-20500484D01*
X7855777Y-20500484D02*
X7893872Y-20500484D01*
X7893872Y-20500484D02*
X7912920Y-20510008D01*
X7912920Y-20510008D02*
X7922444Y-20519531D01*
X7922444Y-20519531D02*
X7931967Y-20538579D01*
X7931967Y-20538579D02*
X7931967Y-20548103D01*
X7931967Y-20548103D02*
X7922444Y-20567150D01*
X7922444Y-20567150D02*
X7912920Y-20576674D01*
X7912920Y-20576674D02*
X7893872Y-20586198D01*
X7893872Y-20586198D02*
X7855777Y-20586198D01*
X7855777Y-20586198D02*
X7836729Y-20595722D01*
X7836729Y-20595722D02*
X7827206Y-20605246D01*
X7827206Y-20605246D02*
X7817682Y-20624293D01*
X7817682Y-20624293D02*
X7817682Y-20662389D01*
X7817682Y-20662389D02*
X7827206Y-20681436D01*
X7827206Y-20681436D02*
X7836729Y-20690960D01*
X7836729Y-20690960D02*
X7855777Y-20700484D01*
X7855777Y-20700484D02*
X7893872Y-20700484D01*
X7893872Y-20700484D02*
X7912920Y-20690960D01*
X7912920Y-20690960D02*
X7922444Y-20681436D01*
X7922444Y-20681436D02*
X7931967Y-20662389D01*
X7931967Y-20662389D02*
X7931967Y-20624293D01*
X7931967Y-20624293D02*
X7922444Y-20605246D01*
X7922444Y-20605246D02*
X7912920Y-20595722D01*
X7912920Y-20595722D02*
X7893872Y-20586198D01*
X8027206Y-20700484D02*
X8065301Y-20700484D01*
X8065301Y-20700484D02*
X8084348Y-20690960D01*
X8084348Y-20690960D02*
X8093872Y-20681436D01*
X8093872Y-20681436D02*
X8112920Y-20652865D01*
X8112920Y-20652865D02*
X8122444Y-20614770D01*
X8122444Y-20614770D02*
X8122444Y-20538579D01*
X8122444Y-20538579D02*
X8112920Y-20519531D01*
X8112920Y-20519531D02*
X8103396Y-20510008D01*
X8103396Y-20510008D02*
X8084348Y-20500484D01*
X8084348Y-20500484D02*
X8046253Y-20500484D01*
X8046253Y-20500484D02*
X8027206Y-20510008D01*
X8027206Y-20510008D02*
X8017682Y-20519531D01*
X8017682Y-20519531D02*
X8008158Y-20538579D01*
X8008158Y-20538579D02*
X8008158Y-20586198D01*
X8008158Y-20586198D02*
X8017682Y-20605246D01*
X8017682Y-20605246D02*
X8027206Y-20614770D01*
X8027206Y-20614770D02*
X8046253Y-20624293D01*
X8046253Y-20624293D02*
X8084348Y-20624293D01*
X8084348Y-20624293D02*
X8103396Y-20614770D01*
X8103396Y-20614770D02*
X8112920Y-20605246D01*
X8112920Y-20605246D02*
X8122444Y-20586198D01*
X8198634Y-20500484D02*
X8198634Y-20538579D01*
X8274825Y-20500484D02*
X8274825Y-20538579D01*
X8570063Y-20776674D02*
X8560539Y-20767150D01*
X8560539Y-20767150D02*
X8541491Y-20738579D01*
X8541491Y-20738579D02*
X8531968Y-20719531D01*
X8531968Y-20719531D02*
X8522444Y-20690960D01*
X8522444Y-20690960D02*
X8512920Y-20643341D01*
X8512920Y-20643341D02*
X8512920Y-20605246D01*
X8512920Y-20605246D02*
X8522444Y-20557627D01*
X8522444Y-20557627D02*
X8531968Y-20529055D01*
X8531968Y-20529055D02*
X8541491Y-20510008D01*
X8541491Y-20510008D02*
X8560539Y-20481436D01*
X8560539Y-20481436D02*
X8570063Y-20471912D01*
X8751015Y-20700484D02*
X8636730Y-20700484D01*
X8693872Y-20700484D02*
X8693872Y-20500484D01*
X8693872Y-20500484D02*
X8674825Y-20529055D01*
X8674825Y-20529055D02*
X8655777Y-20548103D01*
X8655777Y-20548103D02*
X8636730Y-20557627D01*
X8817682Y-20500484D02*
X8941491Y-20500484D01*
X8941491Y-20500484D02*
X8874825Y-20576674D01*
X8874825Y-20576674D02*
X8903396Y-20576674D01*
X8903396Y-20576674D02*
X8922444Y-20586198D01*
X8922444Y-20586198D02*
X8931968Y-20595722D01*
X8931968Y-20595722D02*
X8941491Y-20614770D01*
X8941491Y-20614770D02*
X8941491Y-20662389D01*
X8941491Y-20662389D02*
X8931968Y-20681436D01*
X8931968Y-20681436D02*
X8922444Y-20690960D01*
X8922444Y-20690960D02*
X8903396Y-20700484D01*
X8903396Y-20700484D02*
X8846253Y-20700484D01*
X8846253Y-20700484D02*
X8827206Y-20690960D01*
X8827206Y-20690960D02*
X8817682Y-20681436D01*
X9112920Y-20500484D02*
X9074825Y-20500484D01*
X9074825Y-20500484D02*
X9055777Y-20510008D01*
X9055777Y-20510008D02*
X9046253Y-20519531D01*
X9046253Y-20519531D02*
X9027206Y-20548103D01*
X9027206Y-20548103D02*
X9017682Y-20586198D01*
X9017682Y-20586198D02*
X9017682Y-20662389D01*
X9017682Y-20662389D02*
X9027206Y-20681436D01*
X9027206Y-20681436D02*
X9036730Y-20690960D01*
X9036730Y-20690960D02*
X9055777Y-20700484D01*
X9055777Y-20700484D02*
X9093872Y-20700484D01*
X9093872Y-20700484D02*
X9112920Y-20690960D01*
X9112920Y-20690960D02*
X9122444Y-20681436D01*
X9122444Y-20681436D02*
X9131968Y-20662389D01*
X9131968Y-20662389D02*
X9131968Y-20614770D01*
X9131968Y-20614770D02*
X9122444Y-20595722D01*
X9122444Y-20595722D02*
X9112920Y-20586198D01*
X9112920Y-20586198D02*
X9093872Y-20576674D01*
X9093872Y-20576674D02*
X9055777Y-20576674D01*
X9055777Y-20576674D02*
X9036730Y-20586198D01*
X9036730Y-20586198D02*
X9027206Y-20595722D01*
X9027206Y-20595722D02*
X9017682Y-20614770D01*
X9370063Y-20700484D02*
X9370063Y-20500484D01*
X9455777Y-20700484D02*
X9455777Y-20595722D01*
X9455777Y-20595722D02*
X9446253Y-20576674D01*
X9446253Y-20576674D02*
X9427206Y-20567150D01*
X9427206Y-20567150D02*
X9398634Y-20567150D01*
X9398634Y-20567150D02*
X9379587Y-20576674D01*
X9379587Y-20576674D02*
X9370063Y-20586198D01*
X9579587Y-20700484D02*
X9560539Y-20690960D01*
X9560539Y-20690960D02*
X9551015Y-20681436D01*
X9551015Y-20681436D02*
X9541492Y-20662389D01*
X9541492Y-20662389D02*
X9541492Y-20605246D01*
X9541492Y-20605246D02*
X9551015Y-20586198D01*
X9551015Y-20586198D02*
X9560539Y-20576674D01*
X9560539Y-20576674D02*
X9579587Y-20567150D01*
X9579587Y-20567150D02*
X9608158Y-20567150D01*
X9608158Y-20567150D02*
X9627206Y-20576674D01*
X9627206Y-20576674D02*
X9636730Y-20586198D01*
X9636730Y-20586198D02*
X9646253Y-20605246D01*
X9646253Y-20605246D02*
X9646253Y-20662389D01*
X9646253Y-20662389D02*
X9636730Y-20681436D01*
X9636730Y-20681436D02*
X9627206Y-20690960D01*
X9627206Y-20690960D02*
X9608158Y-20700484D01*
X9608158Y-20700484D02*
X9579587Y-20700484D01*
X9760539Y-20700484D02*
X9741492Y-20690960D01*
X9741492Y-20690960D02*
X9731968Y-20671912D01*
X9731968Y-20671912D02*
X9731968Y-20500484D01*
X9912920Y-20690960D02*
X9893873Y-20700484D01*
X9893873Y-20700484D02*
X9855777Y-20700484D01*
X9855777Y-20700484D02*
X9836730Y-20690960D01*
X9836730Y-20690960D02*
X9827206Y-20671912D01*
X9827206Y-20671912D02*
X9827206Y-20595722D01*
X9827206Y-20595722D02*
X9836730Y-20576674D01*
X9836730Y-20576674D02*
X9855777Y-20567150D01*
X9855777Y-20567150D02*
X9893873Y-20567150D01*
X9893873Y-20567150D02*
X9912920Y-20576674D01*
X9912920Y-20576674D02*
X9922444Y-20595722D01*
X9922444Y-20595722D02*
X9922444Y-20614770D01*
X9922444Y-20614770D02*
X9827206Y-20633817D01*
X9998634Y-20690960D02*
X10017682Y-20700484D01*
X10017682Y-20700484D02*
X10055777Y-20700484D01*
X10055777Y-20700484D02*
X10074825Y-20690960D01*
X10074825Y-20690960D02*
X10084349Y-20671912D01*
X10084349Y-20671912D02*
X10084349Y-20662389D01*
X10084349Y-20662389D02*
X10074825Y-20643341D01*
X10074825Y-20643341D02*
X10055777Y-20633817D01*
X10055777Y-20633817D02*
X10027206Y-20633817D01*
X10027206Y-20633817D02*
X10008158Y-20624293D01*
X10008158Y-20624293D02*
X9998634Y-20605246D01*
X9998634Y-20605246D02*
X9998634Y-20595722D01*
X9998634Y-20595722D02*
X10008158Y-20576674D01*
X10008158Y-20576674D02*
X10027206Y-20567150D01*
X10027206Y-20567150D02*
X10055777Y-20567150D01*
X10055777Y-20567150D02*
X10074825Y-20576674D01*
X10151015Y-20776674D02*
X10160539Y-20767150D01*
X10160539Y-20767150D02*
X10179587Y-20738579D01*
X10179587Y-20738579D02*
X10189111Y-20719531D01*
X10189111Y-20719531D02*
X10198634Y-20690960D01*
X10198634Y-20690960D02*
X10208158Y-20643341D01*
X10208158Y-20643341D02*
X10208158Y-20605246D01*
X10208158Y-20605246D02*
X10198634Y-20557627D01*
X10198634Y-20557627D02*
X10189111Y-20529055D01*
X10189111Y-20529055D02*
X10179587Y-20510008D01*
X10179587Y-20510008D02*
X10160539Y-20481436D01*
X10160539Y-20481436D02*
X10151015Y-20471912D01*
X10512920Y-20776674D02*
X10503396Y-20767150D01*
X10503396Y-20767150D02*
X10484349Y-20738579D01*
X10484349Y-20738579D02*
X10474825Y-20719531D01*
X10474825Y-20719531D02*
X10465301Y-20690960D01*
X10465301Y-20690960D02*
X10455777Y-20643341D01*
X10455777Y-20643341D02*
X10455777Y-20605246D01*
X10455777Y-20605246D02*
X10465301Y-20557627D01*
X10465301Y-20557627D02*
X10474825Y-20529055D01*
X10474825Y-20529055D02*
X10484349Y-20510008D01*
X10484349Y-20510008D02*
X10503396Y-20481436D01*
X10503396Y-20481436D02*
X10512920Y-20471912D01*
X10589111Y-20567150D02*
X10589111Y-20700484D01*
X10589111Y-20586198D02*
X10598634Y-20576674D01*
X10598634Y-20576674D02*
X10617682Y-20567150D01*
X10617682Y-20567150D02*
X10646254Y-20567150D01*
X10646254Y-20567150D02*
X10665301Y-20576674D01*
X10665301Y-20576674D02*
X10674825Y-20595722D01*
X10674825Y-20595722D02*
X10674825Y-20700484D01*
X10798634Y-20700484D02*
X10779587Y-20690960D01*
X10779587Y-20690960D02*
X10770063Y-20681436D01*
X10770063Y-20681436D02*
X10760539Y-20662389D01*
X10760539Y-20662389D02*
X10760539Y-20605246D01*
X10760539Y-20605246D02*
X10770063Y-20586198D01*
X10770063Y-20586198D02*
X10779587Y-20576674D01*
X10779587Y-20576674D02*
X10798634Y-20567150D01*
X10798634Y-20567150D02*
X10827206Y-20567150D01*
X10827206Y-20567150D02*
X10846254Y-20576674D01*
X10846254Y-20576674D02*
X10855777Y-20586198D01*
X10855777Y-20586198D02*
X10865301Y-20605246D01*
X10865301Y-20605246D02*
X10865301Y-20662389D01*
X10865301Y-20662389D02*
X10855777Y-20681436D01*
X10855777Y-20681436D02*
X10846254Y-20690960D01*
X10846254Y-20690960D02*
X10827206Y-20700484D01*
X10827206Y-20700484D02*
X10798634Y-20700484D01*
X10922444Y-20567150D02*
X10998634Y-20567150D01*
X10951015Y-20500484D02*
X10951015Y-20671912D01*
X10951015Y-20671912D02*
X10960539Y-20690960D01*
X10960539Y-20690960D02*
X10979587Y-20700484D01*
X10979587Y-20700484D02*
X10998634Y-20700484D01*
X11217682Y-20567150D02*
X11217682Y-20767150D01*
X11217682Y-20576674D02*
X11236730Y-20567150D01*
X11236730Y-20567150D02*
X11274825Y-20567150D01*
X11274825Y-20567150D02*
X11293873Y-20576674D01*
X11293873Y-20576674D02*
X11303396Y-20586198D01*
X11303396Y-20586198D02*
X11312920Y-20605246D01*
X11312920Y-20605246D02*
X11312920Y-20662389D01*
X11312920Y-20662389D02*
X11303396Y-20681436D01*
X11303396Y-20681436D02*
X11293873Y-20690960D01*
X11293873Y-20690960D02*
X11274825Y-20700484D01*
X11274825Y-20700484D02*
X11236730Y-20700484D01*
X11236730Y-20700484D02*
X11217682Y-20690960D01*
X11427206Y-20700484D02*
X11408158Y-20690960D01*
X11408158Y-20690960D02*
X11398634Y-20671912D01*
X11398634Y-20671912D02*
X11398634Y-20500484D01*
X11589111Y-20700484D02*
X11589111Y-20595722D01*
X11589111Y-20595722D02*
X11579587Y-20576674D01*
X11579587Y-20576674D02*
X11560539Y-20567150D01*
X11560539Y-20567150D02*
X11522444Y-20567150D01*
X11522444Y-20567150D02*
X11503396Y-20576674D01*
X11589111Y-20690960D02*
X11570063Y-20700484D01*
X11570063Y-20700484D02*
X11522444Y-20700484D01*
X11522444Y-20700484D02*
X11503396Y-20690960D01*
X11503396Y-20690960D02*
X11493873Y-20671912D01*
X11493873Y-20671912D02*
X11493873Y-20652865D01*
X11493873Y-20652865D02*
X11503396Y-20633817D01*
X11503396Y-20633817D02*
X11522444Y-20624293D01*
X11522444Y-20624293D02*
X11570063Y-20624293D01*
X11570063Y-20624293D02*
X11589111Y-20614770D01*
X11655777Y-20567150D02*
X11731968Y-20567150D01*
X11684349Y-20500484D02*
X11684349Y-20671912D01*
X11684349Y-20671912D02*
X11693873Y-20690960D01*
X11693873Y-20690960D02*
X11712920Y-20700484D01*
X11712920Y-20700484D02*
X11731968Y-20700484D01*
X11874825Y-20690960D02*
X11855777Y-20700484D01*
X11855777Y-20700484D02*
X11817682Y-20700484D01*
X11817682Y-20700484D02*
X11798634Y-20690960D01*
X11798634Y-20690960D02*
X11789111Y-20671912D01*
X11789111Y-20671912D02*
X11789111Y-20595722D01*
X11789111Y-20595722D02*
X11798634Y-20576674D01*
X11798634Y-20576674D02*
X11817682Y-20567150D01*
X11817682Y-20567150D02*
X11855777Y-20567150D01*
X11855777Y-20567150D02*
X11874825Y-20576674D01*
X11874825Y-20576674D02*
X11884349Y-20595722D01*
X11884349Y-20595722D02*
X11884349Y-20614770D01*
X11884349Y-20614770D02*
X11789111Y-20633817D01*
X12055777Y-20700484D02*
X12055777Y-20500484D01*
X12055777Y-20690960D02*
X12036730Y-20700484D01*
X12036730Y-20700484D02*
X11998634Y-20700484D01*
X11998634Y-20700484D02*
X11979587Y-20690960D01*
X11979587Y-20690960D02*
X11970063Y-20681436D01*
X11970063Y-20681436D02*
X11960539Y-20662389D01*
X11960539Y-20662389D02*
X11960539Y-20605246D01*
X11960539Y-20605246D02*
X11970063Y-20586198D01*
X11970063Y-20586198D02*
X11979587Y-20576674D01*
X11979587Y-20576674D02*
X11998634Y-20567150D01*
X11998634Y-20567150D02*
X12036730Y-20567150D01*
X12036730Y-20567150D02*
X12055777Y-20576674D01*
X12131968Y-20776674D02*
X12141492Y-20767150D01*
X12141492Y-20767150D02*
X12160539Y-20738579D01*
X12160539Y-20738579D02*
X12170063Y-20719531D01*
X12170063Y-20719531D02*
X12179587Y-20690960D01*
X12179587Y-20690960D02*
X12189111Y-20643341D01*
X12189111Y-20643341D02*
X12189111Y-20605246D01*
X12189111Y-20605246D02*
X12179587Y-20557627D01*
X12179587Y-20557627D02*
X12170063Y-20529055D01*
X12170063Y-20529055D02*
X12160539Y-20510008D01*
X12160539Y-20510008D02*
X12141492Y-20481436D01*
X12141492Y-20481436D02*
X12131968Y-20471912D01*
X4895000Y-20804000D02*
X4895000Y-21004000D01*
X4795000Y-20904000D02*
X4995000Y-20904000D01*
X5236729Y-20795484D02*
X5360539Y-20795484D01*
X5360539Y-20795484D02*
X5293872Y-20871674D01*
X5293872Y-20871674D02*
X5322444Y-20871674D01*
X5322444Y-20871674D02*
X5341491Y-20881198D01*
X5341491Y-20881198D02*
X5351015Y-20890722D01*
X5351015Y-20890722D02*
X5360539Y-20909770D01*
X5360539Y-20909770D02*
X5360539Y-20957389D01*
X5360539Y-20957389D02*
X5351015Y-20976436D01*
X5351015Y-20976436D02*
X5341491Y-20985960D01*
X5341491Y-20985960D02*
X5322444Y-20995484D01*
X5322444Y-20995484D02*
X5265301Y-20995484D01*
X5265301Y-20995484D02*
X5246253Y-20985960D01*
X5246253Y-20985960D02*
X5236729Y-20976436D01*
X5446253Y-20976436D02*
X5455777Y-20985960D01*
X5455777Y-20985960D02*
X5446253Y-20995484D01*
X5446253Y-20995484D02*
X5436729Y-20985960D01*
X5436729Y-20985960D02*
X5446253Y-20976436D01*
X5446253Y-20976436D02*
X5446253Y-20995484D01*
X5579586Y-20795484D02*
X5598634Y-20795484D01*
X5598634Y-20795484D02*
X5617682Y-20805008D01*
X5617682Y-20805008D02*
X5627205Y-20814531D01*
X5627205Y-20814531D02*
X5636729Y-20833579D01*
X5636729Y-20833579D02*
X5646253Y-20871674D01*
X5646253Y-20871674D02*
X5646253Y-20919293D01*
X5646253Y-20919293D02*
X5636729Y-20957389D01*
X5636729Y-20957389D02*
X5627205Y-20976436D01*
X5627205Y-20976436D02*
X5617682Y-20985960D01*
X5617682Y-20985960D02*
X5598634Y-20995484D01*
X5598634Y-20995484D02*
X5579586Y-20995484D01*
X5579586Y-20995484D02*
X5560539Y-20985960D01*
X5560539Y-20985960D02*
X5551015Y-20976436D01*
X5551015Y-20976436D02*
X5541491Y-20957389D01*
X5541491Y-20957389D02*
X5531967Y-20919293D01*
X5531967Y-20919293D02*
X5531967Y-20871674D01*
X5531967Y-20871674D02*
X5541491Y-20833579D01*
X5541491Y-20833579D02*
X5551015Y-20814531D01*
X5551015Y-20814531D02*
X5560539Y-20805008D01*
X5560539Y-20805008D02*
X5579586Y-20795484D01*
X5817682Y-20862150D02*
X5817682Y-20995484D01*
X5770062Y-20785960D02*
X5722443Y-20928817D01*
X5722443Y-20928817D02*
X5846253Y-20928817D01*
X5951015Y-20881198D02*
X5931967Y-20871674D01*
X5931967Y-20871674D02*
X5922443Y-20862150D01*
X5922443Y-20862150D02*
X5912920Y-20843103D01*
X5912920Y-20843103D02*
X5912920Y-20833579D01*
X5912920Y-20833579D02*
X5922443Y-20814531D01*
X5922443Y-20814531D02*
X5931967Y-20805008D01*
X5931967Y-20805008D02*
X5951015Y-20795484D01*
X5951015Y-20795484D02*
X5989110Y-20795484D01*
X5989110Y-20795484D02*
X6008158Y-20805008D01*
X6008158Y-20805008D02*
X6017682Y-20814531D01*
X6017682Y-20814531D02*
X6027205Y-20833579D01*
X6027205Y-20833579D02*
X6027205Y-20843103D01*
X6027205Y-20843103D02*
X6017682Y-20862150D01*
X6017682Y-20862150D02*
X6008158Y-20871674D01*
X6008158Y-20871674D02*
X5989110Y-20881198D01*
X5989110Y-20881198D02*
X5951015Y-20881198D01*
X5951015Y-20881198D02*
X5931967Y-20890722D01*
X5931967Y-20890722D02*
X5922443Y-20900246D01*
X5922443Y-20900246D02*
X5912920Y-20919293D01*
X5912920Y-20919293D02*
X5912920Y-20957389D01*
X5912920Y-20957389D02*
X5922443Y-20976436D01*
X5922443Y-20976436D02*
X5931967Y-20985960D01*
X5931967Y-20985960D02*
X5951015Y-20995484D01*
X5951015Y-20995484D02*
X5989110Y-20995484D01*
X5989110Y-20995484D02*
X6008158Y-20985960D01*
X6008158Y-20985960D02*
X6017682Y-20976436D01*
X6017682Y-20976436D02*
X6027205Y-20957389D01*
X6027205Y-20957389D02*
X6027205Y-20919293D01*
X6027205Y-20919293D02*
X6017682Y-20900246D01*
X6017682Y-20900246D02*
X6008158Y-20890722D01*
X6008158Y-20890722D02*
X5989110Y-20881198D01*
X6112920Y-20995484D02*
X6112920Y-20862150D01*
X6112920Y-20881198D02*
X6122443Y-20871674D01*
X6122443Y-20871674D02*
X6141491Y-20862150D01*
X6141491Y-20862150D02*
X6170063Y-20862150D01*
X6170063Y-20862150D02*
X6189110Y-20871674D01*
X6189110Y-20871674D02*
X6198634Y-20890722D01*
X6198634Y-20890722D02*
X6198634Y-20995484D01*
X6198634Y-20890722D02*
X6208158Y-20871674D01*
X6208158Y-20871674D02*
X6227205Y-20862150D01*
X6227205Y-20862150D02*
X6255777Y-20862150D01*
X6255777Y-20862150D02*
X6274824Y-20871674D01*
X6274824Y-20871674D02*
X6284348Y-20890722D01*
X6284348Y-20890722D02*
X6284348Y-20995484D01*
X6379586Y-20995484D02*
X6379586Y-20862150D01*
X6379586Y-20881198D02*
X6389110Y-20871674D01*
X6389110Y-20871674D02*
X6408158Y-20862150D01*
X6408158Y-20862150D02*
X6436729Y-20862150D01*
X6436729Y-20862150D02*
X6455777Y-20871674D01*
X6455777Y-20871674D02*
X6465301Y-20890722D01*
X6465301Y-20890722D02*
X6465301Y-20995484D01*
X6465301Y-20890722D02*
X6474824Y-20871674D01*
X6474824Y-20871674D02*
X6493872Y-20862150D01*
X6493872Y-20862150D02*
X6522443Y-20862150D01*
X6522443Y-20862150D02*
X6541491Y-20871674D01*
X6541491Y-20871674D02*
X6551015Y-20890722D01*
X6551015Y-20890722D02*
X6551015Y-20995484D01*
X6941491Y-20785960D02*
X6770063Y-21043103D01*
X7198634Y-20795484D02*
X7217682Y-20795484D01*
X7217682Y-20795484D02*
X7236729Y-20805008D01*
X7236729Y-20805008D02*
X7246253Y-20814531D01*
X7246253Y-20814531D02*
X7255777Y-20833579D01*
X7255777Y-20833579D02*
X7265301Y-20871674D01*
X7265301Y-20871674D02*
X7265301Y-20919293D01*
X7265301Y-20919293D02*
X7255777Y-20957389D01*
X7255777Y-20957389D02*
X7246253Y-20976436D01*
X7246253Y-20976436D02*
X7236729Y-20985960D01*
X7236729Y-20985960D02*
X7217682Y-20995484D01*
X7217682Y-20995484D02*
X7198634Y-20995484D01*
X7198634Y-20995484D02*
X7179586Y-20985960D01*
X7179586Y-20985960D02*
X7170063Y-20976436D01*
X7170063Y-20976436D02*
X7160539Y-20957389D01*
X7160539Y-20957389D02*
X7151015Y-20919293D01*
X7151015Y-20919293D02*
X7151015Y-20871674D01*
X7151015Y-20871674D02*
X7160539Y-20833579D01*
X7160539Y-20833579D02*
X7170063Y-20814531D01*
X7170063Y-20814531D02*
X7179586Y-20805008D01*
X7179586Y-20805008D02*
X7198634Y-20795484D01*
X7351015Y-20976436D02*
X7360539Y-20985960D01*
X7360539Y-20985960D02*
X7351015Y-20995484D01*
X7351015Y-20995484D02*
X7341491Y-20985960D01*
X7341491Y-20985960D02*
X7351015Y-20976436D01*
X7351015Y-20976436D02*
X7351015Y-20995484D01*
X7551015Y-20995484D02*
X7436729Y-20995484D01*
X7493872Y-20995484D02*
X7493872Y-20795484D01*
X7493872Y-20795484D02*
X7474825Y-20824055D01*
X7474825Y-20824055D02*
X7455777Y-20843103D01*
X7455777Y-20843103D02*
X7436729Y-20852627D01*
X7627206Y-20814531D02*
X7636729Y-20805008D01*
X7636729Y-20805008D02*
X7655777Y-20795484D01*
X7655777Y-20795484D02*
X7703396Y-20795484D01*
X7703396Y-20795484D02*
X7722444Y-20805008D01*
X7722444Y-20805008D02*
X7731967Y-20814531D01*
X7731967Y-20814531D02*
X7741491Y-20833579D01*
X7741491Y-20833579D02*
X7741491Y-20852627D01*
X7741491Y-20852627D02*
X7731967Y-20881198D01*
X7731967Y-20881198D02*
X7617682Y-20995484D01*
X7617682Y-20995484D02*
X7741491Y-20995484D01*
X7865301Y-20795484D02*
X7884348Y-20795484D01*
X7884348Y-20795484D02*
X7903396Y-20805008D01*
X7903396Y-20805008D02*
X7912920Y-20814531D01*
X7912920Y-20814531D02*
X7922444Y-20833579D01*
X7922444Y-20833579D02*
X7931967Y-20871674D01*
X7931967Y-20871674D02*
X7931967Y-20919293D01*
X7931967Y-20919293D02*
X7922444Y-20957389D01*
X7922444Y-20957389D02*
X7912920Y-20976436D01*
X7912920Y-20976436D02*
X7903396Y-20985960D01*
X7903396Y-20985960D02*
X7884348Y-20995484D01*
X7884348Y-20995484D02*
X7865301Y-20995484D01*
X7865301Y-20995484D02*
X7846253Y-20985960D01*
X7846253Y-20985960D02*
X7836729Y-20976436D01*
X7836729Y-20976436D02*
X7827206Y-20957389D01*
X7827206Y-20957389D02*
X7817682Y-20919293D01*
X7817682Y-20919293D02*
X7817682Y-20871674D01*
X7817682Y-20871674D02*
X7827206Y-20833579D01*
X7827206Y-20833579D02*
X7836729Y-20814531D01*
X7836729Y-20814531D02*
X7846253Y-20805008D01*
X7846253Y-20805008D02*
X7865301Y-20795484D01*
X8055777Y-20795484D02*
X8074825Y-20795484D01*
X8074825Y-20795484D02*
X8093872Y-20805008D01*
X8093872Y-20805008D02*
X8103396Y-20814531D01*
X8103396Y-20814531D02*
X8112920Y-20833579D01*
X8112920Y-20833579D02*
X8122444Y-20871674D01*
X8122444Y-20871674D02*
X8122444Y-20919293D01*
X8122444Y-20919293D02*
X8112920Y-20957389D01*
X8112920Y-20957389D02*
X8103396Y-20976436D01*
X8103396Y-20976436D02*
X8093872Y-20985960D01*
X8093872Y-20985960D02*
X8074825Y-20995484D01*
X8074825Y-20995484D02*
X8055777Y-20995484D01*
X8055777Y-20995484D02*
X8036729Y-20985960D01*
X8036729Y-20985960D02*
X8027206Y-20976436D01*
X8027206Y-20976436D02*
X8017682Y-20957389D01*
X8017682Y-20957389D02*
X8008158Y-20919293D01*
X8008158Y-20919293D02*
X8008158Y-20871674D01*
X8008158Y-20871674D02*
X8017682Y-20833579D01*
X8017682Y-20833579D02*
X8027206Y-20814531D01*
X8027206Y-20814531D02*
X8036729Y-20805008D01*
X8036729Y-20805008D02*
X8055777Y-20795484D01*
X8198634Y-20795484D02*
X8198634Y-20833579D01*
X8274825Y-20795484D02*
X8274825Y-20833579D01*
X8570063Y-21071674D02*
X8560539Y-21062150D01*
X8560539Y-21062150D02*
X8541491Y-21033579D01*
X8541491Y-21033579D02*
X8531968Y-21014531D01*
X8531968Y-21014531D02*
X8522444Y-20985960D01*
X8522444Y-20985960D02*
X8512920Y-20938341D01*
X8512920Y-20938341D02*
X8512920Y-20900246D01*
X8512920Y-20900246D02*
X8522444Y-20852627D01*
X8522444Y-20852627D02*
X8531968Y-20824055D01*
X8531968Y-20824055D02*
X8541491Y-20805008D01*
X8541491Y-20805008D02*
X8560539Y-20776436D01*
X8560539Y-20776436D02*
X8570063Y-20766912D01*
X8674825Y-20881198D02*
X8655777Y-20871674D01*
X8655777Y-20871674D02*
X8646253Y-20862150D01*
X8646253Y-20862150D02*
X8636730Y-20843103D01*
X8636730Y-20843103D02*
X8636730Y-20833579D01*
X8636730Y-20833579D02*
X8646253Y-20814531D01*
X8646253Y-20814531D02*
X8655777Y-20805008D01*
X8655777Y-20805008D02*
X8674825Y-20795484D01*
X8674825Y-20795484D02*
X8712920Y-20795484D01*
X8712920Y-20795484D02*
X8731968Y-20805008D01*
X8731968Y-20805008D02*
X8741491Y-20814531D01*
X8741491Y-20814531D02*
X8751015Y-20833579D01*
X8751015Y-20833579D02*
X8751015Y-20843103D01*
X8751015Y-20843103D02*
X8741491Y-20862150D01*
X8741491Y-20862150D02*
X8731968Y-20871674D01*
X8731968Y-20871674D02*
X8712920Y-20881198D01*
X8712920Y-20881198D02*
X8674825Y-20881198D01*
X8674825Y-20881198D02*
X8655777Y-20890722D01*
X8655777Y-20890722D02*
X8646253Y-20900246D01*
X8646253Y-20900246D02*
X8636730Y-20919293D01*
X8636730Y-20919293D02*
X8636730Y-20957389D01*
X8636730Y-20957389D02*
X8646253Y-20976436D01*
X8646253Y-20976436D02*
X8655777Y-20985960D01*
X8655777Y-20985960D02*
X8674825Y-20995484D01*
X8674825Y-20995484D02*
X8712920Y-20995484D01*
X8712920Y-20995484D02*
X8731968Y-20985960D01*
X8731968Y-20985960D02*
X8741491Y-20976436D01*
X8741491Y-20976436D02*
X8751015Y-20957389D01*
X8751015Y-20957389D02*
X8751015Y-20919293D01*
X8751015Y-20919293D02*
X8741491Y-20900246D01*
X8741491Y-20900246D02*
X8731968Y-20890722D01*
X8731968Y-20890722D02*
X8712920Y-20881198D01*
X8989111Y-20995484D02*
X8989111Y-20795484D01*
X9074825Y-20995484D02*
X9074825Y-20890722D01*
X9074825Y-20890722D02*
X9065301Y-20871674D01*
X9065301Y-20871674D02*
X9046253Y-20862150D01*
X9046253Y-20862150D02*
X9017682Y-20862150D01*
X9017682Y-20862150D02*
X8998634Y-20871674D01*
X8998634Y-20871674D02*
X8989111Y-20881198D01*
X9198634Y-20995484D02*
X9179587Y-20985960D01*
X9179587Y-20985960D02*
X9170063Y-20976436D01*
X9170063Y-20976436D02*
X9160539Y-20957389D01*
X9160539Y-20957389D02*
X9160539Y-20900246D01*
X9160539Y-20900246D02*
X9170063Y-20881198D01*
X9170063Y-20881198D02*
X9179587Y-20871674D01*
X9179587Y-20871674D02*
X9198634Y-20862150D01*
X9198634Y-20862150D02*
X9227206Y-20862150D01*
X9227206Y-20862150D02*
X9246253Y-20871674D01*
X9246253Y-20871674D02*
X9255777Y-20881198D01*
X9255777Y-20881198D02*
X9265301Y-20900246D01*
X9265301Y-20900246D02*
X9265301Y-20957389D01*
X9265301Y-20957389D02*
X9255777Y-20976436D01*
X9255777Y-20976436D02*
X9246253Y-20985960D01*
X9246253Y-20985960D02*
X9227206Y-20995484D01*
X9227206Y-20995484D02*
X9198634Y-20995484D01*
X9379587Y-20995484D02*
X9360539Y-20985960D01*
X9360539Y-20985960D02*
X9351015Y-20966912D01*
X9351015Y-20966912D02*
X9351015Y-20795484D01*
X9531968Y-20985960D02*
X9512920Y-20995484D01*
X9512920Y-20995484D02*
X9474825Y-20995484D01*
X9474825Y-20995484D02*
X9455777Y-20985960D01*
X9455777Y-20985960D02*
X9446253Y-20966912D01*
X9446253Y-20966912D02*
X9446253Y-20890722D01*
X9446253Y-20890722D02*
X9455777Y-20871674D01*
X9455777Y-20871674D02*
X9474825Y-20862150D01*
X9474825Y-20862150D02*
X9512920Y-20862150D01*
X9512920Y-20862150D02*
X9531968Y-20871674D01*
X9531968Y-20871674D02*
X9541492Y-20890722D01*
X9541492Y-20890722D02*
X9541492Y-20909770D01*
X9541492Y-20909770D02*
X9446253Y-20928817D01*
X9617682Y-20985960D02*
X9636730Y-20995484D01*
X9636730Y-20995484D02*
X9674825Y-20995484D01*
X9674825Y-20995484D02*
X9693873Y-20985960D01*
X9693873Y-20985960D02*
X9703396Y-20966912D01*
X9703396Y-20966912D02*
X9703396Y-20957389D01*
X9703396Y-20957389D02*
X9693873Y-20938341D01*
X9693873Y-20938341D02*
X9674825Y-20928817D01*
X9674825Y-20928817D02*
X9646253Y-20928817D01*
X9646253Y-20928817D02*
X9627206Y-20919293D01*
X9627206Y-20919293D02*
X9617682Y-20900246D01*
X9617682Y-20900246D02*
X9617682Y-20890722D01*
X9617682Y-20890722D02*
X9627206Y-20871674D01*
X9627206Y-20871674D02*
X9646253Y-20862150D01*
X9646253Y-20862150D02*
X9674825Y-20862150D01*
X9674825Y-20862150D02*
X9693873Y-20871674D01*
X9770063Y-21071674D02*
X9779587Y-21062150D01*
X9779587Y-21062150D02*
X9798634Y-21033579D01*
X9798634Y-21033579D02*
X9808158Y-21014531D01*
X9808158Y-21014531D02*
X9817682Y-20985960D01*
X9817682Y-20985960D02*
X9827206Y-20938341D01*
X9827206Y-20938341D02*
X9827206Y-20900246D01*
X9827206Y-20900246D02*
X9817682Y-20852627D01*
X9817682Y-20852627D02*
X9808158Y-20824055D01*
X9808158Y-20824055D02*
X9798634Y-20805008D01*
X9798634Y-20805008D02*
X9779587Y-20776436D01*
X9779587Y-20776436D02*
X9770063Y-20766912D01*
X10131968Y-21071674D02*
X10122444Y-21062150D01*
X10122444Y-21062150D02*
X10103396Y-21033579D01*
X10103396Y-21033579D02*
X10093873Y-21014531D01*
X10093873Y-21014531D02*
X10084349Y-20985960D01*
X10084349Y-20985960D02*
X10074825Y-20938341D01*
X10074825Y-20938341D02*
X10074825Y-20900246D01*
X10074825Y-20900246D02*
X10084349Y-20852627D01*
X10084349Y-20852627D02*
X10093873Y-20824055D01*
X10093873Y-20824055D02*
X10103396Y-20805008D01*
X10103396Y-20805008D02*
X10122444Y-20776436D01*
X10122444Y-20776436D02*
X10131968Y-20766912D01*
X10208158Y-20862150D02*
X10208158Y-20995484D01*
X10208158Y-20881198D02*
X10217682Y-20871674D01*
X10217682Y-20871674D02*
X10236730Y-20862150D01*
X10236730Y-20862150D02*
X10265301Y-20862150D01*
X10265301Y-20862150D02*
X10284349Y-20871674D01*
X10284349Y-20871674D02*
X10293873Y-20890722D01*
X10293873Y-20890722D02*
X10293873Y-20995484D01*
X10417682Y-20995484D02*
X10398634Y-20985960D01*
X10398634Y-20985960D02*
X10389111Y-20976436D01*
X10389111Y-20976436D02*
X10379587Y-20957389D01*
X10379587Y-20957389D02*
X10379587Y-20900246D01*
X10379587Y-20900246D02*
X10389111Y-20881198D01*
X10389111Y-20881198D02*
X10398634Y-20871674D01*
X10398634Y-20871674D02*
X10417682Y-20862150D01*
X10417682Y-20862150D02*
X10446254Y-20862150D01*
X10446254Y-20862150D02*
X10465301Y-20871674D01*
X10465301Y-20871674D02*
X10474825Y-20881198D01*
X10474825Y-20881198D02*
X10484349Y-20900246D01*
X10484349Y-20900246D02*
X10484349Y-20957389D01*
X10484349Y-20957389D02*
X10474825Y-20976436D01*
X10474825Y-20976436D02*
X10465301Y-20985960D01*
X10465301Y-20985960D02*
X10446254Y-20995484D01*
X10446254Y-20995484D02*
X10417682Y-20995484D01*
X10541492Y-20862150D02*
X10617682Y-20862150D01*
X10570063Y-20795484D02*
X10570063Y-20966912D01*
X10570063Y-20966912D02*
X10579587Y-20985960D01*
X10579587Y-20985960D02*
X10598634Y-20995484D01*
X10598634Y-20995484D02*
X10617682Y-20995484D01*
X10836730Y-20862150D02*
X10836730Y-21062150D01*
X10836730Y-20871674D02*
X10855777Y-20862150D01*
X10855777Y-20862150D02*
X10893873Y-20862150D01*
X10893873Y-20862150D02*
X10912920Y-20871674D01*
X10912920Y-20871674D02*
X10922444Y-20881198D01*
X10922444Y-20881198D02*
X10931968Y-20900246D01*
X10931968Y-20900246D02*
X10931968Y-20957389D01*
X10931968Y-20957389D02*
X10922444Y-20976436D01*
X10922444Y-20976436D02*
X10912920Y-20985960D01*
X10912920Y-20985960D02*
X10893873Y-20995484D01*
X10893873Y-20995484D02*
X10855777Y-20995484D01*
X10855777Y-20995484D02*
X10836730Y-20985960D01*
X11046254Y-20995484D02*
X11027206Y-20985960D01*
X11027206Y-20985960D02*
X11017682Y-20966912D01*
X11017682Y-20966912D02*
X11017682Y-20795484D01*
X11208158Y-20995484D02*
X11208158Y-20890722D01*
X11208158Y-20890722D02*
X11198634Y-20871674D01*
X11198634Y-20871674D02*
X11179587Y-20862150D01*
X11179587Y-20862150D02*
X11141492Y-20862150D01*
X11141492Y-20862150D02*
X11122444Y-20871674D01*
X11208158Y-20985960D02*
X11189111Y-20995484D01*
X11189111Y-20995484D02*
X11141492Y-20995484D01*
X11141492Y-20995484D02*
X11122444Y-20985960D01*
X11122444Y-20985960D02*
X11112920Y-20966912D01*
X11112920Y-20966912D02*
X11112920Y-20947865D01*
X11112920Y-20947865D02*
X11122444Y-20928817D01*
X11122444Y-20928817D02*
X11141492Y-20919293D01*
X11141492Y-20919293D02*
X11189111Y-20919293D01*
X11189111Y-20919293D02*
X11208158Y-20909770D01*
X11274825Y-20862150D02*
X11351015Y-20862150D01*
X11303396Y-20795484D02*
X11303396Y-20966912D01*
X11303396Y-20966912D02*
X11312920Y-20985960D01*
X11312920Y-20985960D02*
X11331968Y-20995484D01*
X11331968Y-20995484D02*
X11351015Y-20995484D01*
X11493873Y-20985960D02*
X11474825Y-20995484D01*
X11474825Y-20995484D02*
X11436730Y-20995484D01*
X11436730Y-20995484D02*
X11417682Y-20985960D01*
X11417682Y-20985960D02*
X11408158Y-20966912D01*
X11408158Y-20966912D02*
X11408158Y-20890722D01*
X11408158Y-20890722D02*
X11417682Y-20871674D01*
X11417682Y-20871674D02*
X11436730Y-20862150D01*
X11436730Y-20862150D02*
X11474825Y-20862150D01*
X11474825Y-20862150D02*
X11493873Y-20871674D01*
X11493873Y-20871674D02*
X11503396Y-20890722D01*
X11503396Y-20890722D02*
X11503396Y-20909770D01*
X11503396Y-20909770D02*
X11408158Y-20928817D01*
X11674825Y-20995484D02*
X11674825Y-20795484D01*
X11674825Y-20985960D02*
X11655777Y-20995484D01*
X11655777Y-20995484D02*
X11617682Y-20995484D01*
X11617682Y-20995484D02*
X11598634Y-20985960D01*
X11598634Y-20985960D02*
X11589111Y-20976436D01*
X11589111Y-20976436D02*
X11579587Y-20957389D01*
X11579587Y-20957389D02*
X11579587Y-20900246D01*
X11579587Y-20900246D02*
X11589111Y-20881198D01*
X11589111Y-20881198D02*
X11598634Y-20871674D01*
X11598634Y-20871674D02*
X11617682Y-20862150D01*
X11617682Y-20862150D02*
X11655777Y-20862150D01*
X11655777Y-20862150D02*
X11674825Y-20871674D01*
X11751015Y-21071674D02*
X11760539Y-21062150D01*
X11760539Y-21062150D02*
X11779587Y-21033579D01*
X11779587Y-21033579D02*
X11789111Y-21014531D01*
X11789111Y-21014531D02*
X11798634Y-20985960D01*
X11798634Y-20985960D02*
X11808158Y-20938341D01*
X11808158Y-20938341D02*
X11808158Y-20900246D01*
X11808158Y-20900246D02*
X11798634Y-20852627D01*
X11798634Y-20852627D02*
X11789111Y-20824055D01*
X11789111Y-20824055D02*
X11779587Y-20805008D01*
X11779587Y-20805008D02*
X11760539Y-20776436D01*
X11760539Y-20776436D02*
X11751015Y-20766912D01*
X4965711Y-21294711D02*
X4965711Y-21153289D01*
X4824289Y-21153289D01*
X4824289Y-21294711D01*
X4965711Y-21294711D01*
X5236729Y-21115484D02*
X5360539Y-21115484D01*
X5360539Y-21115484D02*
X5293872Y-21191674D01*
X5293872Y-21191674D02*
X5322444Y-21191674D01*
X5322444Y-21191674D02*
X5341491Y-21201198D01*
X5341491Y-21201198D02*
X5351015Y-21210722D01*
X5351015Y-21210722D02*
X5360539Y-21229770D01*
X5360539Y-21229770D02*
X5360539Y-21277389D01*
X5360539Y-21277389D02*
X5351015Y-21296436D01*
X5351015Y-21296436D02*
X5341491Y-21305960D01*
X5341491Y-21305960D02*
X5322444Y-21315484D01*
X5322444Y-21315484D02*
X5265301Y-21315484D01*
X5265301Y-21315484D02*
X5246253Y-21305960D01*
X5246253Y-21305960D02*
X5236729Y-21296436D01*
X5446253Y-21296436D02*
X5455777Y-21305960D01*
X5455777Y-21305960D02*
X5446253Y-21315484D01*
X5446253Y-21315484D02*
X5436729Y-21305960D01*
X5436729Y-21305960D02*
X5446253Y-21296436D01*
X5446253Y-21296436D02*
X5446253Y-21315484D01*
X5636729Y-21115484D02*
X5541491Y-21115484D01*
X5541491Y-21115484D02*
X5531967Y-21210722D01*
X5531967Y-21210722D02*
X5541491Y-21201198D01*
X5541491Y-21201198D02*
X5560539Y-21191674D01*
X5560539Y-21191674D02*
X5608158Y-21191674D01*
X5608158Y-21191674D02*
X5627205Y-21201198D01*
X5627205Y-21201198D02*
X5636729Y-21210722D01*
X5636729Y-21210722D02*
X5646253Y-21229770D01*
X5646253Y-21229770D02*
X5646253Y-21277389D01*
X5646253Y-21277389D02*
X5636729Y-21296436D01*
X5636729Y-21296436D02*
X5627205Y-21305960D01*
X5627205Y-21305960D02*
X5608158Y-21315484D01*
X5608158Y-21315484D02*
X5560539Y-21315484D01*
X5560539Y-21315484D02*
X5541491Y-21305960D01*
X5541491Y-21305960D02*
X5531967Y-21296436D01*
X5770062Y-21115484D02*
X5789110Y-21115484D01*
X5789110Y-21115484D02*
X5808158Y-21125008D01*
X5808158Y-21125008D02*
X5817682Y-21134531D01*
X5817682Y-21134531D02*
X5827205Y-21153579D01*
X5827205Y-21153579D02*
X5836729Y-21191674D01*
X5836729Y-21191674D02*
X5836729Y-21239293D01*
X5836729Y-21239293D02*
X5827205Y-21277389D01*
X5827205Y-21277389D02*
X5817682Y-21296436D01*
X5817682Y-21296436D02*
X5808158Y-21305960D01*
X5808158Y-21305960D02*
X5789110Y-21315484D01*
X5789110Y-21315484D02*
X5770062Y-21315484D01*
X5770062Y-21315484D02*
X5751015Y-21305960D01*
X5751015Y-21305960D02*
X5741491Y-21296436D01*
X5741491Y-21296436D02*
X5731967Y-21277389D01*
X5731967Y-21277389D02*
X5722443Y-21239293D01*
X5722443Y-21239293D02*
X5722443Y-21191674D01*
X5722443Y-21191674D02*
X5731967Y-21153579D01*
X5731967Y-21153579D02*
X5741491Y-21134531D01*
X5741491Y-21134531D02*
X5751015Y-21125008D01*
X5751015Y-21125008D02*
X5770062Y-21115484D01*
X5960539Y-21115484D02*
X5979586Y-21115484D01*
X5979586Y-21115484D02*
X5998634Y-21125008D01*
X5998634Y-21125008D02*
X6008158Y-21134531D01*
X6008158Y-21134531D02*
X6017682Y-21153579D01*
X6017682Y-21153579D02*
X6027205Y-21191674D01*
X6027205Y-21191674D02*
X6027205Y-21239293D01*
X6027205Y-21239293D02*
X6017682Y-21277389D01*
X6017682Y-21277389D02*
X6008158Y-21296436D01*
X6008158Y-21296436D02*
X5998634Y-21305960D01*
X5998634Y-21305960D02*
X5979586Y-21315484D01*
X5979586Y-21315484D02*
X5960539Y-21315484D01*
X5960539Y-21315484D02*
X5941491Y-21305960D01*
X5941491Y-21305960D02*
X5931967Y-21296436D01*
X5931967Y-21296436D02*
X5922443Y-21277389D01*
X5922443Y-21277389D02*
X5912920Y-21239293D01*
X5912920Y-21239293D02*
X5912920Y-21191674D01*
X5912920Y-21191674D02*
X5922443Y-21153579D01*
X5922443Y-21153579D02*
X5931967Y-21134531D01*
X5931967Y-21134531D02*
X5941491Y-21125008D01*
X5941491Y-21125008D02*
X5960539Y-21115484D01*
X6112920Y-21315484D02*
X6112920Y-21182150D01*
X6112920Y-21201198D02*
X6122443Y-21191674D01*
X6122443Y-21191674D02*
X6141491Y-21182150D01*
X6141491Y-21182150D02*
X6170063Y-21182150D01*
X6170063Y-21182150D02*
X6189110Y-21191674D01*
X6189110Y-21191674D02*
X6198634Y-21210722D01*
X6198634Y-21210722D02*
X6198634Y-21315484D01*
X6198634Y-21210722D02*
X6208158Y-21191674D01*
X6208158Y-21191674D02*
X6227205Y-21182150D01*
X6227205Y-21182150D02*
X6255777Y-21182150D01*
X6255777Y-21182150D02*
X6274824Y-21191674D01*
X6274824Y-21191674D02*
X6284348Y-21210722D01*
X6284348Y-21210722D02*
X6284348Y-21315484D01*
X6379586Y-21315484D02*
X6379586Y-21182150D01*
X6379586Y-21201198D02*
X6389110Y-21191674D01*
X6389110Y-21191674D02*
X6408158Y-21182150D01*
X6408158Y-21182150D02*
X6436729Y-21182150D01*
X6436729Y-21182150D02*
X6455777Y-21191674D01*
X6455777Y-21191674D02*
X6465301Y-21210722D01*
X6465301Y-21210722D02*
X6465301Y-21315484D01*
X6465301Y-21210722D02*
X6474824Y-21191674D01*
X6474824Y-21191674D02*
X6493872Y-21182150D01*
X6493872Y-21182150D02*
X6522443Y-21182150D01*
X6522443Y-21182150D02*
X6541491Y-21191674D01*
X6541491Y-21191674D02*
X6551015Y-21210722D01*
X6551015Y-21210722D02*
X6551015Y-21315484D01*
X6941491Y-21105960D02*
X6770063Y-21363103D01*
X7198634Y-21115484D02*
X7217682Y-21115484D01*
X7217682Y-21115484D02*
X7236729Y-21125008D01*
X7236729Y-21125008D02*
X7246253Y-21134531D01*
X7246253Y-21134531D02*
X7255777Y-21153579D01*
X7255777Y-21153579D02*
X7265301Y-21191674D01*
X7265301Y-21191674D02*
X7265301Y-21239293D01*
X7265301Y-21239293D02*
X7255777Y-21277389D01*
X7255777Y-21277389D02*
X7246253Y-21296436D01*
X7246253Y-21296436D02*
X7236729Y-21305960D01*
X7236729Y-21305960D02*
X7217682Y-21315484D01*
X7217682Y-21315484D02*
X7198634Y-21315484D01*
X7198634Y-21315484D02*
X7179586Y-21305960D01*
X7179586Y-21305960D02*
X7170063Y-21296436D01*
X7170063Y-21296436D02*
X7160539Y-21277389D01*
X7160539Y-21277389D02*
X7151015Y-21239293D01*
X7151015Y-21239293D02*
X7151015Y-21191674D01*
X7151015Y-21191674D02*
X7160539Y-21153579D01*
X7160539Y-21153579D02*
X7170063Y-21134531D01*
X7170063Y-21134531D02*
X7179586Y-21125008D01*
X7179586Y-21125008D02*
X7198634Y-21115484D01*
X7351015Y-21296436D02*
X7360539Y-21305960D01*
X7360539Y-21305960D02*
X7351015Y-21315484D01*
X7351015Y-21315484D02*
X7341491Y-21305960D01*
X7341491Y-21305960D02*
X7351015Y-21296436D01*
X7351015Y-21296436D02*
X7351015Y-21315484D01*
X7551015Y-21315484D02*
X7436729Y-21315484D01*
X7493872Y-21315484D02*
X7493872Y-21115484D01*
X7493872Y-21115484D02*
X7474825Y-21144055D01*
X7474825Y-21144055D02*
X7455777Y-21163103D01*
X7455777Y-21163103D02*
X7436729Y-21172627D01*
X7617682Y-21115484D02*
X7741491Y-21115484D01*
X7741491Y-21115484D02*
X7674825Y-21191674D01*
X7674825Y-21191674D02*
X7703396Y-21191674D01*
X7703396Y-21191674D02*
X7722444Y-21201198D01*
X7722444Y-21201198D02*
X7731967Y-21210722D01*
X7731967Y-21210722D02*
X7741491Y-21229770D01*
X7741491Y-21229770D02*
X7741491Y-21277389D01*
X7741491Y-21277389D02*
X7731967Y-21296436D01*
X7731967Y-21296436D02*
X7722444Y-21305960D01*
X7722444Y-21305960D02*
X7703396Y-21315484D01*
X7703396Y-21315484D02*
X7646253Y-21315484D01*
X7646253Y-21315484D02*
X7627206Y-21305960D01*
X7627206Y-21305960D02*
X7617682Y-21296436D01*
X7808158Y-21115484D02*
X7941491Y-21115484D01*
X7941491Y-21115484D02*
X7855777Y-21315484D01*
X8046253Y-21201198D02*
X8027206Y-21191674D01*
X8027206Y-21191674D02*
X8017682Y-21182150D01*
X8017682Y-21182150D02*
X8008158Y-21163103D01*
X8008158Y-21163103D02*
X8008158Y-21153579D01*
X8008158Y-21153579D02*
X8017682Y-21134531D01*
X8017682Y-21134531D02*
X8027206Y-21125008D01*
X8027206Y-21125008D02*
X8046253Y-21115484D01*
X8046253Y-21115484D02*
X8084348Y-21115484D01*
X8084348Y-21115484D02*
X8103396Y-21125008D01*
X8103396Y-21125008D02*
X8112920Y-21134531D01*
X8112920Y-21134531D02*
X8122444Y-21153579D01*
X8122444Y-21153579D02*
X8122444Y-21163103D01*
X8122444Y-21163103D02*
X8112920Y-21182150D01*
X8112920Y-21182150D02*
X8103396Y-21191674D01*
X8103396Y-21191674D02*
X8084348Y-21201198D01*
X8084348Y-21201198D02*
X8046253Y-21201198D01*
X8046253Y-21201198D02*
X8027206Y-21210722D01*
X8027206Y-21210722D02*
X8017682Y-21220246D01*
X8017682Y-21220246D02*
X8008158Y-21239293D01*
X8008158Y-21239293D02*
X8008158Y-21277389D01*
X8008158Y-21277389D02*
X8017682Y-21296436D01*
X8017682Y-21296436D02*
X8027206Y-21305960D01*
X8027206Y-21305960D02*
X8046253Y-21315484D01*
X8046253Y-21315484D02*
X8084348Y-21315484D01*
X8084348Y-21315484D02*
X8103396Y-21305960D01*
X8103396Y-21305960D02*
X8112920Y-21296436D01*
X8112920Y-21296436D02*
X8122444Y-21277389D01*
X8122444Y-21277389D02*
X8122444Y-21239293D01*
X8122444Y-21239293D02*
X8112920Y-21220246D01*
X8112920Y-21220246D02*
X8103396Y-21210722D01*
X8103396Y-21210722D02*
X8084348Y-21201198D01*
X8198634Y-21115484D02*
X8198634Y-21153579D01*
X8274825Y-21115484D02*
X8274825Y-21153579D01*
X8570063Y-21391674D02*
X8560539Y-21382150D01*
X8560539Y-21382150D02*
X8541491Y-21353579D01*
X8541491Y-21353579D02*
X8531968Y-21334531D01*
X8531968Y-21334531D02*
X8522444Y-21305960D01*
X8522444Y-21305960D02*
X8512920Y-21258341D01*
X8512920Y-21258341D02*
X8512920Y-21220246D01*
X8512920Y-21220246D02*
X8522444Y-21172627D01*
X8522444Y-21172627D02*
X8531968Y-21144055D01*
X8531968Y-21144055D02*
X8541491Y-21125008D01*
X8541491Y-21125008D02*
X8560539Y-21096436D01*
X8560539Y-21096436D02*
X8570063Y-21086912D01*
X8751015Y-21315484D02*
X8636730Y-21315484D01*
X8693872Y-21315484D02*
X8693872Y-21115484D01*
X8693872Y-21115484D02*
X8674825Y-21144055D01*
X8674825Y-21144055D02*
X8655777Y-21163103D01*
X8655777Y-21163103D02*
X8636730Y-21172627D01*
X8989111Y-21315484D02*
X8989111Y-21115484D01*
X9074825Y-21315484D02*
X9074825Y-21210722D01*
X9074825Y-21210722D02*
X9065301Y-21191674D01*
X9065301Y-21191674D02*
X9046253Y-21182150D01*
X9046253Y-21182150D02*
X9017682Y-21182150D01*
X9017682Y-21182150D02*
X8998634Y-21191674D01*
X8998634Y-21191674D02*
X8989111Y-21201198D01*
X9198634Y-21315484D02*
X9179587Y-21305960D01*
X9179587Y-21305960D02*
X9170063Y-21296436D01*
X9170063Y-21296436D02*
X9160539Y-21277389D01*
X9160539Y-21277389D02*
X9160539Y-21220246D01*
X9160539Y-21220246D02*
X9170063Y-21201198D01*
X9170063Y-21201198D02*
X9179587Y-21191674D01*
X9179587Y-21191674D02*
X9198634Y-21182150D01*
X9198634Y-21182150D02*
X9227206Y-21182150D01*
X9227206Y-21182150D02*
X9246253Y-21191674D01*
X9246253Y-21191674D02*
X9255777Y-21201198D01*
X9255777Y-21201198D02*
X9265301Y-21220246D01*
X9265301Y-21220246D02*
X9265301Y-21277389D01*
X9265301Y-21277389D02*
X9255777Y-21296436D01*
X9255777Y-21296436D02*
X9246253Y-21305960D01*
X9246253Y-21305960D02*
X9227206Y-21315484D01*
X9227206Y-21315484D02*
X9198634Y-21315484D01*
X9379587Y-21315484D02*
X9360539Y-21305960D01*
X9360539Y-21305960D02*
X9351015Y-21286912D01*
X9351015Y-21286912D02*
X9351015Y-21115484D01*
X9531968Y-21305960D02*
X9512920Y-21315484D01*
X9512920Y-21315484D02*
X9474825Y-21315484D01*
X9474825Y-21315484D02*
X9455777Y-21305960D01*
X9455777Y-21305960D02*
X9446253Y-21286912D01*
X9446253Y-21286912D02*
X9446253Y-21210722D01*
X9446253Y-21210722D02*
X9455777Y-21191674D01*
X9455777Y-21191674D02*
X9474825Y-21182150D01*
X9474825Y-21182150D02*
X9512920Y-21182150D01*
X9512920Y-21182150D02*
X9531968Y-21191674D01*
X9531968Y-21191674D02*
X9541492Y-21210722D01*
X9541492Y-21210722D02*
X9541492Y-21229770D01*
X9541492Y-21229770D02*
X9446253Y-21248817D01*
X9608158Y-21391674D02*
X9617682Y-21382150D01*
X9617682Y-21382150D02*
X9636730Y-21353579D01*
X9636730Y-21353579D02*
X9646253Y-21334531D01*
X9646253Y-21334531D02*
X9655777Y-21305960D01*
X9655777Y-21305960D02*
X9665301Y-21258341D01*
X9665301Y-21258341D02*
X9665301Y-21220246D01*
X9665301Y-21220246D02*
X9655777Y-21172627D01*
X9655777Y-21172627D02*
X9646253Y-21144055D01*
X9646253Y-21144055D02*
X9636730Y-21125008D01*
X9636730Y-21125008D02*
X9617682Y-21096436D01*
X9617682Y-21096436D02*
X9608158Y-21086912D01*
X9970063Y-21391674D02*
X9960539Y-21382150D01*
X9960539Y-21382150D02*
X9941492Y-21353579D01*
X9941492Y-21353579D02*
X9931968Y-21334531D01*
X9931968Y-21334531D02*
X9922444Y-21305960D01*
X9922444Y-21305960D02*
X9912920Y-21258341D01*
X9912920Y-21258341D02*
X9912920Y-21220246D01*
X9912920Y-21220246D02*
X9922444Y-21172627D01*
X9922444Y-21172627D02*
X9931968Y-21144055D01*
X9931968Y-21144055D02*
X9941492Y-21125008D01*
X9941492Y-21125008D02*
X9960539Y-21096436D01*
X9960539Y-21096436D02*
X9970063Y-21086912D01*
X10046253Y-21182150D02*
X10046253Y-21315484D01*
X10046253Y-21201198D02*
X10055777Y-21191674D01*
X10055777Y-21191674D02*
X10074825Y-21182150D01*
X10074825Y-21182150D02*
X10103396Y-21182150D01*
X10103396Y-21182150D02*
X10122444Y-21191674D01*
X10122444Y-21191674D02*
X10131968Y-21210722D01*
X10131968Y-21210722D02*
X10131968Y-21315484D01*
X10255777Y-21315484D02*
X10236730Y-21305960D01*
X10236730Y-21305960D02*
X10227206Y-21296436D01*
X10227206Y-21296436D02*
X10217682Y-21277389D01*
X10217682Y-21277389D02*
X10217682Y-21220246D01*
X10217682Y-21220246D02*
X10227206Y-21201198D01*
X10227206Y-21201198D02*
X10236730Y-21191674D01*
X10236730Y-21191674D02*
X10255777Y-21182150D01*
X10255777Y-21182150D02*
X10284349Y-21182150D01*
X10284349Y-21182150D02*
X10303396Y-21191674D01*
X10303396Y-21191674D02*
X10312920Y-21201198D01*
X10312920Y-21201198D02*
X10322444Y-21220246D01*
X10322444Y-21220246D02*
X10322444Y-21277389D01*
X10322444Y-21277389D02*
X10312920Y-21296436D01*
X10312920Y-21296436D02*
X10303396Y-21305960D01*
X10303396Y-21305960D02*
X10284349Y-21315484D01*
X10284349Y-21315484D02*
X10255777Y-21315484D01*
X10379587Y-21182150D02*
X10455777Y-21182150D01*
X10408158Y-21115484D02*
X10408158Y-21286912D01*
X10408158Y-21286912D02*
X10417682Y-21305960D01*
X10417682Y-21305960D02*
X10436730Y-21315484D01*
X10436730Y-21315484D02*
X10455777Y-21315484D01*
X10674825Y-21182150D02*
X10674825Y-21382150D01*
X10674825Y-21191674D02*
X10693873Y-21182150D01*
X10693873Y-21182150D02*
X10731968Y-21182150D01*
X10731968Y-21182150D02*
X10751015Y-21191674D01*
X10751015Y-21191674D02*
X10760539Y-21201198D01*
X10760539Y-21201198D02*
X10770063Y-21220246D01*
X10770063Y-21220246D02*
X10770063Y-21277389D01*
X10770063Y-21277389D02*
X10760539Y-21296436D01*
X10760539Y-21296436D02*
X10751015Y-21305960D01*
X10751015Y-21305960D02*
X10731968Y-21315484D01*
X10731968Y-21315484D02*
X10693873Y-21315484D01*
X10693873Y-21315484D02*
X10674825Y-21305960D01*
X10884349Y-21315484D02*
X10865301Y-21305960D01*
X10865301Y-21305960D02*
X10855777Y-21286912D01*
X10855777Y-21286912D02*
X10855777Y-21115484D01*
X11046254Y-21315484D02*
X11046254Y-21210722D01*
X11046254Y-21210722D02*
X11036730Y-21191674D01*
X11036730Y-21191674D02*
X11017682Y-21182150D01*
X11017682Y-21182150D02*
X10979587Y-21182150D01*
X10979587Y-21182150D02*
X10960539Y-21191674D01*
X11046254Y-21305960D02*
X11027206Y-21315484D01*
X11027206Y-21315484D02*
X10979587Y-21315484D01*
X10979587Y-21315484D02*
X10960539Y-21305960D01*
X10960539Y-21305960D02*
X10951015Y-21286912D01*
X10951015Y-21286912D02*
X10951015Y-21267865D01*
X10951015Y-21267865D02*
X10960539Y-21248817D01*
X10960539Y-21248817D02*
X10979587Y-21239293D01*
X10979587Y-21239293D02*
X11027206Y-21239293D01*
X11027206Y-21239293D02*
X11046254Y-21229770D01*
X11112920Y-21182150D02*
X11189111Y-21182150D01*
X11141492Y-21115484D02*
X11141492Y-21286912D01*
X11141492Y-21286912D02*
X11151015Y-21305960D01*
X11151015Y-21305960D02*
X11170063Y-21315484D01*
X11170063Y-21315484D02*
X11189111Y-21315484D01*
X11331968Y-21305960D02*
X11312920Y-21315484D01*
X11312920Y-21315484D02*
X11274825Y-21315484D01*
X11274825Y-21315484D02*
X11255777Y-21305960D01*
X11255777Y-21305960D02*
X11246253Y-21286912D01*
X11246253Y-21286912D02*
X11246253Y-21210722D01*
X11246253Y-21210722D02*
X11255777Y-21191674D01*
X11255777Y-21191674D02*
X11274825Y-21182150D01*
X11274825Y-21182150D02*
X11312920Y-21182150D01*
X11312920Y-21182150D02*
X11331968Y-21191674D01*
X11331968Y-21191674D02*
X11341492Y-21210722D01*
X11341492Y-21210722D02*
X11341492Y-21229770D01*
X11341492Y-21229770D02*
X11246253Y-21248817D01*
X11512920Y-21315484D02*
X11512920Y-21115484D01*
X11512920Y-21305960D02*
X11493873Y-21315484D01*
X11493873Y-21315484D02*
X11455777Y-21315484D01*
X11455777Y-21315484D02*
X11436730Y-21305960D01*
X11436730Y-21305960D02*
X11427206Y-21296436D01*
X11427206Y-21296436D02*
X11417682Y-21277389D01*
X11417682Y-21277389D02*
X11417682Y-21220246D01*
X11417682Y-21220246D02*
X11427206Y-21201198D01*
X11427206Y-21201198D02*
X11436730Y-21191674D01*
X11436730Y-21191674D02*
X11455777Y-21182150D01*
X11455777Y-21182150D02*
X11493873Y-21182150D01*
X11493873Y-21182150D02*
X11512920Y-21191674D01*
X11589111Y-21391674D02*
X11598634Y-21382150D01*
X11598634Y-21382150D02*
X11617682Y-21353579D01*
X11617682Y-21353579D02*
X11627206Y-21334531D01*
X11627206Y-21334531D02*
X11636730Y-21305960D01*
X11636730Y-21305960D02*
X11646253Y-21258341D01*
X11646253Y-21258341D02*
X11646253Y-21220246D01*
X11646253Y-21220246D02*
X11636730Y-21172627D01*
X11636730Y-21172627D02*
X11627206Y-21144055D01*
X11627206Y-21144055D02*
X11617682Y-21125008D01*
X11617682Y-21125008D02*
X11598634Y-21096436D01*
X11598634Y-21096436D02*
X11589111Y-21086912D01*
X4895000Y-21644000D02*
X4995000Y-21544000D01*
X4895000Y-21444000D01*
X4795000Y-21544000D01*
X4895000Y-21644000D01*
X5236729Y-21435484D02*
X5360539Y-21435484D01*
X5360539Y-21435484D02*
X5293872Y-21511674D01*
X5293872Y-21511674D02*
X5322444Y-21511674D01*
X5322444Y-21511674D02*
X5341491Y-21521198D01*
X5341491Y-21521198D02*
X5351015Y-21530722D01*
X5351015Y-21530722D02*
X5360539Y-21549770D01*
X5360539Y-21549770D02*
X5360539Y-21597389D01*
X5360539Y-21597389D02*
X5351015Y-21616436D01*
X5351015Y-21616436D02*
X5341491Y-21625960D01*
X5341491Y-21625960D02*
X5322444Y-21635484D01*
X5322444Y-21635484D02*
X5265301Y-21635484D01*
X5265301Y-21635484D02*
X5246253Y-21625960D01*
X5246253Y-21625960D02*
X5236729Y-21616436D01*
X5446253Y-21616436D02*
X5455777Y-21625960D01*
X5455777Y-21625960D02*
X5446253Y-21635484D01*
X5446253Y-21635484D02*
X5436729Y-21625960D01*
X5436729Y-21625960D02*
X5446253Y-21616436D01*
X5446253Y-21616436D02*
X5446253Y-21635484D01*
X5551015Y-21635484D02*
X5589110Y-21635484D01*
X5589110Y-21635484D02*
X5608158Y-21625960D01*
X5608158Y-21625960D02*
X5617682Y-21616436D01*
X5617682Y-21616436D02*
X5636729Y-21587865D01*
X5636729Y-21587865D02*
X5646253Y-21549770D01*
X5646253Y-21549770D02*
X5646253Y-21473579D01*
X5646253Y-21473579D02*
X5636729Y-21454531D01*
X5636729Y-21454531D02*
X5627205Y-21445008D01*
X5627205Y-21445008D02*
X5608158Y-21435484D01*
X5608158Y-21435484D02*
X5570063Y-21435484D01*
X5570063Y-21435484D02*
X5551015Y-21445008D01*
X5551015Y-21445008D02*
X5541491Y-21454531D01*
X5541491Y-21454531D02*
X5531967Y-21473579D01*
X5531967Y-21473579D02*
X5531967Y-21521198D01*
X5531967Y-21521198D02*
X5541491Y-21540246D01*
X5541491Y-21540246D02*
X5551015Y-21549770D01*
X5551015Y-21549770D02*
X5570063Y-21559293D01*
X5570063Y-21559293D02*
X5608158Y-21559293D01*
X5608158Y-21559293D02*
X5627205Y-21549770D01*
X5627205Y-21549770D02*
X5636729Y-21540246D01*
X5636729Y-21540246D02*
X5646253Y-21521198D01*
X5760539Y-21521198D02*
X5741491Y-21511674D01*
X5741491Y-21511674D02*
X5731967Y-21502150D01*
X5731967Y-21502150D02*
X5722443Y-21483103D01*
X5722443Y-21483103D02*
X5722443Y-21473579D01*
X5722443Y-21473579D02*
X5731967Y-21454531D01*
X5731967Y-21454531D02*
X5741491Y-21445008D01*
X5741491Y-21445008D02*
X5760539Y-21435484D01*
X5760539Y-21435484D02*
X5798634Y-21435484D01*
X5798634Y-21435484D02*
X5817682Y-21445008D01*
X5817682Y-21445008D02*
X5827205Y-21454531D01*
X5827205Y-21454531D02*
X5836729Y-21473579D01*
X5836729Y-21473579D02*
X5836729Y-21483103D01*
X5836729Y-21483103D02*
X5827205Y-21502150D01*
X5827205Y-21502150D02*
X5817682Y-21511674D01*
X5817682Y-21511674D02*
X5798634Y-21521198D01*
X5798634Y-21521198D02*
X5760539Y-21521198D01*
X5760539Y-21521198D02*
X5741491Y-21530722D01*
X5741491Y-21530722D02*
X5731967Y-21540246D01*
X5731967Y-21540246D02*
X5722443Y-21559293D01*
X5722443Y-21559293D02*
X5722443Y-21597389D01*
X5722443Y-21597389D02*
X5731967Y-21616436D01*
X5731967Y-21616436D02*
X5741491Y-21625960D01*
X5741491Y-21625960D02*
X5760539Y-21635484D01*
X5760539Y-21635484D02*
X5798634Y-21635484D01*
X5798634Y-21635484D02*
X5817682Y-21625960D01*
X5817682Y-21625960D02*
X5827205Y-21616436D01*
X5827205Y-21616436D02*
X5836729Y-21597389D01*
X5836729Y-21597389D02*
X5836729Y-21559293D01*
X5836729Y-21559293D02*
X5827205Y-21540246D01*
X5827205Y-21540246D02*
X5817682Y-21530722D01*
X5817682Y-21530722D02*
X5798634Y-21521198D01*
X5951015Y-21521198D02*
X5931967Y-21511674D01*
X5931967Y-21511674D02*
X5922443Y-21502150D01*
X5922443Y-21502150D02*
X5912920Y-21483103D01*
X5912920Y-21483103D02*
X5912920Y-21473579D01*
X5912920Y-21473579D02*
X5922443Y-21454531D01*
X5922443Y-21454531D02*
X5931967Y-21445008D01*
X5931967Y-21445008D02*
X5951015Y-21435484D01*
X5951015Y-21435484D02*
X5989110Y-21435484D01*
X5989110Y-21435484D02*
X6008158Y-21445008D01*
X6008158Y-21445008D02*
X6017682Y-21454531D01*
X6017682Y-21454531D02*
X6027205Y-21473579D01*
X6027205Y-21473579D02*
X6027205Y-21483103D01*
X6027205Y-21483103D02*
X6017682Y-21502150D01*
X6017682Y-21502150D02*
X6008158Y-21511674D01*
X6008158Y-21511674D02*
X5989110Y-21521198D01*
X5989110Y-21521198D02*
X5951015Y-21521198D01*
X5951015Y-21521198D02*
X5931967Y-21530722D01*
X5931967Y-21530722D02*
X5922443Y-21540246D01*
X5922443Y-21540246D02*
X5912920Y-21559293D01*
X5912920Y-21559293D02*
X5912920Y-21597389D01*
X5912920Y-21597389D02*
X5922443Y-21616436D01*
X5922443Y-21616436D02*
X5931967Y-21625960D01*
X5931967Y-21625960D02*
X5951015Y-21635484D01*
X5951015Y-21635484D02*
X5989110Y-21635484D01*
X5989110Y-21635484D02*
X6008158Y-21625960D01*
X6008158Y-21625960D02*
X6017682Y-21616436D01*
X6017682Y-21616436D02*
X6027205Y-21597389D01*
X6027205Y-21597389D02*
X6027205Y-21559293D01*
X6027205Y-21559293D02*
X6017682Y-21540246D01*
X6017682Y-21540246D02*
X6008158Y-21530722D01*
X6008158Y-21530722D02*
X5989110Y-21521198D01*
X6112920Y-21635484D02*
X6112920Y-21502150D01*
X6112920Y-21521198D02*
X6122443Y-21511674D01*
X6122443Y-21511674D02*
X6141491Y-21502150D01*
X6141491Y-21502150D02*
X6170063Y-21502150D01*
X6170063Y-21502150D02*
X6189110Y-21511674D01*
X6189110Y-21511674D02*
X6198634Y-21530722D01*
X6198634Y-21530722D02*
X6198634Y-21635484D01*
X6198634Y-21530722D02*
X6208158Y-21511674D01*
X6208158Y-21511674D02*
X6227205Y-21502150D01*
X6227205Y-21502150D02*
X6255777Y-21502150D01*
X6255777Y-21502150D02*
X6274824Y-21511674D01*
X6274824Y-21511674D02*
X6284348Y-21530722D01*
X6284348Y-21530722D02*
X6284348Y-21635484D01*
X6379586Y-21635484D02*
X6379586Y-21502150D01*
X6379586Y-21521198D02*
X6389110Y-21511674D01*
X6389110Y-21511674D02*
X6408158Y-21502150D01*
X6408158Y-21502150D02*
X6436729Y-21502150D01*
X6436729Y-21502150D02*
X6455777Y-21511674D01*
X6455777Y-21511674D02*
X6465301Y-21530722D01*
X6465301Y-21530722D02*
X6465301Y-21635484D01*
X6465301Y-21530722D02*
X6474824Y-21511674D01*
X6474824Y-21511674D02*
X6493872Y-21502150D01*
X6493872Y-21502150D02*
X6522443Y-21502150D01*
X6522443Y-21502150D02*
X6541491Y-21511674D01*
X6541491Y-21511674D02*
X6551015Y-21530722D01*
X6551015Y-21530722D02*
X6551015Y-21635484D01*
X6941491Y-21425960D02*
X6770063Y-21683103D01*
X7198634Y-21435484D02*
X7217682Y-21435484D01*
X7217682Y-21435484D02*
X7236729Y-21445008D01*
X7236729Y-21445008D02*
X7246253Y-21454531D01*
X7246253Y-21454531D02*
X7255777Y-21473579D01*
X7255777Y-21473579D02*
X7265301Y-21511674D01*
X7265301Y-21511674D02*
X7265301Y-21559293D01*
X7265301Y-21559293D02*
X7255777Y-21597389D01*
X7255777Y-21597389D02*
X7246253Y-21616436D01*
X7246253Y-21616436D02*
X7236729Y-21625960D01*
X7236729Y-21625960D02*
X7217682Y-21635484D01*
X7217682Y-21635484D02*
X7198634Y-21635484D01*
X7198634Y-21635484D02*
X7179586Y-21625960D01*
X7179586Y-21625960D02*
X7170063Y-21616436D01*
X7170063Y-21616436D02*
X7160539Y-21597389D01*
X7160539Y-21597389D02*
X7151015Y-21559293D01*
X7151015Y-21559293D02*
X7151015Y-21511674D01*
X7151015Y-21511674D02*
X7160539Y-21473579D01*
X7160539Y-21473579D02*
X7170063Y-21454531D01*
X7170063Y-21454531D02*
X7179586Y-21445008D01*
X7179586Y-21445008D02*
X7198634Y-21435484D01*
X7351015Y-21616436D02*
X7360539Y-21625960D01*
X7360539Y-21625960D02*
X7351015Y-21635484D01*
X7351015Y-21635484D02*
X7341491Y-21625960D01*
X7341491Y-21625960D02*
X7351015Y-21616436D01*
X7351015Y-21616436D02*
X7351015Y-21635484D01*
X7551015Y-21635484D02*
X7436729Y-21635484D01*
X7493872Y-21635484D02*
X7493872Y-21435484D01*
X7493872Y-21435484D02*
X7474825Y-21464055D01*
X7474825Y-21464055D02*
X7455777Y-21483103D01*
X7455777Y-21483103D02*
X7436729Y-21492627D01*
X7731967Y-21435484D02*
X7636729Y-21435484D01*
X7636729Y-21435484D02*
X7627206Y-21530722D01*
X7627206Y-21530722D02*
X7636729Y-21521198D01*
X7636729Y-21521198D02*
X7655777Y-21511674D01*
X7655777Y-21511674D02*
X7703396Y-21511674D01*
X7703396Y-21511674D02*
X7722444Y-21521198D01*
X7722444Y-21521198D02*
X7731967Y-21530722D01*
X7731967Y-21530722D02*
X7741491Y-21549770D01*
X7741491Y-21549770D02*
X7741491Y-21597389D01*
X7741491Y-21597389D02*
X7731967Y-21616436D01*
X7731967Y-21616436D02*
X7722444Y-21625960D01*
X7722444Y-21625960D02*
X7703396Y-21635484D01*
X7703396Y-21635484D02*
X7655777Y-21635484D01*
X7655777Y-21635484D02*
X7636729Y-21625960D01*
X7636729Y-21625960D02*
X7627206Y-21616436D01*
X7808158Y-21435484D02*
X7941491Y-21435484D01*
X7941491Y-21435484D02*
X7855777Y-21635484D01*
X8055777Y-21435484D02*
X8074825Y-21435484D01*
X8074825Y-21435484D02*
X8093872Y-21445008D01*
X8093872Y-21445008D02*
X8103396Y-21454531D01*
X8103396Y-21454531D02*
X8112920Y-21473579D01*
X8112920Y-21473579D02*
X8122444Y-21511674D01*
X8122444Y-21511674D02*
X8122444Y-21559293D01*
X8122444Y-21559293D02*
X8112920Y-21597389D01*
X8112920Y-21597389D02*
X8103396Y-21616436D01*
X8103396Y-21616436D02*
X8093872Y-21625960D01*
X8093872Y-21625960D02*
X8074825Y-21635484D01*
X8074825Y-21635484D02*
X8055777Y-21635484D01*
X8055777Y-21635484D02*
X8036729Y-21625960D01*
X8036729Y-21625960D02*
X8027206Y-21616436D01*
X8027206Y-21616436D02*
X8017682Y-21597389D01*
X8017682Y-21597389D02*
X8008158Y-21559293D01*
X8008158Y-21559293D02*
X8008158Y-21511674D01*
X8008158Y-21511674D02*
X8017682Y-21473579D01*
X8017682Y-21473579D02*
X8027206Y-21454531D01*
X8027206Y-21454531D02*
X8036729Y-21445008D01*
X8036729Y-21445008D02*
X8055777Y-21435484D01*
X8198634Y-21435484D02*
X8198634Y-21473579D01*
X8274825Y-21435484D02*
X8274825Y-21473579D01*
X8570063Y-21711674D02*
X8560539Y-21702150D01*
X8560539Y-21702150D02*
X8541491Y-21673579D01*
X8541491Y-21673579D02*
X8531968Y-21654531D01*
X8531968Y-21654531D02*
X8522444Y-21625960D01*
X8522444Y-21625960D02*
X8512920Y-21578341D01*
X8512920Y-21578341D02*
X8512920Y-21540246D01*
X8512920Y-21540246D02*
X8522444Y-21492627D01*
X8522444Y-21492627D02*
X8531968Y-21464055D01*
X8531968Y-21464055D02*
X8541491Y-21445008D01*
X8541491Y-21445008D02*
X8560539Y-21416436D01*
X8560539Y-21416436D02*
X8570063Y-21406912D01*
X8627206Y-21435484D02*
X8760539Y-21435484D01*
X8760539Y-21435484D02*
X8674825Y-21635484D01*
X8922444Y-21435484D02*
X8884349Y-21435484D01*
X8884349Y-21435484D02*
X8865301Y-21445008D01*
X8865301Y-21445008D02*
X8855777Y-21454531D01*
X8855777Y-21454531D02*
X8836730Y-21483103D01*
X8836730Y-21483103D02*
X8827206Y-21521198D01*
X8827206Y-21521198D02*
X8827206Y-21597389D01*
X8827206Y-21597389D02*
X8836730Y-21616436D01*
X8836730Y-21616436D02*
X8846253Y-21625960D01*
X8846253Y-21625960D02*
X8865301Y-21635484D01*
X8865301Y-21635484D02*
X8903396Y-21635484D01*
X8903396Y-21635484D02*
X8922444Y-21625960D01*
X8922444Y-21625960D02*
X8931968Y-21616436D01*
X8931968Y-21616436D02*
X8941491Y-21597389D01*
X8941491Y-21597389D02*
X8941491Y-21549770D01*
X8941491Y-21549770D02*
X8931968Y-21530722D01*
X8931968Y-21530722D02*
X8922444Y-21521198D01*
X8922444Y-21521198D02*
X8903396Y-21511674D01*
X8903396Y-21511674D02*
X8865301Y-21511674D01*
X8865301Y-21511674D02*
X8846253Y-21521198D01*
X8846253Y-21521198D02*
X8836730Y-21530722D01*
X8836730Y-21530722D02*
X8827206Y-21549770D01*
X9179587Y-21635484D02*
X9179587Y-21435484D01*
X9265301Y-21635484D02*
X9265301Y-21530722D01*
X9265301Y-21530722D02*
X9255777Y-21511674D01*
X9255777Y-21511674D02*
X9236730Y-21502150D01*
X9236730Y-21502150D02*
X9208158Y-21502150D01*
X9208158Y-21502150D02*
X9189111Y-21511674D01*
X9189111Y-21511674D02*
X9179587Y-21521198D01*
X9389111Y-21635484D02*
X9370063Y-21625960D01*
X9370063Y-21625960D02*
X9360539Y-21616436D01*
X9360539Y-21616436D02*
X9351015Y-21597389D01*
X9351015Y-21597389D02*
X9351015Y-21540246D01*
X9351015Y-21540246D02*
X9360539Y-21521198D01*
X9360539Y-21521198D02*
X9370063Y-21511674D01*
X9370063Y-21511674D02*
X9389111Y-21502150D01*
X9389111Y-21502150D02*
X9417682Y-21502150D01*
X9417682Y-21502150D02*
X9436730Y-21511674D01*
X9436730Y-21511674D02*
X9446253Y-21521198D01*
X9446253Y-21521198D02*
X9455777Y-21540246D01*
X9455777Y-21540246D02*
X9455777Y-21597389D01*
X9455777Y-21597389D02*
X9446253Y-21616436D01*
X9446253Y-21616436D02*
X9436730Y-21625960D01*
X9436730Y-21625960D02*
X9417682Y-21635484D01*
X9417682Y-21635484D02*
X9389111Y-21635484D01*
X9570063Y-21635484D02*
X9551015Y-21625960D01*
X9551015Y-21625960D02*
X9541492Y-21606912D01*
X9541492Y-21606912D02*
X9541492Y-21435484D01*
X9722444Y-21625960D02*
X9703396Y-21635484D01*
X9703396Y-21635484D02*
X9665301Y-21635484D01*
X9665301Y-21635484D02*
X9646253Y-21625960D01*
X9646253Y-21625960D02*
X9636730Y-21606912D01*
X9636730Y-21606912D02*
X9636730Y-21530722D01*
X9636730Y-21530722D02*
X9646253Y-21511674D01*
X9646253Y-21511674D02*
X9665301Y-21502150D01*
X9665301Y-21502150D02*
X9703396Y-21502150D01*
X9703396Y-21502150D02*
X9722444Y-21511674D01*
X9722444Y-21511674D02*
X9731968Y-21530722D01*
X9731968Y-21530722D02*
X9731968Y-21549770D01*
X9731968Y-21549770D02*
X9636730Y-21568817D01*
X9808158Y-21625960D02*
X9827206Y-21635484D01*
X9827206Y-21635484D02*
X9865301Y-21635484D01*
X9865301Y-21635484D02*
X9884349Y-21625960D01*
X9884349Y-21625960D02*
X9893873Y-21606912D01*
X9893873Y-21606912D02*
X9893873Y-21597389D01*
X9893873Y-21597389D02*
X9884349Y-21578341D01*
X9884349Y-21578341D02*
X9865301Y-21568817D01*
X9865301Y-21568817D02*
X9836730Y-21568817D01*
X9836730Y-21568817D02*
X9817682Y-21559293D01*
X9817682Y-21559293D02*
X9808158Y-21540246D01*
X9808158Y-21540246D02*
X9808158Y-21530722D01*
X9808158Y-21530722D02*
X9817682Y-21511674D01*
X9817682Y-21511674D02*
X9836730Y-21502150D01*
X9836730Y-21502150D02*
X9865301Y-21502150D01*
X9865301Y-21502150D02*
X9884349Y-21511674D01*
X9960539Y-21711674D02*
X9970063Y-21702150D01*
X9970063Y-21702150D02*
X9989111Y-21673579D01*
X9989111Y-21673579D02*
X9998634Y-21654531D01*
X9998634Y-21654531D02*
X10008158Y-21625960D01*
X10008158Y-21625960D02*
X10017682Y-21578341D01*
X10017682Y-21578341D02*
X10017682Y-21540246D01*
X10017682Y-21540246D02*
X10008158Y-21492627D01*
X10008158Y-21492627D02*
X9998634Y-21464055D01*
X9998634Y-21464055D02*
X9989111Y-21445008D01*
X9989111Y-21445008D02*
X9970063Y-21416436D01*
X9970063Y-21416436D02*
X9960539Y-21406912D01*
X10322444Y-21711674D02*
X10312920Y-21702150D01*
X10312920Y-21702150D02*
X10293873Y-21673579D01*
X10293873Y-21673579D02*
X10284349Y-21654531D01*
X10284349Y-21654531D02*
X10274825Y-21625960D01*
X10274825Y-21625960D02*
X10265301Y-21578341D01*
X10265301Y-21578341D02*
X10265301Y-21540246D01*
X10265301Y-21540246D02*
X10274825Y-21492627D01*
X10274825Y-21492627D02*
X10284349Y-21464055D01*
X10284349Y-21464055D02*
X10293873Y-21445008D01*
X10293873Y-21445008D02*
X10312920Y-21416436D01*
X10312920Y-21416436D02*
X10322444Y-21406912D01*
X10398634Y-21502150D02*
X10398634Y-21635484D01*
X10398634Y-21521198D02*
X10408158Y-21511674D01*
X10408158Y-21511674D02*
X10427206Y-21502150D01*
X10427206Y-21502150D02*
X10455777Y-21502150D01*
X10455777Y-21502150D02*
X10474825Y-21511674D01*
X10474825Y-21511674D02*
X10484349Y-21530722D01*
X10484349Y-21530722D02*
X10484349Y-21635484D01*
X10608158Y-21635484D02*
X10589111Y-21625960D01*
X10589111Y-21625960D02*
X10579587Y-21616436D01*
X10579587Y-21616436D02*
X10570063Y-21597389D01*
X10570063Y-21597389D02*
X10570063Y-21540246D01*
X10570063Y-21540246D02*
X10579587Y-21521198D01*
X10579587Y-21521198D02*
X10589111Y-21511674D01*
X10589111Y-21511674D02*
X10608158Y-21502150D01*
X10608158Y-21502150D02*
X10636730Y-21502150D01*
X10636730Y-21502150D02*
X10655777Y-21511674D01*
X10655777Y-21511674D02*
X10665301Y-21521198D01*
X10665301Y-21521198D02*
X10674825Y-21540246D01*
X10674825Y-21540246D02*
X10674825Y-21597389D01*
X10674825Y-21597389D02*
X10665301Y-21616436D01*
X10665301Y-21616436D02*
X10655777Y-21625960D01*
X10655777Y-21625960D02*
X10636730Y-21635484D01*
X10636730Y-21635484D02*
X10608158Y-21635484D01*
X10731968Y-21502150D02*
X10808158Y-21502150D01*
X10760539Y-21435484D02*
X10760539Y-21606912D01*
X10760539Y-21606912D02*
X10770063Y-21625960D01*
X10770063Y-21625960D02*
X10789111Y-21635484D01*
X10789111Y-21635484D02*
X10808158Y-21635484D01*
X11027206Y-21502150D02*
X11027206Y-21702150D01*
X11027206Y-21511674D02*
X11046254Y-21502150D01*
X11046254Y-21502150D02*
X11084349Y-21502150D01*
X11084349Y-21502150D02*
X11103396Y-21511674D01*
X11103396Y-21511674D02*
X11112920Y-21521198D01*
X11112920Y-21521198D02*
X11122444Y-21540246D01*
X11122444Y-21540246D02*
X11122444Y-21597389D01*
X11122444Y-21597389D02*
X11112920Y-21616436D01*
X11112920Y-21616436D02*
X11103396Y-21625960D01*
X11103396Y-21625960D02*
X11084349Y-21635484D01*
X11084349Y-21635484D02*
X11046254Y-21635484D01*
X11046254Y-21635484D02*
X11027206Y-21625960D01*
X11236730Y-21635484D02*
X11217682Y-21625960D01*
X11217682Y-21625960D02*
X11208158Y-21606912D01*
X11208158Y-21606912D02*
X11208158Y-21435484D01*
X11398634Y-21635484D02*
X11398634Y-21530722D01*
X11398634Y-21530722D02*
X11389111Y-21511674D01*
X11389111Y-21511674D02*
X11370063Y-21502150D01*
X11370063Y-21502150D02*
X11331968Y-21502150D01*
X11331968Y-21502150D02*
X11312920Y-21511674D01*
X11398634Y-21625960D02*
X11379587Y-21635484D01*
X11379587Y-21635484D02*
X11331968Y-21635484D01*
X11331968Y-21635484D02*
X11312920Y-21625960D01*
X11312920Y-21625960D02*
X11303396Y-21606912D01*
X11303396Y-21606912D02*
X11303396Y-21587865D01*
X11303396Y-21587865D02*
X11312920Y-21568817D01*
X11312920Y-21568817D02*
X11331968Y-21559293D01*
X11331968Y-21559293D02*
X11379587Y-21559293D01*
X11379587Y-21559293D02*
X11398634Y-21549770D01*
X11465301Y-21502150D02*
X11541492Y-21502150D01*
X11493873Y-21435484D02*
X11493873Y-21606912D01*
X11493873Y-21606912D02*
X11503396Y-21625960D01*
X11503396Y-21625960D02*
X11522444Y-21635484D01*
X11522444Y-21635484D02*
X11541492Y-21635484D01*
X11684349Y-21625960D02*
X11665301Y-21635484D01*
X11665301Y-21635484D02*
X11627206Y-21635484D01*
X11627206Y-21635484D02*
X11608158Y-21625960D01*
X11608158Y-21625960D02*
X11598634Y-21606912D01*
X11598634Y-21606912D02*
X11598634Y-21530722D01*
X11598634Y-21530722D02*
X11608158Y-21511674D01*
X11608158Y-21511674D02*
X11627206Y-21502150D01*
X11627206Y-21502150D02*
X11665301Y-21502150D01*
X11665301Y-21502150D02*
X11684349Y-21511674D01*
X11684349Y-21511674D02*
X11693873Y-21530722D01*
X11693873Y-21530722D02*
X11693873Y-21549770D01*
X11693873Y-21549770D02*
X11598634Y-21568817D01*
X11865301Y-21635484D02*
X11865301Y-21435484D01*
X11865301Y-21625960D02*
X11846254Y-21635484D01*
X11846254Y-21635484D02*
X11808158Y-21635484D01*
X11808158Y-21635484D02*
X11789111Y-21625960D01*
X11789111Y-21625960D02*
X11779587Y-21616436D01*
X11779587Y-21616436D02*
X11770063Y-21597389D01*
X11770063Y-21597389D02*
X11770063Y-21540246D01*
X11770063Y-21540246D02*
X11779587Y-21521198D01*
X11779587Y-21521198D02*
X11789111Y-21511674D01*
X11789111Y-21511674D02*
X11808158Y-21502150D01*
X11808158Y-21502150D02*
X11846254Y-21502150D01*
X11846254Y-21502150D02*
X11865301Y-21511674D01*
X11941492Y-21711674D02*
X11951015Y-21702150D01*
X11951015Y-21702150D02*
X11970063Y-21673579D01*
X11970063Y-21673579D02*
X11979587Y-21654531D01*
X11979587Y-21654531D02*
X11989111Y-21625960D01*
X11989111Y-21625960D02*
X11998634Y-21578341D01*
X11998634Y-21578341D02*
X11998634Y-21540246D01*
X11998634Y-21540246D02*
X11989111Y-21492627D01*
X11989111Y-21492627D02*
X11979587Y-21464055D01*
X11979587Y-21464055D02*
X11970063Y-21445008D01*
X11970063Y-21445008D02*
X11951015Y-21416436D01*
X11951015Y-21416436D02*
X11941492Y-21406912D01*
M02*
