G04 #@! TF.GenerationSoftware,KiCad,Pcbnew,7.0.5*
G04 #@! TF.CreationDate,2024-08-24T17:49:56+10:00*
G04 #@! TF.ProjectId,keyboard,6b657962-6f61-4726-942e-6b696361645f,rev?*
G04 #@! TF.SameCoordinates,Original*
G04 #@! TF.FileFunction,Soldermask,Bot*
G04 #@! TF.FilePolarity,Negative*
%FSLAX46Y46*%
G04 Gerber Fmt 4.6, Leading zero omitted, Abs format (unit mm)*
G04 Created by KiCad (PCBNEW 7.0.5) date 2024-08-24 17:49:56*
%MOMM*%
%LPD*%
G01*
G04 APERTURE LIST*
%ADD10C,0.650000*%
%ADD11O,1.000000X1.800000*%
%ADD12O,1.000000X2.100000*%
%ADD13R,1.600000X1.600000*%
%ADD14O,1.600000X1.600000*%
%ADD15C,1.750000*%
%ADD16C,3.987800*%
%ADD17C,2.300000*%
%ADD18O,3.500000X3.500000*%
%ADD19R,1.905000X2.000000*%
%ADD20O,1.905000X2.000000*%
%ADD21C,6.400000*%
%ADD22C,1.070000*%
%ADD23C,3.048000*%
%ADD24R,1.800000X1.800000*%
%ADD25C,1.800000*%
%ADD26C,1.600000*%
%ADD27R,1.700000X1.700000*%
%ADD28O,1.700000X1.700000*%
%ADD29C,5.080000*%
%ADD30R,2.000000X2.000000*%
%ADD31C,2.000000*%
%ADD32R,2.000000X3.200000*%
G04 APERTURE END LIST*
D10*
X218172466Y-63859534D03*
X212392466Y-63859534D03*
D11*
X219602466Y-60179534D03*
D12*
X219602466Y-64379534D03*
X210962466Y-64379534D03*
D11*
X210962466Y-60179534D03*
D13*
X280754668Y-89122500D03*
D14*
X280754668Y-94202500D03*
D13*
X149098000Y-89154000D03*
D14*
X149098000Y-94234000D03*
D13*
X182118000Y-65817500D03*
D14*
X182118000Y-70897500D03*
D13*
X162306000Y-76454000D03*
D14*
X162306000Y-81534000D03*
D13*
X264329336Y-74898500D03*
D14*
X264329336Y-79978500D03*
D15*
X325883750Y-105850000D03*
D16*
X330963750Y-105850000D03*
D15*
X336043750Y-105850000D03*
D17*
X327153750Y-103310000D03*
X333503750Y-100770000D03*
D15*
X354427000Y-143950000D03*
D16*
X359507000Y-143950000D03*
D15*
X364587000Y-143950000D03*
D17*
X355697000Y-141410000D03*
X362047000Y-138870000D03*
D13*
X175514000Y-76454000D03*
D14*
X175514000Y-81534000D03*
D15*
X316327000Y-182077050D03*
D16*
X321407000Y-182077050D03*
D15*
X326487000Y-182077050D03*
D17*
X317597000Y-179537050D03*
X323947000Y-176997050D03*
D18*
X230886000Y-75628000D03*
D19*
X228346000Y-92288000D03*
D20*
X230886000Y-92288000D03*
X233426000Y-92288000D03*
D13*
X244517336Y-74898500D03*
D14*
X244517336Y-79978500D03*
D13*
X168910000Y-89122500D03*
D14*
X168910000Y-94202500D03*
D13*
X234696000Y-65817500D03*
D14*
X234696000Y-70897500D03*
D15*
X116302000Y-124900000D03*
D16*
X121382000Y-124900000D03*
D15*
X126462000Y-124900000D03*
D17*
X117572000Y-122360000D03*
X123922000Y-119820000D03*
D13*
X284014334Y-87598500D03*
D14*
X284014334Y-92678500D03*
D13*
X293793336Y-89122500D03*
D14*
X293793336Y-94202500D03*
D15*
X121001000Y-143950000D03*
D16*
X126081000Y-143950000D03*
D15*
X131161000Y-143950000D03*
D17*
X122271000Y-141410000D03*
X128621000Y-138870000D03*
D15*
X125833000Y-105850000D03*
D16*
X130913000Y-105850000D03*
D15*
X135993000Y-105850000D03*
D17*
X127103000Y-103310000D03*
X133453000Y-100770000D03*
D15*
X354427000Y-163000000D03*
D16*
X359507000Y-163000000D03*
D15*
X364587000Y-163000000D03*
D17*
X355697000Y-160460000D03*
X362047000Y-157920000D03*
D15*
X235301000Y-143950000D03*
D16*
X240381000Y-143950000D03*
D15*
X245461000Y-143950000D03*
D17*
X236571000Y-141410000D03*
X242921000Y-138870000D03*
D13*
X267631336Y-76200000D03*
D14*
X267631336Y-81280000D03*
D15*
X221083000Y-105850000D03*
D16*
X226163000Y-105850000D03*
D15*
X231243000Y-105850000D03*
D17*
X222353000Y-103310000D03*
X228703000Y-100770000D03*
D15*
X118617000Y-182077050D03*
D16*
X123697000Y-182077050D03*
D15*
X128777000Y-182077050D03*
D17*
X119887000Y-179537050D03*
X126237000Y-176997050D03*
D15*
X178151000Y-143950000D03*
D16*
X183231000Y-143950000D03*
D15*
X188311000Y-143950000D03*
D17*
X179421000Y-141410000D03*
X185771000Y-138870000D03*
D15*
X263876000Y-163000000D03*
D16*
X268956000Y-163000000D03*
D15*
X274036000Y-163000000D03*
D17*
X265146000Y-160460000D03*
X271496000Y-157920000D03*
D15*
X287752000Y-124900000D03*
D16*
X292832000Y-124900000D03*
D15*
X297912000Y-124900000D03*
D17*
X289022000Y-122360000D03*
X295372000Y-119820000D03*
D13*
X261027336Y-89122500D03*
D14*
X261027336Y-94202500D03*
D15*
X111476000Y-163000000D03*
D16*
X116556000Y-163000000D03*
D15*
X121636000Y-163000000D03*
D17*
X112746000Y-160460000D03*
X119096000Y-157920000D03*
D15*
X163933000Y-105850000D03*
D16*
X169013000Y-105850000D03*
D15*
X174093000Y-105850000D03*
D17*
X165203000Y-103310000D03*
X171553000Y-100770000D03*
D13*
X277537336Y-74898500D03*
D14*
X277537336Y-79978500D03*
D13*
X188722000Y-65849000D03*
D14*
X188722000Y-70929000D03*
D15*
X101951000Y-143950000D03*
D16*
X107031000Y-143950000D03*
D15*
X112111000Y-143950000D03*
D17*
X103221000Y-141410000D03*
X109571000Y-138870000D03*
D15*
X187676000Y-163000000D03*
D16*
X192756000Y-163000000D03*
D15*
X197836000Y-163000000D03*
D17*
X188946000Y-160460000D03*
X195296000Y-157920000D03*
D13*
X274235336Y-76200000D03*
D14*
X274235336Y-81280000D03*
D13*
X270933336Y-87598500D03*
D14*
X270933336Y-92678500D03*
D13*
X115450000Y-74800000D03*
D14*
X117990000Y-74800000D03*
X120530000Y-74800000D03*
X123070000Y-74800000D03*
X123070000Y-67180000D03*
X120530000Y-67180000D03*
X117990000Y-67180000D03*
X115450000Y-67180000D03*
D21*
X375000000Y-62000000D03*
D15*
X211552000Y-124900000D03*
D16*
X216632000Y-124900000D03*
D15*
X221712000Y-124900000D03*
D17*
X212822000Y-122360000D03*
X219172000Y-119820000D03*
D13*
X159004000Y-87598500D03*
D14*
X159004000Y-92678500D03*
D13*
X162306000Y-89154000D03*
D14*
X162306000Y-94234000D03*
D15*
X278227000Y-182077050D03*
D16*
X283307000Y-182077050D03*
D15*
X288387000Y-182077050D03*
D17*
X279497000Y-179537050D03*
X285847000Y-176997050D03*
D15*
X278233000Y-105850000D03*
D16*
X283313000Y-105850000D03*
D15*
X288393000Y-105850000D03*
D17*
X279503000Y-103310000D03*
X285853000Y-100770000D03*
D13*
X237998000Y-64262000D03*
D14*
X237998000Y-69342000D03*
D15*
X75789000Y-143950000D03*
D16*
X80869000Y-143950000D03*
D15*
X85949000Y-143950000D03*
D17*
X77059000Y-141410000D03*
X83409000Y-138870000D03*
D15*
X140051000Y-143950000D03*
D16*
X145131000Y-143950000D03*
D15*
X150211000Y-143950000D03*
D17*
X141321000Y-141410000D03*
X147671000Y-138870000D03*
D15*
X254351000Y-143950000D03*
D16*
X259431000Y-143950000D03*
D15*
X264511000Y-143950000D03*
D17*
X255621000Y-141410000D03*
X261971000Y-138870000D03*
D15*
X149576000Y-163000000D03*
D16*
X154656000Y-163000000D03*
D15*
X159736000Y-163000000D03*
D17*
X150846000Y-160460000D03*
X157196000Y-157920000D03*
D13*
X244602000Y-64262000D03*
D14*
X244602000Y-69342000D03*
D13*
X257725336Y-87598500D03*
D14*
X257725336Y-92678500D03*
D13*
X274235336Y-89122500D03*
D14*
X274235336Y-94202500D03*
D15*
X335383000Y-163000000D03*
D16*
X340463000Y-163000000D03*
D15*
X345543000Y-163000000D03*
D17*
X336653000Y-160460000D03*
X343003000Y-157920000D03*
D15*
X335377000Y-182077050D03*
D16*
X340457000Y-182077050D03*
D15*
X345537000Y-182077050D03*
D17*
X336647000Y-179537050D03*
X342997000Y-176997050D03*
D13*
X261027336Y-76200000D03*
D14*
X261027336Y-81280000D03*
D13*
X142494000Y-89154000D03*
D14*
X142494000Y-94234000D03*
D15*
X282920000Y-163000000D03*
D16*
X288000000Y-163000000D03*
D15*
X293080000Y-163000000D03*
D17*
X284190000Y-160460000D03*
X290540000Y-157920000D03*
D13*
X139192000Y-87598500D03*
D14*
X139192000Y-92678500D03*
D22*
X198628000Y-85852000D03*
X197358000Y-85852000D03*
X198628000Y-84582000D03*
X197358000Y-84582000D03*
X198628000Y-83312000D03*
X197358000Y-83312000D03*
X198628000Y-82042000D03*
X197358000Y-82042000D03*
X198628000Y-80772000D03*
X197358000Y-80772000D03*
D13*
X284141336Y-74898500D03*
D14*
X284141336Y-79978500D03*
D15*
X354427000Y-182077050D03*
D16*
X359507000Y-182077050D03*
D15*
X364587000Y-182077050D03*
D17*
X355697000Y-179537050D03*
X362047000Y-176997050D03*
D15*
X249652000Y-124900000D03*
D16*
X254732000Y-124900000D03*
D15*
X259812000Y-124900000D03*
D17*
X250922000Y-122360000D03*
X257272000Y-119820000D03*
D13*
X287274000Y-89122500D03*
D14*
X287274000Y-94202500D03*
D15*
X268702000Y-124900000D03*
D16*
X273782000Y-124900000D03*
D15*
X278862000Y-124900000D03*
D17*
X269972000Y-122360000D03*
X276322000Y-119820000D03*
D15*
X297283000Y-105850000D03*
D16*
X302363000Y-105850000D03*
D15*
X307443000Y-105850000D03*
D17*
X298553000Y-103310000D03*
X304903000Y-100770000D03*
D13*
X277495002Y-87598500D03*
D14*
X277495002Y-92678500D03*
D13*
X254423336Y-76200000D03*
D14*
X254423336Y-81280000D03*
D13*
X145796000Y-74898500D03*
D14*
X145796000Y-79978500D03*
D23*
X145170750Y-175092050D03*
D16*
X145170750Y-190332050D03*
D23*
X245183250Y-175092050D03*
D16*
X245183250Y-190332050D03*
D13*
X135890000Y-89154000D03*
D14*
X135890000Y-94234000D03*
D15*
X106736000Y-105850000D03*
D16*
X111816000Y-105850000D03*
D15*
X116896000Y-105850000D03*
D17*
X108006000Y-103310000D03*
X114356000Y-100770000D03*
D13*
X172212000Y-74930000D03*
D14*
X172212000Y-80010000D03*
D13*
X185420000Y-74898500D03*
D14*
X185420000Y-79978500D03*
D13*
X270933336Y-74898500D03*
D14*
X270933336Y-79978500D03*
D24*
X207518000Y-64008000D03*
D25*
X207518000Y-61468000D03*
D13*
X192024000Y-64262000D03*
D14*
X192024000Y-69342000D03*
D21*
X55000000Y-192000000D03*
D15*
X244826000Y-163000000D03*
D16*
X249906000Y-163000000D03*
D15*
X254986000Y-163000000D03*
D17*
X246096000Y-160460000D03*
X252446000Y-157920000D03*
D15*
X173405000Y-124900000D03*
D16*
X178485000Y-124900000D03*
D15*
X183565000Y-124900000D03*
D17*
X174675000Y-122360000D03*
X181025000Y-119820000D03*
D15*
X273401000Y-143950000D03*
D16*
X278481000Y-143950000D03*
D15*
X283561000Y-143950000D03*
D17*
X274671000Y-141410000D03*
X281021000Y-138870000D03*
D26*
X203454000Y-66294000D03*
D14*
X203454000Y-58674000D03*
D13*
X155702000Y-76454000D03*
D14*
X155702000Y-81534000D03*
D15*
X206726000Y-163000000D03*
D16*
X211806000Y-163000000D03*
D15*
X216886000Y-163000000D03*
D17*
X207996000Y-160460000D03*
X214346000Y-157920000D03*
D15*
X354427000Y-124900000D03*
D16*
X359507000Y-124900000D03*
D15*
X364587000Y-124900000D03*
D17*
X355697000Y-122360000D03*
X362047000Y-119820000D03*
D27*
X65373000Y-86455000D03*
D28*
X65373000Y-88995000D03*
X65373000Y-91535000D03*
X65373000Y-94075000D03*
D29*
X71723000Y-86836000D03*
X98393000Y-93186000D03*
D15*
X306808000Y-124900000D03*
D16*
X311888000Y-124900000D03*
D15*
X316968000Y-124900000D03*
D17*
X308078000Y-122360000D03*
X314428000Y-119820000D03*
D15*
X190097000Y-182077050D03*
D16*
X195177000Y-182077050D03*
D15*
X200257000Y-182077050D03*
D17*
X191367000Y-179537050D03*
X197717000Y-176997050D03*
D15*
X259177000Y-182077050D03*
D16*
X264257000Y-182077050D03*
D15*
X269337000Y-182077050D03*
D17*
X260447000Y-179537050D03*
X266797000Y-176997050D03*
D15*
X192502000Y-124900000D03*
D16*
X197582000Y-124900000D03*
D15*
X202662000Y-124900000D03*
D17*
X193772000Y-122360000D03*
X200122000Y-119820000D03*
D15*
X240133000Y-105850000D03*
D16*
X245213000Y-105850000D03*
D15*
X250293000Y-105850000D03*
D17*
X241403000Y-103310000D03*
X247753000Y-100770000D03*
D30*
X354798000Y-72760000D03*
D31*
X349798000Y-72760000D03*
X352298000Y-72760000D03*
D32*
X357898000Y-80260000D03*
X346698000Y-80260000D03*
D31*
X349798000Y-87260000D03*
X354798000Y-87260000D03*
D13*
X257725336Y-74898500D03*
D14*
X257725336Y-79978500D03*
D15*
X323470750Y-143950000D03*
D16*
X328550750Y-143950000D03*
D15*
X333630750Y-143950000D03*
D17*
X324740750Y-141410000D03*
X331090750Y-138870000D03*
D13*
X247819336Y-76200000D03*
D14*
X247819336Y-81280000D03*
D21*
X55000000Y-62000000D03*
D23*
X340457000Y-150935000D03*
D16*
X340457000Y-135695000D03*
D23*
X316644500Y-150935000D03*
D16*
X316644500Y-135695000D03*
D15*
X94845000Y-182077050D03*
D16*
X99925000Y-182077050D03*
D15*
X105005000Y-182077050D03*
D17*
X96115000Y-179537050D03*
X102465000Y-176997050D03*
D23*
X97506000Y-169985000D03*
D16*
X97506000Y-154745000D03*
D23*
X73693500Y-169985000D03*
D16*
X73693500Y-154745000D03*
D15*
X309221000Y-163000000D03*
D16*
X314301000Y-163000000D03*
D15*
X319381000Y-163000000D03*
D17*
X310491000Y-160460000D03*
X316841000Y-157920000D03*
D13*
X251121336Y-74898500D03*
D14*
X251121336Y-79978500D03*
D13*
X231394000Y-64262000D03*
D14*
X231394000Y-69342000D03*
D15*
X135352000Y-124900000D03*
D16*
X140432000Y-124900000D03*
D15*
X145512000Y-124900000D03*
D17*
X136622000Y-122360000D03*
X142972000Y-119820000D03*
D15*
X97252000Y-124900000D03*
D16*
X102332000Y-124900000D03*
D15*
X107412000Y-124900000D03*
D17*
X98522000Y-122360000D03*
X104872000Y-119820000D03*
D13*
X241300000Y-65817500D03*
D14*
X241300000Y-70897500D03*
D26*
X225806000Y-66294000D03*
D14*
X225806000Y-58674000D03*
D15*
X216251000Y-143950000D03*
D16*
X221331000Y-143950000D03*
D15*
X226411000Y-143950000D03*
D17*
X217521000Y-141410000D03*
X223871000Y-138870000D03*
D15*
X292451000Y-143950000D03*
D16*
X297531000Y-143950000D03*
D15*
X302611000Y-143950000D03*
D17*
X293721000Y-141410000D03*
X300071000Y-138870000D03*
D15*
X202033000Y-105850000D03*
D16*
X207113000Y-105850000D03*
D15*
X212193000Y-105850000D03*
D17*
X203303000Y-103310000D03*
X209653000Y-100770000D03*
D15*
X80488000Y-163000000D03*
D16*
X85568000Y-163000000D03*
D15*
X90648000Y-163000000D03*
D17*
X81758000Y-160460000D03*
X88108000Y-157920000D03*
D15*
X159101000Y-143950000D03*
D16*
X164181000Y-143950000D03*
D15*
X169261000Y-143950000D03*
D17*
X160371000Y-141410000D03*
X166721000Y-138870000D03*
D13*
X290533666Y-87598500D03*
D14*
X290533666Y-92678500D03*
D15*
X182983000Y-105850000D03*
D16*
X188063000Y-105850000D03*
D15*
X193143000Y-105850000D03*
D17*
X184253000Y-103310000D03*
X190603000Y-100770000D03*
D15*
X87606000Y-105850000D03*
D16*
X92686000Y-105850000D03*
D15*
X97766000Y-105850000D03*
D17*
X88876000Y-103310000D03*
X95226000Y-100770000D03*
D15*
X197201000Y-143950000D03*
D16*
X202281000Y-143950000D03*
D15*
X207361000Y-143950000D03*
D17*
X198471000Y-141410000D03*
X204821000Y-138870000D03*
D13*
X214153500Y-70104000D03*
D14*
X209073500Y-70104000D03*
D21*
X375000000Y-192000000D03*
D13*
X178816000Y-74930000D03*
D14*
X178816000Y-80010000D03*
D23*
X342870000Y-112835000D03*
D16*
X342870000Y-97595000D03*
D23*
X319057500Y-112835000D03*
D16*
X319057500Y-97595000D03*
D15*
X73376000Y-124900000D03*
D16*
X78456000Y-124900000D03*
D15*
X83536000Y-124900000D03*
D17*
X74646000Y-122360000D03*
X80996000Y-119820000D03*
D13*
X216376500Y-70104000D03*
D14*
X221456500Y-70104000D03*
D15*
X130520000Y-163000000D03*
D16*
X135600000Y-163000000D03*
D15*
X140680000Y-163000000D03*
D17*
X131790000Y-160460000D03*
X138140000Y-157920000D03*
D13*
X185420000Y-64262000D03*
D14*
X185420000Y-69342000D03*
D15*
X68556000Y-105850000D03*
D16*
X73636000Y-105850000D03*
D15*
X78716000Y-105850000D03*
D17*
X69826000Y-103310000D03*
X76176000Y-100770000D03*
D15*
X70969000Y-182077050D03*
D16*
X76049000Y-182077050D03*
D15*
X81129000Y-182077050D03*
D17*
X72239000Y-179537050D03*
X78589000Y-176997050D03*
D13*
X159004000Y-74930000D03*
D14*
X159004000Y-80010000D03*
D13*
X195326000Y-65817500D03*
D14*
X195326000Y-70897500D03*
D13*
X168910000Y-76454000D03*
D14*
X168910000Y-81534000D03*
D27*
X110500000Y-69460000D03*
D28*
X110500000Y-72000000D03*
D13*
X165608000Y-87598500D03*
D14*
X165608000Y-92678500D03*
D13*
X247904000Y-65817500D03*
D14*
X247904000Y-70897500D03*
D26*
X222758000Y-58674000D03*
D14*
X222758000Y-66294000D03*
D15*
X297277000Y-182077050D03*
D16*
X302357000Y-182077050D03*
D15*
X307437000Y-182077050D03*
D17*
X298547000Y-179537050D03*
X304897000Y-176997050D03*
D13*
X254423336Y-89122500D03*
D14*
X254423336Y-94202500D03*
D13*
X155702000Y-89154000D03*
D14*
X155702000Y-94234000D03*
D15*
X144883000Y-105850000D03*
D16*
X149963000Y-105850000D03*
D15*
X155043000Y-105850000D03*
D17*
X146153000Y-103310000D03*
X152503000Y-100770000D03*
D13*
X264329336Y-87598500D03*
D14*
X264329336Y-92678500D03*
D15*
X154402000Y-124900000D03*
D16*
X159482000Y-124900000D03*
D15*
X164562000Y-124900000D03*
D17*
X155672000Y-122360000D03*
X162022000Y-119820000D03*
D15*
X330672000Y-124900000D03*
D16*
X335752000Y-124900000D03*
D15*
X340832000Y-124900000D03*
D17*
X331942000Y-122360000D03*
X338292000Y-119820000D03*
D13*
X267631336Y-89122500D03*
D14*
X267631336Y-94202500D03*
D15*
X354427000Y-105850000D03*
D16*
X359507000Y-105850000D03*
D15*
X364587000Y-105850000D03*
D17*
X355697000Y-103310000D03*
X362047000Y-100770000D03*
D15*
X225776000Y-163000000D03*
D16*
X230856000Y-163000000D03*
D15*
X235936000Y-163000000D03*
D17*
X227046000Y-160460000D03*
X233396000Y-157920000D03*
D13*
X145796000Y-87598500D03*
D14*
X145796000Y-92678500D03*
D13*
X165608000Y-74930000D03*
D14*
X165608000Y-80010000D03*
D15*
X259183000Y-105850000D03*
D16*
X264263000Y-105850000D03*
D15*
X269343000Y-105850000D03*
D17*
X260453000Y-103310000D03*
X266803000Y-100770000D03*
D13*
X188722000Y-76200000D03*
D14*
X188722000Y-81280000D03*
D15*
X230602000Y-124900000D03*
D16*
X235682000Y-124900000D03*
D15*
X240762000Y-124900000D03*
D17*
X231872000Y-122360000D03*
X238222000Y-119820000D03*
D13*
X175514000Y-89122500D03*
D14*
X175514000Y-94202500D03*
D13*
X149098000Y-76422500D03*
D14*
X149098000Y-81502500D03*
D13*
X251121336Y-87598500D03*
D14*
X251121336Y-92678500D03*
D13*
X241215336Y-76200000D03*
D14*
X241215336Y-81280000D03*
D15*
X168626000Y-163000000D03*
D16*
X173706000Y-163000000D03*
D15*
X178786000Y-163000000D03*
D17*
X169896000Y-160460000D03*
X176246000Y-157920000D03*
D13*
X152400000Y-87598500D03*
D14*
X152400000Y-92678500D03*
D13*
X182118000Y-76200000D03*
D14*
X182118000Y-81280000D03*
D13*
X280839336Y-76200000D03*
D14*
X280839336Y-81280000D03*
D13*
X152400000Y-74898500D03*
D14*
X152400000Y-79978500D03*
D13*
X198628000Y-64262000D03*
D14*
X198628000Y-69342000D03*
D13*
X178816000Y-87598500D03*
D14*
X178816000Y-92678500D03*
D13*
X172212000Y-87598500D03*
D14*
X172212000Y-92678500D03*
M02*
